# MagicaVoxel @ Ephtracy

# group
o 

# material
mtllib male-52.mtl
usemtl palette

# normals
vn -1 0 0
vn 1 0 0
vn 0 0 1
vn 0 0 -1
vn 0 -1 0
vn 0 1 0

# texcoords
vt 0.0292969 0.5
vt 0.341797 0.5
vt 0.509766 0.5

# verts
v -0.6 -0.2 0.1
v -0.6 -0.2 -0.1
v -0.6 -0.1 0.2
v -0.6 -0.1 0.1
v -0.6 -0.1 -0.1
v -0.6 -0.1 -0.2
v -0.6 0.0999999 0.2
v -0.6 0.0999999 0.1
v -0.6 0.0999999 -0.1
v -0.6 0.0999999 -0.2
v -0.6 0.2 0.1
v -0.6 0.2 -0.1
v 0 -0.2 0.1
v 0 -0.2 -0.1
v 0 -0.1 0.2
v 0 -0.1 0.1
v 0 -0.1 -0.1
v 0 -0.1 -0.2
v 0 0.0999999 0.2
v 0 0.0999999 0.1
v 0 0.0999999 -0.1
v 0 0.0999999 -0.2
v 0 0.2 0.1
v 0 0.2 -0.1
v 0.1 -0.1 0.1
v 0.1 -0.1 -0.1
v 0.1 0.0999999 0.1
v 0.1 0.0999999 -0.1
v -0.6 -0.1 0.2
v -0.6 0.0999999 0.2
v -0.4 -0.1 0.2
v -0.4 0.0999999 0.2
v 0 -0.1 0.2
v 0 0.0999999 0.2
v -0.6 -0.2 0.1
v -0.6 -0.1 0.1
v -0.6 0.0999999 0.1
v -0.6 0.2 0.1
v -0.4 -0.2 0.1
v -0.4 -0.1 0.1
v -0.4 0.0999999 0.1
v -0.4 0.2 0.1
v 0 -0.2 0.1
v 0 -0.1 0.1
v 0 0.0999999 0.1
v 0 0.2 0.1
v 0.1 -0.1 0.1
v 0.1 0.0999999 0.1
v -0.6 -0.2 -0.1
v -0.6 -0.1 -0.1
v -0.6 0.0999999 -0.1
v -0.6 0.2 -0.1
v -0.4 -0.2 -0.1
v -0.4 -0.1 -0.1
v -0.4 0.0999999 -0.1
v -0.4 0.2 -0.1
v 0 -0.2 -0.1
v 0 -0.1 -0.1
v 0 0.0999999 -0.1
v 0 0.2 -0.1
v 0.1 -0.1 -0.1
v 0.1 0.0999999 -0.1
v -0.6 -0.1 -0.2
v -0.6 0.0999999 -0.2
v -0.4 -0.1 -0.2
v -0.4 0.0999999 -0.2
v 0 -0.1 -0.2
v 0 0.0999999 -0.2
v -0.6 -0.2 0.1
v -0.4 -0.2 0.1
v 0 -0.2 0.1
v -0.6 -0.2 -0.1
v -0.4 -0.2 -0.1
v 0 -0.2 -0.1
v -0.6 -0.1 0.2
v -0.4 -0.1 0.2
v 0 -0.1 0.2
v -0.6 -0.1 0.1
v -0.4 -0.1 0.1
v 0 -0.1 0.1
v 0.1 -0.1 0.1
v -0.6 -0.1 -0.1
v -0.4 -0.1 -0.1
v 0 -0.1 -0.1
v 0.1 -0.1 -0.1
v -0.6 -0.1 -0.2
v -0.4 -0.1 -0.2
v 0 -0.1 -0.2
v -0.6 0.0999999 0.2
v -0.4 0.0999999 0.2
v 0 0.0999999 0.2
v -0.6 0.0999999 0.1
v -0.4 0.0999999 0.1
v 0 0.0999999 0.1
v 0.1 0.0999999 0.1
v -0.6 0.0999999 -0.1
v -0.4 0.0999999 -0.1
v 0 0.0999999 -0.1
v 0.1 0.0999999 -0.1
v -0.6 0.0999999 -0.2
v -0.4 0.0999999 -0.2
v 0 0.0999999 -0.2
v -0.6 0.2 0.1
v -0.4 0.2 0.1
v 0 0.2 0.1
v -0.6 0.2 -0.1
v -0.4 0.2 -0.1
v 0 0.2 -0.1

# faces
f 4/3/1 2/3/1 1/3/1
f 5/3/1 2/3/1 4/3/1
f 7/3/1 4/3/1 3/3/1
f 8/1/1 5/1/1 4/1/1
f 8/3/1 4/3/1 7/3/1
f 9/3/1 6/3/1 5/3/1
f 9/1/1 5/1/1 8/1/1
f 10/3/1 6/3/1 9/3/1
f 11/3/1 9/3/1 8/3/1
f 12/3/1 9/3/1 11/3/1
f 13/2/2 14/2/2 16/2/2
f 16/2/2 14/2/2 17/2/2
f 15/2/2 16/2/2 19/2/2
f 19/2/2 16/2/2 20/2/2
f 17/2/2 18/2/2 21/2/2
f 21/2/2 18/2/2 22/2/2
f 20/2/2 21/2/2 23/2/2
f 23/2/2 21/2/2 24/2/2
f 25/2/2 26/2/2 27/2/2
f 27/2/2 26/2/2 28/2/2
f 31/3/3 30/3/3 29/3/3
f 32/3/3 30/3/3 31/3/3
f 33/2/3 32/2/3 31/2/3
f 34/2/3 32/2/3 33/2/3
f 39/3/3 36/3/3 35/3/3
f 40/3/3 36/3/3 39/3/3
f 41/3/3 38/3/3 37/3/3
f 42/3/3 38/3/3 41/3/3
f 43/2/3 40/2/3 39/2/3
f 44/2/3 40/2/3 43/2/3
f 45/2/3 42/2/3 41/2/3
f 46/2/3 42/2/3 45/2/3
f 47/2/3 45/2/3 44/2/3
f 48/2/3 45/2/3 47/2/3
f 49/3/4 50/3/4 53/3/4
f 53/3/4 50/3/4 54/3/4
f 51/3/4 52/3/4 55/3/4
f 55/3/4 52/3/4 56/3/4
f 53/2/4 54/2/4 57/2/4
f 57/2/4 54/2/4 58/2/4
f 55/2/4 56/2/4 59/2/4
f 59/2/4 56/2/4 60/2/4
f 58/2/4 59/2/4 61/2/4
f 61/2/4 59/2/4 62/2/4
f 63/3/4 64/3/4 65/3/4
f 65/3/4 64/3/4 66/3/4
f 65/2/4 66/2/4 67/2/4
f 67/2/4 66/2/4 68/2/4
f 72/3/5 70/3/5 69/3/5
f 73/2/5 71/2/5 70/2/5
f 73/3/5 70/3/5 72/3/5
f 74/2/5 71/2/5 73/2/5
f 78/3/5 76/3/5 75/3/5
f 79/2/5 77/2/5 76/2/5
f 79/3/5 76/3/5 78/3/5
f 80/2/5 77/2/5 79/2/5
f 84/2/5 81/2/5 80/2/5
f 85/2/5 81/2/5 84/2/5
f 86/3/5 83/3/5 82/3/5
f 87/2/5 84/2/5 83/2/5
f 87/3/5 83/3/5 86/3/5
f 88/2/5 84/2/5 87/2/5
f 89/3/6 90/3/6 92/3/6
f 90/2/6 91/2/6 93/2/6
f 92/3/6 90/3/6 93/3/6
f 93/2/6 91/2/6 94/2/6
f 94/2/6 95/2/6 98/2/6
f 98/2/6 95/2/6 99/2/6
f 96/3/6 97/3/6 100/3/6
f 97/2/6 98/2/6 101/2/6
f 100/3/6 97/3/6 101/3/6
f 101/2/6 98/2/6 102/2/6
f 103/3/6 104/3/6 106/3/6
f 104/2/6 105/2/6 107/2/6
f 106/3/6 104/3/6 107/3/6
f 107/2/6 105/2/6 108/2/6
