# MagicaVoxel @ Ephtracy

# group
o 

# material
mtllib male-10.mtl
usemtl palette

# normals
vn -1 0 0
vn 1 0 0
vn 0 0 1
vn 0 0 -1
vn 0 -1 0
vn 0 1 0

# texcoords
vt 0.0292969 0.5
vt 0.0566406 0.5
vt 0.341797 0.5
vt 0.509766 0.5
vt 0.958984 0.5

# verts
v -0.6 0.3 0.2
v -0.6 0.3 -0.2
v -0.6 0.9 0.2
v -0.6 0.9 -0.2
v -0.5 -2.23517e-008 0.2
v -0.5 -2.23517e-008 -0.2
v -0.5 0.1 0
v -0.5 0.1 -0.2
v -0.5 0.2 0.1
v -0.5 0.2 0
v -0.5 0.3 0.3
v -0.5 0.3 0.2
v -0.5 0.3 0.1
v -0.5 0.3 -0.2
v -0.5 0.3 -0.3
v -0.5 0.9 0.3
v -0.5 0.9 0.2
v -0.5 0.9 0.1
v -0.5 0.9 -0.1
v -0.5 0.9 -0.2
v -0.5 0.9 -0.3
v -0.5 1 0.2
v -0.5 1 0.1
v -0.5 1 -0.1
v -0.5 1 -0.2
v -0.4 -2.23517e-008 0.3
v -0.4 -2.23517e-008 0.2
v -0.4 -2.23517e-008 -0.2
v -0.4 -2.23517e-008 -0.3
v -0.4 0.1 0.3
v -0.4 0.1 0.2
v -0.4 0.1 -0.2
v -0.4 0.1 -0.3
v -0.4 0.2 0.3
v -0.4 0.2 0.2
v -0.4 0.3 0.3
v -0.4 0.3 0.2
v -0.4 0.3 -0.2
v -0.4 0.3 -0.3
v -0.3 0.5 0.4
v -0.3 0.5 0.3
v -0.3 0.6 0.4
v -0.3 0.6 0.3
v -0.2 0.6 0.4
v -0.2 0.6 0.3
v -0.2 0.8 0.4
v -0.2 0.8 0.3
v -0.2 0.9 0.3
v -0.2 0.9 0.2
v -0.2 1 0.3
v -0.2 1 0.2
v -0.0999999 0.8 0.4
v -0.0999999 0.8 0.3
v -0.0999999 0.9 0.4
v -0.0999999 0.9 0.3
v 0.1 0.6 0.4
v 0.1 0.6 0.3
v 0.1 0.8 0.4
v 0.1 0.8 0.3
v 0.2 0.5 0.4
v 0.2 0.5 0.3
v 0.2 0.6 0.4
v 0.2 0.6 0.3
v -0.2 0.5 0.4
v -0.2 0.5 0.3
v -0.2 0.6 0.4
v -0.2 0.6 0.3
v -0.0999999 0.6 0.4
v -0.0999999 0.6 0.3
v -0.0999999 0.8 0.4
v -0.0999999 0.8 0.3
v 0.1 0.8 0.4
v 0.1 0.8 0.3
v 0.1 0.9 0.4
v 0.1 0.9 0.3
v 0.2 0.6 0.4
v 0.2 0.6 0.3
v 0.2 0.8 0.4
v 0.2 0.8 0.3
v 0.2 0.9 0.3
v 0.2 0.9 0.2
v 0.2 1 0.3
v 0.2 1 0.2
v 0.3 0.5 0.4
v 0.3 0.5 0.3
v 0.3 0.6 0.4
v 0.3 0.6 0.3
v 0.4 -2.23517e-008 0.3
v 0.4 -2.23517e-008 0.2
v 0.4 -2.23517e-008 -0.2
v 0.4 -2.23517e-008 -0.3
v 0.4 0.1 0.3
v 0.4 0.1 0.2
v 0.4 0.1 -0.2
v 0.4 0.1 -0.3
v 0.4 0.3 0.3
v 0.4 0.3 0.2
v 0.4 0.3 -0.2
v 0.4 0.3 -0.3
v 0.5 -2.23517e-008 0.2
v 0.5 -2.23517e-008 -0.2
v 0.5 0.1 0.2
v 0.5 0.1 -0.2
v 0.5 0.3 0.3
v 0.5 0.3 0.2
v 0.5 0.3 -0.2
v 0.5 0.3 -0.3
v 0.5 0.9 0.3
v 0.5 0.9 0.2
v 0.5 0.9 0.1
v 0.5 0.9 -0.1
v 0.5 0.9 -0.2
v 0.5 0.9 -0.3
v 0.5 1 0.2
v 0.5 1 0.1
v 0.5 1 -0.1
v 0.5 1 -0.2
v 0.6 0.3 0.2
v 0.6 0.3 -0.2
v 0.6 0.9 0.2
v 0.6 0.9 -0.2
v -0.3 0.5 0.4
v -0.3 0.6 0.4
v -0.2 0.5 0.4
v -0.2 0.6 0.4
v -0.2 0.8 0.4
v -0.0999999 0.6 0.4
v -0.0999999 0.8 0.4
v -0.0999999 0.9 0.4
v 0.1 0.6 0.4
v 0.1 0.8 0.4
v 0.1 0.9 0.4
v 0.2 0.5 0.4
v 0.2 0.6 0.4
v 0.2 0.8 0.4
v 0.3 0.5 0.4
v 0.3 0.6 0.4
v -0.5 0.3 0.3
v -0.5 0.9 0.3
v -0.4 -2.23517e-008 0.3
v -0.4 0.1 0.3
v -0.4 0.2 0.3
v -0.4 0.3 0.3
v -0.4 0.4 0.3
v -0.3 0.2 0.3
v -0.3 0.3 0.3
v -0.3 0.4 0.3
v -0.3 0.5 0.3
v -0.3 0.6 0.3
v -0.3 0.8 0.3
v -0.3 0.9 0.3
v -0.2 0.3 0.3
v -0.2 0.4 0.3
v -0.2 0.5 0.3
v -0.2 0.6 0.3
v -0.2 0.8 0.3
v -0.2 0.9 0.3
v -0.2 1 0.3
v -0.0999999 0.4 0.3
v -0.0999999 0.5 0.3
v -0.0999999 0.6 0.3
v -0.0999999 0.8 0.3
v -0.0999999 0.9 0.3
v 5.96046e-008 0.5 0.3
v 5.96046e-008 0.6 0.3
v 0.1 0.6 0.3
v 0.1 0.8 0.3
v 0.1 0.9 0.3
v 0.2 0.5 0.3
v 0.2 0.6 0.3
v 0.2 0.8 0.3
v 0.2 0.9 0.3
v 0.2 1 0.3
v 0.3 0.5 0.3
v 0.3 0.6 0.3
v 0.3 0.8 0.3
v 0.3 0.9 0.3
v 0.4 -2.23517e-008 0.3
v 0.4 0.1 0.3
v 0.4 0.3 0.3
v 0.5 0.3 0.3
v 0.5 0.9 0.3
v -0.6 0.3 0.2
v -0.6 0.9 0.2
v -0.5 -2.23517e-008 0.2
v -0.5 0.3 0.2
v -0.5 0.9 0.2
v -0.5 1 0.2
v -0.4 -2.23517e-008 0.2
v -0.4 0.1 0.2
v -0.4 0.2 0.2
v -0.4 0.3 0.2
v -0.4 0.9 0.2
v -0.4 1 0.2
v -0.3 0.9 0.2
v -0.2 0.9 0.2
v -0.2 1 0.2
v 0.2 0.9 0.2
v 0.2 1 0.2
v 0.3 0.9 0.2
v 0.4 -2.23517e-008 0.2
v 0.4 0.1 0.2
v 0.4 0.3 0.2
v 0.4 0.9 0.2
v 0.4 1 0.2
v 0.5 -2.23517e-008 0.2
v 0.5 0.1 0.2
v 0.5 0.3 0.2
v 0.5 0.9 0.2
v 0.5 1 0.2
v 0.6 0.3 0.2
v 0.6 0.9 0.2
v -0.6 0.3 -0.2
v -0.6 0.9 -0.2
v -0.5 -2.23517e-008 -0.2
v -0.5 0.1 -0.2
v -0.5 0.3 -0.2
v -0.5 0.9 -0.2
v -0.5 1 -0.2
v -0.4 -2.23517e-008 -0.2
v -0.4 0.1 -0.2
v -0.4 0.3 -0.2
v -0.3 0.9 -0.2
v -0.3 1 -0.2
v 0.3 0.9 -0.2
v 0.3 1 -0.2
v 0.4 -2.23517e-008 -0.2
v 0.4 0.1 -0.2
v 0.4 0.3 -0.2
v 0.5 -2.23517e-008 -0.2
v 0.5 0.1 -0.2
v 0.5 0.3 -0.2
v 0.5 0.9 -0.2
v 0.5 1 -0.2
v 0.6 0.3 -0.2
v 0.6 0.9 -0.2
v -0.5 0.3 -0.3
v -0.5 0.9 -0.3
v -0.4 -2.23517e-008 -0.3
v -0.4 0.1 -0.3
v -0.4 0.3 -0.3
v 0.4 -2.23517e-008 -0.3
v 0.4 0.1 -0.3
v 0.4 0.3 -0.3
v 0.5 0.3 -0.3
v 0.5 0.9 -0.3
v -0.4 -2.23517e-008 0.3
v 0.4 -2.23517e-008 0.3
v -0.5 -2.23517e-008 0.2
v -0.4 -2.23517e-008 0.2
v 0.4 -2.23517e-008 0.2
v 0.5 -2.23517e-008 0.2
v -0.5 -2.23517e-008 -0.2
v -0.4 -2.23517e-008 -0.2
v 0.4 -2.23517e-008 -0.2
v 0.5 -2.23517e-008 -0.2
v -0.4 -2.23517e-008 -0.3
v 0.4 -2.23517e-008 -0.3
v -0.5 0.3 0.3
v -0.4 0.3 0.3
v 0.4 0.3 0.3
v 0.5 0.3 0.3
v -0.6 0.3 0.2
v -0.5 0.3 0.2
v -0.4 0.3 0.2
v 0.4 0.3 0.2
v 0.5 0.3 0.2
v 0.6 0.3 0.2
v -0.5 0.3 0.1
v -0.6 0.3 -0.2
v -0.5 0.3 -0.2
v -0.4 0.3 -0.2
v 0.4 0.3 -0.2
v 0.5 0.3 -0.2
v 0.6 0.3 -0.2
v -0.5 0.3 -0.3
v -0.4 0.3 -0.3
v 0.4 0.3 -0.3
v 0.5 0.3 -0.3
v -0.3 0.5 0.4
v -0.2 0.5 0.4
v 0.2 0.5 0.4
v 0.3 0.5 0.4
v -0.3 0.5 0.3
v -0.2 0.5 0.3
v 0.2 0.5 0.3
v 0.3 0.5 0.3
v -0.2 0.6 0.4
v -0.0999999 0.6 0.4
v 0.1 0.6 0.4
v 0.2 0.6 0.4
v -0.2 0.6 0.3
v -0.0999999 0.6 0.3
v 0.1 0.6 0.3
v 0.2 0.6 0.3
v -0.0999999 0.8 0.4
v 0.1 0.8 0.4
v -0.0999999 0.8 0.3
v 0.1 0.8 0.3
v -0.3 0.6 0.4
v -0.2 0.6 0.4
v 0.2 0.6 0.4
v 0.3 0.6 0.4
v -0.3 0.6 0.3
v -0.2 0.6 0.3
v 0.2 0.6 0.3
v 0.3 0.6 0.3
v -0.2 0.8 0.4
v -0.0999999 0.8 0.4
v 0.1 0.8 0.4
v 0.2 0.8 0.4
v -0.2 0.8 0.3
v -0.0999999 0.8 0.3
v 0.1 0.8 0.3
v 0.2 0.8 0.3
v -0.0999999 0.9 0.4
v 0.1 0.9 0.4
v -0.5 0.9 0.3
v -0.3 0.9 0.3
v -0.2 0.9 0.3
v -0.0999999 0.9 0.3
v 0.1 0.9 0.3
v 0.2 0.9 0.3
v 0.3 0.9 0.3
v 0.5 0.9 0.3
v -0.6 0.9 0.2
v -0.5 0.9 0.2
v -0.4 0.9 0.2
v -0.3 0.9 0.2
v -0.2 0.9 0.2
v 0.2 0.9 0.2
v 0.3 0.9 0.2
v 0.4 0.9 0.2
v 0.5 0.9 0.2
v 0.6 0.9 0.2
v -0.5 0.9 0.1
v 0.5 0.9 0.1
v -0.5 0.9 -0.1
v 0.5 0.9 -0.1
v -0.6 0.9 -0.2
v -0.5 0.9 -0.2
v -0.3 0.9 -0.2
v 0.3 0.9 -0.2
v 0.5 0.9 -0.2
v 0.6 0.9 -0.2
v -0.5 0.9 -0.3
v 0.5 0.9 -0.3
v -0.2 1 0.3
v 0.2 1 0.3
v -0.5 1 0.2
v -0.4 1 0.2
v -0.2 1 0.2
v 0.2 1 0.2
v 0.4 1 0.2
v 0.5 1 0.2
v -0.5 1 0.1
v -0.4 1 0.1
v -0.0999999 1 0.1
v 0.1 1 0.1
v 0.4 1 0.1
v 0.5 1 0.1
v -0.5 1 -0.1
v -0.3 1 -0.1
v -0.0999999 1 -0.1
v 0.1 1 -0.1
v 0.3 1 -0.1
v 0.5 1 -0.1
v -0.5 1 -0.2
v -0.3 1 -0.2
v 0.3 1 -0.2
v 0.5 1 -0.2

# faces
f 3/3/1 2/3/1 1/3/1
f 4/3/1 2/3/1 3/3/1
f 7/4/1 6/4/1 5/4/1
f 8/4/1 6/4/1 7/4/1
f 9/4/1 7/4/1 5/4/1
f 10/3/1 8/3/1 7/3/1
f 10/4/1 7/4/1 9/4/1
f 12/4/1 9/4/1 5/4/1
f 13/3/1 10/3/1 9/3/1
f 13/4/1 9/4/1 12/4/1
f 14/3/1 8/3/1 10/3/1
f 14/3/1 10/3/1 13/3/1
f 16/3/1 12/3/1 11/3/1
f 17/3/1 12/3/1 16/3/1
f 20/3/1 15/3/1 14/3/1
f 21/3/1 15/3/1 20/3/1
f 22/3/1 18/3/1 17/3/1
f 23/5/1 19/5/1 18/5/1
f 23/3/1 18/3/1 22/3/1
f 24/3/1 20/3/1 19/3/1
f 24/5/1 19/5/1 23/5/1
f 25/3/1 20/3/1 24/3/1
f 30/4/1 27/4/1 26/4/1
f 31/4/1 27/4/1 30/4/1
f 32/4/1 29/4/1 28/4/1
f 33/4/1 29/4/1 32/4/1
f 34/3/1 31/3/1 30/3/1
f 35/3/1 31/3/1 34/3/1
f 36/4/1 35/4/1 34/4/1
f 37/4/1 35/4/1 36/4/1
f 38/3/1 33/3/1 32/3/1
f 39/3/1 33/3/1 38/3/1
f 42/5/1 41/5/1 40/5/1
f 43/5/1 41/5/1 42/5/1
f 46/5/1 45/5/1 44/5/1
f 47/5/1 45/5/1 46/5/1
f 50/5/1 49/5/1 48/5/1
f 51/5/1 49/5/1 50/5/1
f 54/5/1 53/5/1 52/5/1
f 55/5/1 53/5/1 54/5/1
f 58/5/1 57/5/1 56/5/1
f 59/5/1 57/5/1 58/5/1
f 62/5/1 61/5/1 60/5/1
f 63/5/1 61/5/1 62/5/1
f 64/5/2 65/5/2 66/5/2
f 66/5/2 65/5/2 67/5/2
f 68/5/2 69/5/2 70/5/2
f 70/5/2 69/5/2 71/5/2
f 72/5/2 73/5/2 74/5/2
f 74/5/2 73/5/2 75/5/2
f 76/5/2 77/5/2 78/5/2
f 78/5/2 77/5/2 79/5/2
f 80/5/2 81/5/2 82/5/2
f 82/5/2 81/5/2 83/5/2
f 84/5/2 85/5/2 86/5/2
f 86/5/2 85/5/2 87/5/2
f 88/4/2 89/4/2 92/4/2
f 92/4/2 89/4/2 93/4/2
f 90/4/2 91/4/2 94/4/2
f 94/4/2 91/4/2 95/4/2
f 92/3/2 93/3/2 96/3/2
f 96/3/2 93/3/2 97/3/2
f 94/3/2 95/3/2 98/3/2
f 98/3/2 95/3/2 99/3/2
f 100/4/2 101/4/2 102/4/2
f 102/4/2 101/4/2 103/4/2
f 102/3/2 103/3/2 105/3/2
f 105/3/2 103/3/2 106/3/2
f 104/3/2 105/3/2 108/3/2
f 108/3/2 105/3/2 109/3/2
f 106/3/2 107/3/2 112/3/2
f 112/3/2 107/3/2 113/3/2
f 109/3/2 110/3/2 114/3/2
f 110/5/2 111/5/2 115/5/2
f 114/3/2 110/3/2 115/3/2
f 111/3/2 112/3/2 116/3/2
f 115/5/2 111/5/2 116/5/2
f 116/3/2 112/3/2 117/3/2
f 118/3/2 119/3/2 120/3/2
f 120/3/2 119/3/2 121/3/2
f 124/5/3 123/5/3 122/5/3
f 125/5/3 123/5/3 124/5/3
f 127/5/3 126/5/3 125/5/3
f 128/5/3 126/5/3 127/5/3
f 131/5/3 129/5/3 128/5/3
f 132/5/3 129/5/3 131/5/3
f 134/5/3 131/5/3 130/5/3
f 135/5/3 131/5/3 134/5/3
f 136/5/3 134/5/3 133/5/3
f 137/5/3 134/5/3 136/5/3
f 143/3/3 139/3/3 138/3/3
f 144/3/3 139/3/3 143/3/3
f 145/3/3 142/3/3 141/3/3
f 145/4/3 143/4/3 142/4/3
f 145/4/3 144/4/3 143/4/3
f 146/4/3 144/4/3 145/4/3
f 147/3/3 139/3/3 144/3/3
f 147/4/3 144/4/3 146/4/3
f 148/3/3 139/3/3 147/3/3
f 149/3/3 139/3/3 148/3/3
f 150/3/3 139/3/3 149/3/3
f 151/3/3 139/3/3 150/3/3
f 152/3/3 146/3/3 145/3/3
f 152/4/3 147/4/3 146/4/3
f 152/4/3 148/4/3 147/4/3
f 153/4/3 148/4/3 152/4/3
f 154/4/3 148/4/3 153/4/3
f 155/3/3 150/3/3 149/3/3
f 156/4/3 151/4/3 150/4/3
f 156/3/3 150/3/3 155/3/3
f 157/4/3 151/4/3 156/4/3
f 159/4/3 155/4/3 154/4/3
f 159/4/3 154/4/3 153/4/3
f 159/3/3 153/3/3 152/3/3
f 160/4/3 155/4/3 159/4/3
f 161/4/3 155/4/3 160/4/3
f 162/4/3 157/4/3 156/4/3
f 163/5/3 158/5/3 157/5/3
f 163/4/3 157/4/3 162/4/3
f 164/4/3 161/4/3 160/4/3
f 164/4/3 162/4/3 161/4/3
f 164/3/3 160/3/3 159/3/3
f 165/4/3 162/4/3 164/4/3
f 166/3/3 165/3/3 164/3/3
f 166/4/3 162/4/3 165/4/3
f 167/4/3 162/4/3 166/4/3
f 168/5/3 158/5/3 163/5/3
f 169/3/3 164/3/3 159/3/3
f 169/3/3 166/3/3 164/3/3
f 170/3/3 166/3/3 169/3/3
f 171/4/3 168/4/3 167/4/3
f 172/5/3 158/5/3 168/5/3
f 172/4/3 168/4/3 171/4/3
f 173/5/3 158/5/3 172/5/3
f 174/3/3 169/3/3 159/3/3
f 175/3/3 171/3/3 170/3/3
f 176/4/3 172/4/3 171/4/3
f 176/3/3 171/3/3 175/3/3
f 177/4/3 172/4/3 176/4/3
f 178/4/3 141/4/3 140/4/3
f 179/3/3 145/3/3 141/3/3
f 179/4/3 141/4/3 178/4/3
f 179/3/3 152/3/3 145/3/3
f 179/3/3 177/3/3 176/3/3
f 179/3/3 176/3/3 175/3/3
f 179/3/3 159/3/3 152/3/3
f 179/3/3 174/3/3 159/3/3
f 179/3/3 175/3/3 174/3/3
f 180/3/3 177/3/3 179/3/3
f 181/3/3 177/3/3 180/3/3
f 182/3/3 177/3/3 181/3/3
f 186/3/3 184/3/3 183/3/3
f 187/3/3 184/3/3 186/3/3
f 189/4/3 186/4/3 185/4/3
f 190/4/3 186/4/3 189/4/3
f 191/4/3 186/4/3 190/4/3
f 192/4/3 186/4/3 191/4/3
f 193/3/3 188/3/3 187/3/3
f 194/3/3 188/3/3 193/3/3
f 195/5/3 194/5/3 193/5/3
f 196/5/3 194/5/3 195/5/3
f 197/5/3 194/5/3 196/5/3
f 200/5/3 199/5/3 198/5/3
f 204/5/3 199/5/3 200/5/3
f 205/5/3 199/5/3 204/5/3
f 206/4/3 202/4/3 201/4/3
f 207/3/3 203/3/3 202/3/3
f 207/4/3 202/4/3 206/4/3
f 208/3/3 203/3/3 207/3/3
f 209/3/3 205/3/3 204/3/3
f 210/3/3 205/3/3 209/3/3
f 211/3/3 209/3/3 208/3/3
f 212/3/3 209/3/3 211/3/3
f 213/3/4 214/3/4 217/3/4
f 217/3/4 214/3/4 218/3/4
f 215/4/4 216/4/4 220/4/4
f 216/3/4 217/3/4 221/3/4
f 220/4/4 216/4/4 221/4/4
f 221/3/4 217/3/4 222/3/4
f 218/3/4 219/3/4 223/3/4
f 223/3/4 219/3/4 224/3/4
f 223/5/4 224/5/4 225/5/4
f 225/5/4 224/5/4 226/5/4
f 227/4/4 228/4/4 230/4/4
f 228/3/4 229/3/4 231/3/4
f 230/4/4 228/4/4 231/4/4
f 231/3/4 229/3/4 232/3/4
f 225/3/4 226/3/4 233/3/4
f 233/3/4 226/3/4 234/3/4
f 232/3/4 233/3/4 235/3/4
f 235/3/4 233/3/4 236/3/4
f 237/3/4 238/3/4 241/3/4
f 239/4/4 240/4/4 242/4/4
f 240/3/4 241/3/4 243/3/4
f 242/4/4 240/4/4 243/4/4
f 241/3/4 238/3/4 244/3/4
f 243/3/4 241/3/4 244/3/4
f 244/3/4 238/3/4 245/3/4
f 245/3/4 238/3/4 246/3/4
f 250/4/5 248/4/5 247/4/5
f 251/4/5 248/4/5 250/4/5
f 253/4/5 250/4/5 249/4/5
f 254/1/5 251/1/5 250/1/5
f 254/4/5 250/4/5 253/4/5
f 255/4/5 252/4/5 251/4/5
f 255/1/5 251/1/5 254/1/5
f 256/4/5 252/4/5 255/4/5
f 257/4/5 255/4/5 254/4/5
f 258/4/5 255/4/5 257/4/5
f 264/3/5 260/3/5 259/3/5
f 265/3/5 260/3/5 264/3/5
f 266/3/5 262/3/5 261/3/5
f 267/3/5 262/3/5 266/3/5
f 269/3/5 264/3/5 263/3/5
f 270/3/5 269/3/5 263/3/5
f 271/3/5 269/3/5 270/3/5
f 274/3/5 268/3/5 267/3/5
f 275/3/5 268/3/5 274/3/5
f 276/3/5 272/3/5 271/3/5
f 277/3/5 272/3/5 276/3/5
f 278/3/5 274/3/5 273/3/5
f 279/3/5 274/3/5 278/3/5
f 284/5/5 281/5/5 280/5/5
f 285/5/5 281/5/5 284/5/5
f 286/5/5 283/5/5 282/5/5
f 287/5/5 283/5/5 286/5/5
f 292/5/5 289/5/5 288/5/5
f 293/5/5 289/5/5 292/5/5
f 294/5/5 291/5/5 290/5/5
f 295/5/5 291/5/5 294/5/5
f 298/5/5 297/5/5 296/5/5
f 299/5/5 297/5/5 298/5/5
f 300/5/6 301/5/6 304/5/6
f 304/5/6 301/5/6 305/5/6
f 302/5/6 303/5/6 306/5/6
f 306/5/6 303/5/6 307/5/6
f 308/5/6 309/5/6 312/5/6
f 312/5/6 309/5/6 313/5/6
f 310/5/6 311/5/6 314/5/6
f 314/5/6 311/5/6 315/5/6
f 316/5/6 317/5/6 321/5/6
f 321/5/6 317/5/6 322/5/6
f 318/3/6 319/3/6 327/3/6
f 327/3/6 319/3/6 328/3/6
f 319/4/6 320/4/6 329/4/6
f 328/3/6 319/3/6 329/3/6
f 329/4/6 320/4/6 330/4/6
f 323/4/6 324/4/6 331/4/6
f 324/3/6 325/3/6 332/3/6
f 331/4/6 324/4/6 332/4/6
f 332/3/6 325/3/6 333/3/6
f 333/3/6 325/3/6 334/3/6
f 326/3/6 327/3/6 336/3/6
f 334/3/6 335/3/6 337/3/6
f 326/3/6 336/3/6 338/3/6
f 337/3/6 335/3/6 339/3/6
f 326/3/6 338/3/6 340/3/6
f 340/3/6 338/3/6 341/3/6
f 339/3/6 335/3/6 344/3/6
f 344/3/6 335/3/6 345/3/6
f 342/3/6 343/3/6 346/3/6
f 343/3/6 344/3/6 346/3/6
f 341/3/6 342/3/6 346/3/6
f 346/3/6 344/3/6 347/3/6
f 348/5/6 349/5/6 352/5/6
f 352/5/6 349/5/6 353/5/6
f 350/3/6 351/3/6 356/3/6
f 351/5/6 352/5/6 357/5/6
f 356/3/6 351/3/6 357/3/6
f 352/5/6 353/5/6 357/5/6
f 353/5/6 354/5/6 357/5/6
f 357/5/6 354/5/6 358/5/6
f 358/5/6 354/5/6 359/5/6
f 354/3/6 355/3/6 360/3/6
f 359/5/6 354/5/6 360/5/6
f 360/3/6 355/3/6 361/3/6
f 356/5/6 357/5/6 362/5/6
f 357/5/6 358/5/6 362/5/6
f 362/5/6 358/5/6 363/5/6
f 358/1/6 359/1/6 364/1/6
f 363/5/6 358/5/6 364/5/6
f 360/5/6 361/5/6 365/5/6
f 364/1/6 359/1/6 365/1/6
f 359/5/6 360/5/6 365/5/6
f 365/5/6 361/5/6 366/5/6
f 366/5/6 361/5/6 367/5/6
f 362/3/6 363/3/6 368/3/6
f 363/5/6 364/5/6 369/5/6
f 368/3/6 363/3/6 369/3/6
f 364/5/6 365/5/6 369/5/6
f 365/5/6 366/5/6 369/5/6
f 366/3/6 367/3/6 370/3/6
f 369/5/6 366/5/6 370/5/6
f 370/3/6 367/3/6 371/3/6
