# MagicaVoxel @ Ephtracy

# group
o 

# material
mtllib male-63.mtl
usemtl palette

# normals
vn -1 0 0
vn 1 0 0
vn 0 0 1
vn 0 0 -1
vn 0 -1 0
vn 0 1 0

# texcoords
vt 0.0292969 0.5
vt 0.537109 0.5

# verts
v -0.2 -0.2 0.5
v -0.2 -0.2 -0.0999998
v -0.2 0 0.5
v -0.2 0 -0.0999998
v -0.0999999 -0.2 0.6
v -0.0999999 -0.2 0.5
v -0.0999999 -0.2 -0.0999998
v -0.0999999 -0.2 -0.2
v -0.0999999 0 0.6
v -0.0999999 0 0.5
v -0.0999999 0 0.1
v -0.0999999 0 -0.0999998
v -0.0999999 0 -0.2
v -0.0999999 0.1 0.5
v -0.0999999 0.1 0.1
v 0.1 -0.2 0.6
v 0.1 -0.2 0.5
v 0.1 -0.2 -0.0999998
v 0.1 -0.2 -0.2
v 0.1 0 0.6
v 0.1 0 0.5
v 0.1 0 0.1
v 0.1 0 -0.0999998
v 0.1 0 -0.2
v 0.1 0.1 0.5
v 0.1 0.1 0.1
v 0.2 -0.2 0.5
v 0.2 -0.2 -0.0999998
v 0.2 0 0.5
v 0.2 0 -0.0999998
v -0.0999999 -0.2 0.6
v -0.0999999 0 0.6
v 0.1 -0.2 0.6
v 0.1 0 0.6
v -0.2 -0.2 0.5
v -0.2 0 0.5
v -0.0999999 -0.2 0.5
v -0.0999999 0 0.5
v -0.0999999 0.1 0.5
v 0.1 -0.2 0.5
v 0.1 0 0.5
v 0.1 0.1 0.5
v 0.2 -0.2 0.5
v 0.2 0 0.5
v -0.0999999 0 0.1
v -0.0999999 0.1 0.1
v 0.1 0 0.1
v 0.1 0.1 0.1
v -0.2 -0.2 -0.0999998
v -0.2 0 -0.0999998
v -0.0999999 -0.2 -0.0999998
v -0.0999999 0 -0.0999998
v 0.1 -0.2 -0.0999998
v 0.1 0 -0.0999998
v 0.2 -0.2 -0.0999998
v 0.2 0 -0.0999998
v -0.0999999 -0.2 -0.2
v -0.0999999 0 -0.2
v 0.1 -0.2 -0.2
v 0.1 0 -0.2
v -0.0999999 -0.2 0.6
v 0.1 -0.2 0.6
v -0.2 -0.2 0.5
v -0.0999999 -0.2 0.5
v 0.1 -0.2 0.5
v 0.2 -0.2 0.5
v -0.2 -0.2 -0.0999998
v -0.0999999 -0.2 -0.0999998
v 0.1 -0.2 -0.0999998
v 0.2 -0.2 -0.0999998
v -0.0999999 -0.2 -0.2
v 0.1 -0.2 -0.2
v -0.0999999 0 0.6
v 0.1 0 0.6
v -0.2 0 0.5
v -0.0999999 0 0.5
v 0.1 0 0.5
v 0.2 0 0.5
v -0.0999999 0 0.1
v 0.1 0 0.1
v -0.2 0 -0.0999998
v -0.0999999 0 -0.0999998
v 0.1 0 -0.0999998
v 0.2 0 -0.0999998
v -0.0999999 0 -0.2
v 0.1 0 -0.2
v -0.0999999 0.1 0.5
v 0.1 0.1 0.5
v -0.0999999 0.1 0.1
v 0.1 0.1 0.1

# faces
f 3/2/1 2/2/1 1/2/1
f 4/2/1 2/2/1 3/2/1
f 9/2/1 6/2/1 5/2/1
f 10/2/1 6/2/1 9/2/1
f 12/2/1 8/2/1 7/2/1
f 13/2/1 8/2/1 12/2/1
f 14/2/1 11/2/1 10/2/1
f 15/2/1 11/2/1 14/2/1
f 16/2/2 17/2/2 20/2/2
f 20/2/2 17/2/2 21/2/2
f 18/2/2 19/2/2 23/2/2
f 23/2/2 19/2/2 24/2/2
f 21/2/2 22/2/2 25/2/2
f 25/2/2 22/2/2 26/2/2
f 27/2/2 28/2/2 29/2/2
f 29/2/2 28/2/2 30/2/2
f 33/2/3 32/2/3 31/2/3
f 34/2/3 32/2/3 33/2/3
f 37/2/3 36/2/3 35/2/3
f 38/2/3 36/2/3 37/2/3
f 41/2/3 39/2/3 38/2/3
f 42/2/3 39/2/3 41/2/3
f 43/2/3 41/2/3 40/2/3
f 44/2/3 41/2/3 43/2/3
f 45/2/4 46/2/4 47/2/4
f 47/2/4 46/2/4 48/2/4
f 49/2/4 50/2/4 51/2/4
f 51/2/4 50/2/4 52/2/4
f 53/2/4 54/2/4 55/2/4
f 55/2/4 54/2/4 56/2/4
f 57/2/4 58/2/4 59/2/4
f 59/2/4 58/2/4 60/2/4
f 64/2/5 62/2/5 61/2/5
f 65/2/5 62/2/5 64/2/5
f 67/2/5 64/2/5 63/2/5
f 68/1/5 65/1/5 64/1/5
f 68/2/5 64/2/5 67/2/5
f 69/2/5 66/2/5 65/2/5
f 69/1/5 65/1/5 68/1/5
f 70/2/5 66/2/5 69/2/5
f 71/2/5 69/2/5 68/2/5
f 72/2/5 69/2/5 71/2/5
f 73/2/6 74/2/6 76/2/6
f 76/2/6 74/2/6 77/2/6
f 75/2/6 76/2/6 79/2/6
f 77/2/6 78/2/6 80/2/6
f 75/2/6 79/2/6 81/2/6
f 79/1/6 80/1/6 82/1/6
f 81/2/6 79/2/6 82/2/6
f 80/2/6 78/2/6 83/2/6
f 82/1/6 80/1/6 83/1/6
f 83/2/6 78/2/6 84/2/6
f 82/2/6 83/2/6 85/2/6
f 85/2/6 83/2/6 86/2/6
f 87/2/6 88/2/6 89/2/6
f 89/2/6 88/2/6 90/2/6
