# MagicaVoxel @ Ephtracy

# group
o 

# material
mtllib male-20.mtl
usemtl palette

# normals
vn -1 0 0
vn 1 0 0
vn 0 0 1
vn 0 0 -1
vn 0 -1 0
vn 0 1 0

# texcoords
vt 0.0292969 0.5
vt 0.208984 0.5
vt 0.974609 0.5

# verts
v -0.6 -1 0.2
v -0.6 -1 -0.2
v -0.6 -0.9 0.2
v -0.6 -0.9 -0.2
v -0.6 -0.2 0.2
v -0.6 -0.2 -0.2
v -0.5 -1 0.3
v -0.5 -1 0.2
v -0.5 -1 -0.2
v -0.5 -1 -0.3
v -0.5 -0.9 0.3
v -0.5 -0.9 0.2
v -0.5 -0.9 -0.2
v -0.5 -0.9 -0.3
v -0.5 -0.2 0.3
v -0.5 -0.2 0.2
v -0.5 -0.2 -0.2
v -0.5 -0.2 -0.3
v -0.5 -0.0999999 0.2
v -0.5 -0.0999999 -0.2
v -0.5 1.19209e-007 0.2
v -0.5 1.19209e-007 -0.2
v -0.4 -0.2 0.3
v -0.4 -0.2 0.2
v -0.4 -0.2 -0.2
v -0.4 -0.2 -0.3
v -0.4 -0.0999999 0.3
v -0.4 -0.0999999 0.2
v -0.4 -0.0999999 -0.2
v -0.4 -0.0999999 -0.3
v -0.4 1.19209e-007 0.3
v -0.4 1.19209e-007 0.2
v -0.4 1.19209e-007 -0.2
v -0.4 1.19209e-007 -0.3
v 0.1 -1 0.3
v 0.1 -1 0.2
v 0.1 -0.9 0.3
v 0.1 -0.9 0.2
v 0.5 -1 0.2
v 0.5 -1 -0.2
v 0.5 -0.9 0.2
v 0.5 -0.9 -0.2
v 0.5 -0.5 0.2
v 0.5 -0.5 -0.2
v -0.5 -1 0.2
v -0.5 -1 -0.2
v -0.5 -0.9 0.2
v -0.5 -0.9 -0.2
v -0.5 -0.5 0.2
v -0.5 -0.5 -0.2
v -0.0999999 -1 0.3
v -0.0999999 -1 0.2
v -0.0999999 -0.9 0.3
v -0.0999999 -0.9 0.2
v 0.4 -0.2 0.3
v 0.4 -0.2 0.2
v 0.4 -0.2 -0.2
v 0.4 -0.2 -0.3
v 0.4 -0.0999999 0.3
v 0.4 -0.0999999 0.2
v 0.4 -0.0999999 -0.2
v 0.4 -0.0999999 -0.3
v 0.4 1.19209e-007 0.3
v 0.4 1.19209e-007 0.2
v 0.4 1.19209e-007 -0.2
v 0.4 1.19209e-007 -0.3
v 0.5 -1 0.3
v 0.5 -1 0.2
v 0.5 -1 -0.2
v 0.5 -1 -0.3
v 0.5 -0.9 0.3
v 0.5 -0.9 0.2
v 0.5 -0.9 -0.2
v 0.5 -0.9 -0.3
v 0.5 -0.2 0.3
v 0.5 -0.2 0.2
v 0.5 -0.2 -0.2
v 0.5 -0.2 -0.3
v 0.5 -0.0999999 0.2
v 0.5 -0.0999999 -0.2
v 0.5 1.19209e-007 0.2
v 0.5 1.19209e-007 -0.2
v 0.6 -1 0.2
v 0.6 -1 -0.2
v 0.6 -0.9 0.2
v 0.6 -0.9 -0.2
v 0.6 -0.2 0.2
v 0.6 -0.2 -0.2
v -0.5 -1 0.3
v -0.5 -0.9 0.3
v -0.5 -0.2 0.3
v -0.4 -0.2 0.3
v -0.4 -0.0999999 0.3
v -0.4 1.19209e-007 0.3
v -0.3 -0.7 0.3
v -0.3 -0.0999999 0.3
v -0.2 -0.8 0.3
v -0.2 -0.7 0.3
v -0.2 -0.0999999 0.3
v -0.0999999 -1 0.3
v -0.0999999 -0.9 0.3
v -0.0999999 -0.8 0.3
v -0.0999999 -0.7 0.3
v 0.1 -1 0.3
v 0.1 -0.9 0.3
v 0.1 -0.8 0.3
v 0.1 -0.7 0.3
v 0.2 -0.8 0.3
v 0.2 -0.7 0.3
v 0.2 -0.0999999 0.3
v 0.3 -0.7 0.3
v 0.3 -0.0999999 0.3
v 0.4 -0.2 0.3
v 0.4 -0.0999999 0.3
v 0.4 1.19209e-007 0.3
v 0.5 -1 0.3
v 0.5 -0.9 0.3
v 0.5 -0.2 0.3
v -0.6 -1 0.2
v -0.6 -0.9 0.2
v -0.6 -0.2 0.2
v -0.5 -1 0.2
v -0.5 -0.9 0.2
v -0.5 -0.2 0.2
v -0.5 -0.0999999 0.2
v -0.5 1.19209e-007 0.2
v -0.4 -0.2 0.2
v -0.4 -0.0999999 0.2
v -0.4 1.19209e-007 0.2
v 0.4 -0.2 0.2
v 0.4 -0.0999999 0.2
v 0.4 1.19209e-007 0.2
v 0.5 -1 0.2
v 0.5 -0.9 0.2
v 0.5 -0.2 0.2
v 0.5 -0.0999999 0.2
v 0.5 1.19209e-007 0.2
v 0.6 -1 0.2
v 0.6 -0.9 0.2
v 0.6 -0.2 0.2
v -0.5 -1 -0.2
v -0.5 -0.9 -0.2
v -0.5 -0.5 -0.2
v -0.0999999 -0.9 -0.2
v -0.0999999 -0.5 -0.2
v 0.1 -0.9 -0.2
v 0.1 -0.5 -0.2
v 0.5 -1 -0.2
v 0.5 -0.9 -0.2
v 0.5 -0.5 -0.2
v -0.5 -1 0.2
v -0.5 -0.9 0.2
v -0.5 -0.5 0.2
v -0.3 -0.7 0.2
v -0.3 -0.5 0.2
v -0.2 -0.8 0.2
v -0.2 -0.7 0.2
v -0.2 -0.5 0.2
v -0.0999999 -1 0.2
v -0.0999999 -0.9 0.2
v -0.0999999 -0.8 0.2
v -0.0999999 -0.7 0.2
v 0.1 -1 0.2
v 0.1 -0.9 0.2
v 0.1 -0.8 0.2
v 0.1 -0.7 0.2
v 0.2 -0.8 0.2
v 0.2 -0.7 0.2
v 0.2 -0.5 0.2
v 0.3 -0.7 0.2
v 0.3 -0.5 0.2
v 0.5 -1 0.2
v 0.5 -0.9 0.2
v 0.5 -0.5 0.2
v -0.6 -1 -0.2
v -0.6 -0.9 -0.2
v -0.6 -0.2 -0.2
v -0.5 -1 -0.2
v -0.5 -0.9 -0.2
v -0.5 -0.2 -0.2
v -0.5 -0.0999999 -0.2
v -0.5 1.19209e-007 -0.2
v -0.4 -0.2 -0.2
v -0.4 -0.0999999 -0.2
v -0.4 1.19209e-007 -0.2
v 0.4 -0.2 -0.2
v 0.4 -0.0999999 -0.2
v 0.4 1.19209e-007 -0.2
v 0.5 -1 -0.2
v 0.5 -0.9 -0.2
v 0.5 -0.2 -0.2
v 0.5 -0.0999999 -0.2
v 0.5 1.19209e-007 -0.2
v 0.6 -1 -0.2
v 0.6 -0.9 -0.2
v 0.6 -0.2 -0.2
v -0.5 -1 -0.3
v -0.5 -0.9 -0.3
v -0.5 -0.2 -0.3
v -0.4 -0.2 -0.3
v -0.4 -0.0999999 -0.3
v -0.4 1.19209e-007 -0.3
v -0.0999999 -0.9 -0.3
v -0.0999999 -0.0999999 -0.3
v 0.1 -0.9 -0.3
v 0.1 -0.0999999 -0.3
v 0.4 -0.2 -0.3
v 0.4 -0.0999999 -0.3
v 0.4 1.19209e-007 -0.3
v 0.5 -1 -0.3
v 0.5 -0.9 -0.3
v 0.5 -0.2 -0.3
v -0.5 -1 0.3
v -0.0999999 -1 0.3
v 0.1 -1 0.3
v 0.5 -1 0.3
v -0.6 -1 0.2
v -0.5 -1 0.2
v -0.0999999 -1 0.2
v 0.1 -1 0.2
v 0.5 -1 0.2
v 0.6 -1 0.2
v -0.6 -1 -0.2
v -0.5 -1 -0.2
v 0.5 -1 -0.2
v 0.6 -1 -0.2
v -0.5 -1 -0.3
v 0.5 -1 -0.3
v -0.0999999 -0.9 0.3
v 0.1 -0.9 0.3
v -0.0999999 -0.9 0.2
v 0.1 -0.9 0.2
v -0.5 -0.5 0.2
v -0.3 -0.5 0.2
v -0.2 -0.5 0.2
v 0.2 -0.5 0.2
v 0.3 -0.5 0.2
v 0.5 -0.5 0.2
v -0.5 -0.5 -0.2
v -0.0999999 -0.5 -0.2
v 0.1 -0.5 -0.2
v 0.5 -0.5 -0.2
v -0.5 -0.2 0.3
v -0.4 -0.2 0.3
v 0.4 -0.2 0.3
v 0.5 -0.2 0.3
v -0.6 -0.2 0.2
v -0.5 -0.2 0.2
v -0.4 -0.2 0.2
v 0.4 -0.2 0.2
v 0.5 -0.2 0.2
v 0.6 -0.2 0.2
v -0.6 -0.2 -0.2
v -0.5 -0.2 -0.2
v -0.4 -0.2 -0.2
v 0.4 -0.2 -0.2
v 0.5 -0.2 -0.2
v 0.6 -0.2 -0.2
v -0.5 -0.2 -0.3
v -0.4 -0.2 -0.3
v 0.4 -0.2 -0.3
v 0.5 -0.2 -0.3
v -0.4 1.19209e-007 0.3
v 0.4 1.19209e-007 0.3
v -0.5 1.19209e-007 0.2
v -0.4 1.19209e-007 0.2
v 0.4 1.19209e-007 0.2
v 0.5 1.19209e-007 0.2
v -0.5 1.19209e-007 -0.2
v -0.4 1.19209e-007 -0.2
v 0.4 1.19209e-007 -0.2
v 0.5 1.19209e-007 -0.2
v -0.4 1.19209e-007 -0.3
v 0.4 1.19209e-007 -0.3

# faces
f 3/2/1 2/2/1 1/2/1
f 4/2/1 2/2/1 3/2/1
f 5/3/1 4/3/1 3/3/1
f 6/3/1 4/3/1 5/3/1
f 11/2/1 8/2/1 7/2/1
f 12/2/1 8/2/1 11/2/1
f 13/2/1 10/2/1 9/2/1
f 14/2/1 10/2/1 13/2/1
f 15/3/1 12/3/1 11/3/1
f 16/3/1 12/3/1 15/3/1
f 17/3/1 14/3/1 13/3/1
f 18/3/1 14/3/1 17/3/1
f 19/3/1 17/3/1 16/3/1
f 20/3/1 17/3/1 19/3/1
f 21/2/1 20/2/1 19/2/1
f 22/2/1 20/2/1 21/2/1
f 27/3/1 24/3/1 23/3/1
f 28/3/1 24/3/1 27/3/1
f 29/3/1 26/3/1 25/3/1
f 30/3/1 26/3/1 29/3/1
f 31/2/1 28/2/1 27/2/1
f 32/2/1 28/2/1 31/2/1
f 33/2/1 30/2/1 29/2/1
f 34/2/1 30/2/1 33/2/1
f 37/2/1 36/2/1 35/2/1
f 38/2/1 36/2/1 37/2/1
f 41/2/1 40/2/1 39/2/1
f 42/2/1 40/2/1 41/2/1
f 43/3/1 42/3/1 41/3/1
f 44/3/1 42/3/1 43/3/1
f 45/2/2 46/2/2 47/2/2
f 47/2/2 46/2/2 48/2/2
f 47/3/2 48/3/2 49/3/2
f 49/3/2 48/3/2 50/3/2
f 51/2/2 52/2/2 53/2/2
f 53/2/2 52/2/2 54/2/2
f 55/3/2 56/3/2 59/3/2
f 59/3/2 56/3/2 60/3/2
f 57/3/2 58/3/2 61/3/2
f 61/3/2 58/3/2 62/3/2
f 59/2/2 60/2/2 63/2/2
f 63/2/2 60/2/2 64/2/2
f 61/2/2 62/2/2 65/2/2
f 65/2/2 62/2/2 66/2/2
f 67/2/2 68/2/2 71/2/2
f 71/2/2 68/2/2 72/2/2
f 69/2/2 70/2/2 73/2/2
f 73/2/2 70/2/2 74/2/2
f 71/3/2 72/3/2 75/3/2
f 75/3/2 72/3/2 76/3/2
f 73/3/2 74/3/2 77/3/2
f 77/3/2 74/3/2 78/3/2
f 76/3/2 77/3/2 79/3/2
f 79/3/2 77/3/2 80/3/2
f 79/2/2 80/2/2 81/2/2
f 81/2/2 80/2/2 82/2/2
f 83/2/2 84/2/2 85/2/2
f 85/2/2 84/2/2 86/2/2
f 85/3/2 86/3/2 87/3/2
f 87/3/2 86/3/2 88/3/2
f 92/3/3 91/3/3 90/3/3
f 95/3/3 92/3/3 90/3/3
f 95/3/3 93/3/3 92/3/3
f 96/2/3 94/2/3 93/2/3
f 96/3/3 93/3/3 95/3/3
f 97/3/3 95/3/3 90/3/3
f 98/2/3 96/2/3 95/2/3
f 98/3/3 95/3/3 97/3/3
f 99/2/3 94/2/3 96/2/3
f 99/2/3 96/2/3 98/2/3
f 100/2/3 90/2/3 89/2/3
f 101/3/3 97/3/3 90/3/3
f 101/2/3 90/2/3 100/2/3
f 102/2/3 98/2/3 97/2/3
f 102/3/3 97/3/3 101/3/3
f 103/3/3 99/3/3 98/3/3
f 103/2/3 98/2/3 102/2/3
f 105/2/3 102/2/3 101/2/3
f 106/3/3 103/3/3 102/3/3
f 106/2/3 102/2/3 105/2/3
f 107/3/3 99/3/3 103/3/3
f 107/3/3 103/3/3 106/3/3
f 108/3/3 106/3/3 105/3/3
f 108/2/3 107/2/3 106/2/3
f 109/3/3 99/3/3 107/3/3
f 109/2/3 107/2/3 108/2/3
f 110/2/3 94/2/3 99/2/3
f 110/3/3 99/3/3 109/3/3
f 111/3/3 109/3/3 108/3/3
f 111/2/3 110/2/3 109/2/3
f 112/2/3 94/2/3 110/2/3
f 112/2/3 110/2/3 111/2/3
f 113/3/3 112/3/3 111/3/3
f 114/2/3 94/2/3 112/2/3
f 114/3/3 112/3/3 113/3/3
f 115/2/3 94/2/3 114/2/3
f 116/2/3 105/2/3 104/2/3
f 117/3/3 111/3/3 108/3/3
f 117/2/3 105/2/3 116/2/3
f 117/3/3 108/3/3 105/3/3
f 117/3/3 113/3/3 111/3/3
f 118/3/3 113/3/3 117/3/3
f 122/2/3 120/2/3 119/2/3
f 123/3/3 121/3/3 120/3/3
f 123/2/3 120/2/3 122/2/3
f 124/3/3 121/3/3 123/3/3
f 127/3/3 125/3/3 124/3/3
f 128/2/3 126/2/3 125/2/3
f 128/3/3 125/3/3 127/3/3
f 129/2/3 126/2/3 128/2/3
f 135/3/3 131/3/3 130/3/3
f 136/2/3 132/2/3 131/2/3
f 136/3/3 131/3/3 135/3/3
f 137/2/3 132/2/3 136/2/3
f 138/2/3 134/2/3 133/2/3
f 139/3/3 135/3/3 134/3/3
f 139/2/3 134/2/3 138/2/3
f 140/3/3 135/3/3 139/3/3
f 144/2/3 142/2/3 141/2/3
f 144/3/3 143/3/3 142/3/3
f 145/3/3 143/3/3 144/3/3
f 146/2/3 144/2/3 141/2/3
f 146/2/3 145/2/3 144/2/3
f 147/2/3 145/2/3 146/2/3
f 148/2/3 146/2/3 141/2/3
f 149/3/3 147/3/3 146/3/3
f 149/2/3 146/2/3 148/2/3
f 150/3/3 147/3/3 149/3/3
f 152/3/4 153/3/4 154/3/4
f 154/3/4 153/3/4 155/3/4
f 152/3/4 154/3/4 156/3/4
f 154/2/4 155/2/4 157/2/4
f 156/3/4 154/3/4 157/3/4
f 157/2/4 155/2/4 158/2/4
f 151/2/4 152/2/4 159/2/4
f 152/3/4 156/3/4 160/3/4
f 159/2/4 152/2/4 160/2/4
f 156/2/4 157/2/4 161/2/4
f 160/3/4 156/3/4 161/3/4
f 157/3/4 158/3/4 162/3/4
f 161/2/4 157/2/4 162/2/4
f 160/2/4 161/2/4 164/2/4
f 161/3/4 162/3/4 165/3/4
f 164/2/4 161/2/4 165/2/4
f 162/3/4 158/3/4 166/3/4
f 165/3/4 162/3/4 166/3/4
f 164/3/4 165/3/4 167/3/4
f 165/2/4 166/2/4 167/2/4
f 166/3/4 158/3/4 168/3/4
f 167/2/4 166/2/4 168/2/4
f 168/3/4 158/3/4 169/3/4
f 167/3/4 168/3/4 170/3/4
f 168/2/4 169/2/4 170/2/4
f 170/2/4 169/2/4 171/2/4
f 163/2/4 164/2/4 172/2/4
f 164/3/4 167/3/4 173/3/4
f 172/2/4 164/2/4 173/2/4
f 167/3/4 170/3/4 173/3/4
f 170/3/4 171/3/4 173/3/4
f 173/3/4 171/3/4 174/3/4
f 175/2/4 176/2/4 178/2/4
f 176/3/4 177/3/4 179/3/4
f 178/2/4 176/2/4 179/2/4
f 179/3/4 177/3/4 180/3/4
f 180/3/4 181/3/4 183/3/4
f 181/2/4 182/2/4 184/2/4
f 183/3/4 181/3/4 184/3/4
f 184/2/4 182/2/4 185/2/4
f 186/3/4 187/3/4 191/3/4
f 187/2/4 188/2/4 192/2/4
f 191/3/4 187/3/4 192/3/4
f 192/2/4 188/2/4 193/2/4
f 189/2/4 190/2/4 194/2/4
f 190/3/4 191/3/4 195/3/4
f 194/2/4 190/2/4 195/2/4
f 195/3/4 191/3/4 196/3/4
f 198/3/4 199/3/4 200/3/4
f 197/2/4 198/2/4 203/2/4
f 198/3/4 200/3/4 203/3/4
f 200/3/4 201/3/4 203/3/4
f 201/2/4 202/2/4 204/2/4
f 203/3/4 201/3/4 204/3/4
f 197/2/4 203/2/4 205/2/4
f 203/2/4 204/2/4 205/2/4
f 204/2/4 202/2/4 206/2/4
f 205/2/4 204/2/4 206/2/4
f 205/3/4 206/3/4 207/3/4
f 206/2/4 202/2/4 208/2/4
f 207/3/4 206/3/4 208/3/4
f 208/2/4 202/2/4 209/2/4
f 197/2/4 205/2/4 210/2/4
f 205/3/4 207/3/4 211/3/4
f 210/2/4 205/2/4 211/2/4
f 211/3/4 207/3/4 212/3/4
f 218/2/5 214/2/5 213/2/5
f 219/2/5 214/2/5 218/2/5
f 220/2/5 216/2/5 215/2/5
f 221/2/5 216/2/5 220/2/5
f 223/2/5 218/2/5 217/2/5
f 224/2/5 218/2/5 223/2/5
f 225/2/5 222/2/5 221/2/5
f 226/2/5 222/2/5 225/2/5
f 227/2/5 225/2/5 224/2/5
f 228/2/5 225/2/5 227/2/5
f 231/2/5 230/2/5 229/2/5
f 232/2/5 230/2/5 231/2/5
f 239/1/5 234/1/5 233/1/5
f 239/1/5 238/1/5 237/1/5
f 239/1/5 237/1/5 236/1/5
f 239/1/5 236/1/5 235/1/5
f 239/1/5 235/1/5 234/1/5
f 240/1/5 238/1/5 239/1/5
f 241/1/5 238/1/5 240/1/5
f 242/1/5 238/1/5 241/1/5
f 243/3/6 244/3/6 248/3/6
f 248/3/6 244/3/6 249/3/6
f 245/3/6 246/3/6 250/3/6
f 250/3/6 246/3/6 251/3/6
f 247/3/6 248/3/6 253/3/6
f 253/3/6 248/3/6 254/3/6
f 251/3/6 252/3/6 257/3/6
f 257/3/6 252/3/6 258/3/6
f 254/3/6 255/3/6 259/3/6
f 259/3/6 255/3/6 260/3/6
f 256/3/6 257/3/6 261/3/6
f 261/3/6 257/3/6 262/3/6
f 263/2/6 264/2/6 266/2/6
f 266/2/6 264/2/6 267/2/6
f 265/2/6 266/2/6 269/2/6
f 266/1/6 267/1/6 270/1/6
f 269/2/6 266/2/6 270/2/6
f 267/2/6 268/2/6 271/2/6
f 270/1/6 267/1/6 271/1/6
f 271/2/6 268/2/6 272/2/6
f 270/2/6 271/2/6 273/2/6
f 273/2/6 271/2/6 274/2/6
