# MagicaVoxel @ Ephtracy

# group
o 

# material
mtllib male-41.mtl
usemtl palette

# normals
vn -1 0 0
vn 1 0 0
vn 0 0 1
vn 0 0 -1
vn 0 -1 0
vn 0 1 0

# texcoords
vt 0.0292969 0.5
vt 0.208984 0.5
vt 0.974609 0.5
vt 0.994141 0.5

# verts
v -0.1 -0.0999999 0.2
v -0.1 -0.0999999 -0.2
v -0.1 5.96046e-008 0.2
v -0.1 5.96046e-008 -0.2
v -0.1 0.2 0.2
v -0.1 0.2 -0.2
v -4.47035e-008 -0.2 0.3
v -4.47035e-008 -0.2 0.2
v -4.47035e-008 -0.2 -0.2
v -4.47035e-008 -0.2 -0.3
v -4.47035e-008 -0.0999999 0.3
v -4.47035e-008 -0.0999999 0.2
v -4.47035e-008 -0.0999999 -0.2
v -4.47035e-008 -0.0999999 -0.3
v -4.47035e-008 5.96046e-008 0.2
v -4.47035e-008 5.96046e-008 -0.2
v -4.47035e-008 0.1 0.3
v -4.47035e-008 0.1 0.2
v -4.47035e-008 0.1 -0.2
v -4.47035e-008 0.1 -0.3
v 0.3 -0.2 0.3
v 0.3 -0.2 0.2
v 0.3 -0.0999999 0.3
v 0.3 -0.0999999 0.2
v 0.4 -0.2 -0.2
v 0.4 -0.2 -0.3
v 0.4 -0.0999999 0.3
v 0.4 -0.0999999 0.2
v 0.4 -0.0999999 -0.2
v 0.4 0.1 0.3
v 0.4 0.1 0.2
v 0.4 0.1 -0.2
v 0.4 0.1 -0.3
v 0.4 0.2 0.2
v 0.4 0.2 -0.2
v 0.5 -0.0999999 0.2
v 0.5 -0.0999999 -0.2
v 0.5 0.1 0.2
v 0.5 0.1 -0.2
v -4.47035e-008 -0.2 0.3
v -4.47035e-008 -0.0999999 0.3
v -4.47035e-008 0.1 0.3
v 0.3 -0.2 0.3
v 0.3 -0.0999999 0.3
v 0.3 0.1 0.3
v 0.4 -0.0999999 0.3
v 0.4 0.1 0.3
v -0.1 -0.0999999 0.2
v -0.1 5.96046e-008 0.2
v -0.1 0.2 0.2
v -4.47035e-008 -0.0999999 0.2
v -4.47035e-008 5.96046e-008 0.2
v -4.47035e-008 0.1 0.2
v 0.3 0.1 0.2
v 0.3 0.2 0.2
v 0.4 -0.0999999 0.2
v 0.4 0.1 0.2
v 0.4 0.2 0.2
v 0.5 -0.0999999 0.2
v 0.5 0.1 0.2
v -4.47035e-008 -0.2 -0.2
v -4.47035e-008 -0.0999999 -0.2
v 0.4 -0.2 -0.2
v 0.4 -0.0999999 -0.2
v -4.47035e-008 -0.2 0.2
v -4.47035e-008 -0.0999999 0.2
v 0.3 -0.2 0.2
v 0.3 -0.0999999 0.2
v -0.1 -0.0999999 -0.2
v -0.1 5.96046e-008 -0.2
v -0.1 0.2 -0.2
v -4.47035e-008 -0.0999999 -0.2
v -4.47035e-008 5.96046e-008 -0.2
v -4.47035e-008 0.1 -0.2
v 0.3 0.1 -0.2
v 0.3 0.2 -0.2
v 0.4 -0.0999999 -0.2
v 0.4 0.1 -0.2
v 0.4 0.2 -0.2
v 0.5 -0.0999999 -0.2
v 0.5 0.1 -0.2
v -4.47035e-008 -0.2 -0.3
v -4.47035e-008 -0.0999999 -0.3
v -4.47035e-008 0.1 -0.3
v 0.3 -0.0999999 -0.3
v 0.3 0.1 -0.3
v 0.4 -0.2 -0.3
v 0.4 0.1 -0.3
v -4.47035e-008 -0.2 0.3
v 0.3 -0.2 0.3
v -4.47035e-008 -0.2 0.2
v 0.3 -0.2 0.2
v -4.47035e-008 -0.2 -0.2
v 0.4 -0.2 -0.2
v -4.47035e-008 -0.2 -0.3
v 0.4 -0.2 -0.3
v 0.3 -0.0999999 0.3
v 0.4 -0.0999999 0.3
v -0.1 -0.0999999 0.2
v -4.47035e-008 -0.0999999 0.2
v 0.3 -0.0999999 0.2
v 0.4 -0.0999999 0.2
v 0.5 -0.0999999 0.2
v -0.1 -0.0999999 -0.2
v -4.47035e-008 -0.0999999 -0.2
v 0.4 -0.0999999 -0.2
v 0.5 -0.0999999 -0.2
v -4.47035e-008 0.1 0.3
v 0.3 0.1 0.3
v 0.4 0.1 0.3
v -4.47035e-008 0.1 0.2
v 0.3 0.1 0.2
v 0.4 0.1 0.2
v 0.5 0.1 0.2
v -4.47035e-008 0.1 -0.2
v 0.3 0.1 -0.2
v 0.4 0.1 -0.2
v 0.5 0.1 -0.2
v -4.47035e-008 0.1 -0.3
v 0.3 0.1 -0.3
v 0.4 0.1 -0.3
v -0.1 0.2 0.2
v 0.3 0.2 0.2
v 0.4 0.2 0.2
v -0.1 0.2 -0.2
v 0.3 0.2 -0.2
v 0.4 0.2 -0.2

# faces
f 3/2/1 2/2/1 1/2/1
f 4/2/1 2/2/1 3/2/1
f 5/3/1 4/3/1 3/3/1
f 6/3/1 4/3/1 5/3/1
f 11/2/1 8/2/1 7/2/1
f 12/2/1 8/2/1 11/2/1
f 13/2/1 10/2/1 9/2/1
f 14/2/1 10/2/1 13/2/1
f 15/3/1 12/3/1 11/3/1
f 16/3/1 14/3/1 13/3/1
f 17/3/1 15/3/1 11/3/1
f 18/3/1 15/3/1 17/3/1
f 19/3/1 14/3/1 16/3/1
f 20/3/1 14/3/1 19/3/1
f 21/2/2 22/2/2 23/2/2
f 23/2/2 22/2/2 24/2/2
f 25/2/2 26/2/2 29/2/2
f 27/2/2 28/2/2 30/2/2
f 30/2/2 28/2/2 31/2/2
f 29/2/2 26/2/2 32/2/2
f 32/2/2 26/2/2 33/2/2
f 31/2/2 32/2/2 34/2/2
f 34/2/2 32/2/2 35/2/2
f 36/4/2 37/4/2 38/4/2
f 38/4/2 37/4/2 39/4/2
f 43/2/3 41/2/3 40/2/3
f 44/3/3 42/3/3 41/3/3
f 44/2/3 41/2/3 43/2/3
f 45/3/3 42/3/3 44/3/3
f 46/2/3 45/2/3 44/2/3
f 47/2/3 45/2/3 46/2/3
f 51/2/3 49/2/3 48/2/3
f 52/3/3 50/3/3 49/3/3
f 52/2/3 49/2/3 51/2/3
f 53/3/3 50/3/3 52/3/3
f 54/3/3 50/3/3 53/3/3
f 55/3/3 50/3/3 54/3/3
f 57/2/3 55/2/3 54/2/3
f 58/2/3 55/2/3 57/2/3
f 59/4/3 57/4/3 56/4/3
f 60/4/3 57/4/3 59/4/3
f 63/2/3 62/2/3 61/2/3
f 64/2/3 62/2/3 63/2/3
f 65/2/4 66/2/4 67/2/4
f 67/2/4 66/2/4 68/2/4
f 69/2/4 70/2/4 72/2/4
f 70/3/4 71/3/4 73/3/4
f 72/2/4 70/2/4 73/2/4
f 73/3/4 71/3/4 74/3/4
f 74/3/4 71/3/4 75/3/4
f 75/3/4 71/3/4 76/3/4
f 75/2/4 76/2/4 78/2/4
f 78/2/4 76/2/4 79/2/4
f 77/4/4 78/4/4 80/4/4
f 80/4/4 78/4/4 81/4/4
f 82/2/4 83/2/4 85/2/4
f 83/3/4 84/3/4 85/3/4
f 85/3/4 84/3/4 86/3/4
f 82/2/4 85/2/4 87/2/4
f 85/2/4 86/2/4 87/2/4
f 87/2/4 86/2/4 88/2/4
f 91/2/5 90/2/5 89/2/5
f 92/2/5 90/2/5 91/2/5
f 95/2/5 94/2/5 93/2/5
f 96/2/5 94/2/5 95/2/5
f 101/2/5 98/2/5 97/2/5
f 102/2/5 98/2/5 101/2/5
f 104/2/5 100/2/5 99/2/5
f 105/1/5 101/1/5 100/1/5
f 105/2/5 100/2/5 104/2/5
f 105/1/5 102/1/5 101/1/5
f 106/4/5 103/4/5 102/4/5
f 106/1/5 102/1/5 105/1/5
f 107/4/5 103/4/5 106/4/5
f 108/3/6 109/3/6 111/3/6
f 109/2/6 110/2/6 112/2/6
f 111/3/6 109/3/6 112/3/6
f 112/2/6 110/2/6 113/2/6
f 113/4/6 114/4/6 117/4/6
f 117/4/6 114/4/6 118/4/6
f 115/3/6 116/3/6 119/3/6
f 116/2/6 117/2/6 120/2/6
f 119/3/6 116/3/6 120/3/6
f 120/2/6 117/2/6 121/2/6
f 122/3/6 123/3/6 125/3/6
f 123/2/6 124/2/6 126/2/6
f 125/3/6 123/3/6 126/3/6
f 126/2/6 124/2/6 127/2/6
