# MagicaVoxel @ Ephtracy

# group
o 

# material
mtllib male-30.mtl
usemtl palette

# normals
vn -1 0 0
vn 1 0 0
vn 0 0 1
vn 0 0 -1
vn 0 -1 0
vn 0 1 0

# texcoords
vt 0.841797 0.5
vt 0.919922 0.5

# verts
v -0.2 1.1 -0.1
v -0.2 1.1 -0.3
v -0.2 1.3 -0.1
v -0.2 1.3 -0.3
v -0.0999999 -0.1 2.23517e-008
v -0.0999999 -0.1 -0.1
v -0.0999999 -1.63913e-007 2.23517e-008
v -0.0999999 -1.63913e-007 -0.1
v -0.0999999 1.1 2.23517e-008
v -0.0999999 1.1 -0.1
v -0.0999999 1.1 -0.3
v -0.0999999 1.1 -0.4
v -0.0999999 1.3 2.23517e-008
v -0.0999999 1.3 -0.1
v -0.0999999 1.3 -0.3
v -0.0999999 1.3 -0.4
v 0.1 1.1 -0.1
v 0.1 1.1 -0.3
v 0.1 1.3 -0.1
v 0.1 1.3 -0.3
v -0.0999999 1.1 -0.1
v -0.0999999 1.1 -0.3
v -0.0999999 1.3 -0.1
v -0.0999999 1.3 -0.3
v 0.1 -0.1 2.23517e-008
v 0.1 -0.1 -0.1
v 0.1 -1.63913e-007 2.23517e-008
v 0.1 -1.63913e-007 -0.1
v 0.1 1.1 2.23517e-008
v 0.1 1.1 -0.1
v 0.1 1.1 -0.3
v 0.1 1.1 -0.4
v 0.1 1.3 2.23517e-008
v 0.1 1.3 -0.1
v 0.1 1.3 -0.3
v 0.1 1.3 -0.4
v 0.2 1.1 -0.1
v 0.2 1.1 -0.3
v 0.2 1.3 -0.1
v 0.2 1.3 -0.3
v -0.0999999 -0.1 2.23517e-008
v -0.0999999 -1.63913e-007 2.23517e-008
v -0.0999999 1.1 2.23517e-008
v -0.0999999 1.3 2.23517e-008
v 0.1 -0.1 2.23517e-008
v 0.1 -1.63913e-007 2.23517e-008
v 0.1 1.1 2.23517e-008
v 0.1 1.3 2.23517e-008
v -0.2 1.1 -0.1
v -0.2 1.3 -0.1
v -0.0999999 1.1 -0.1
v -0.0999999 1.3 -0.1
v 0.1 1.1 -0.1
v 0.1 1.3 -0.1
v 0.2 1.1 -0.1
v 0.2 1.3 -0.1
v -0.0999999 1.1 -0.3
v -0.0999999 1.3 -0.3
v 0.1 1.1 -0.3
v 0.1 1.3 -0.3
v -0.0999999 -0.1 -0.1
v -0.0999999 -1.63913e-007 -0.1
v -0.0999999 1.1 -0.1
v -0.0999999 1.3 -0.1
v 0.1 -0.1 -0.1
v 0.1 -1.63913e-007 -0.1
v 0.1 1.1 -0.1
v 0.1 1.3 -0.1
v -0.2 1.1 -0.3
v -0.2 1.3 -0.3
v -0.0999999 1.1 -0.3
v -0.0999999 1.3 -0.3
v 0.1 1.1 -0.3
v 0.1 1.3 -0.3
v 0.2 1.1 -0.3
v 0.2 1.3 -0.3
v -0.0999999 1.1 -0.4
v -0.0999999 1.3 -0.4
v 0.1 1.1 -0.4
v 0.1 1.3 -0.4
v -0.0999999 -0.1 2.23517e-008
v 0.1 -0.1 2.23517e-008
v -0.0999999 -0.1 -0.1
v 0.1 -0.1 -0.1
v -0.0999999 1.1 2.23517e-008
v 0.1 1.1 2.23517e-008
v -0.2 1.1 -0.1
v -0.0999999 1.1 -0.1
v 0.1 1.1 -0.1
v 0.2 1.1 -0.1
v -0.2 1.1 -0.3
v -0.0999999 1.1 -0.3
v 0.1 1.1 -0.3
v 0.2 1.1 -0.3
v -0.0999999 1.1 -0.4
v 0.1 1.1 -0.4
v -0.0999999 -1.63913e-007 2.23517e-008
v 0.1 -1.63913e-007 2.23517e-008
v -0.0999999 -1.63913e-007 -0.1
v 0.1 -1.63913e-007 -0.1
v -0.0999999 1.3 2.23517e-008
v 0.1 1.3 2.23517e-008
v -0.2 1.3 -0.1
v -0.0999999 1.3 -0.1
v 0.1 1.3 -0.1
v 0.2 1.3 -0.1
v -0.2 1.3 -0.3
v -0.0999999 1.3 -0.3
v 0.1 1.3 -0.3
v 0.2 1.3 -0.3
v -0.0999999 1.3 -0.4
v 0.1 1.3 -0.4

# faces
f 3/2/1 2/2/1 1/2/1
f 4/2/1 2/2/1 3/2/1
f 7/1/1 6/1/1 5/1/1
f 8/1/1 6/1/1 7/1/1
f 13/2/1 10/2/1 9/2/1
f 14/2/1 10/2/1 13/2/1
f 15/2/1 12/2/1 11/2/1
f 16/2/1 12/2/1 15/2/1
f 19/2/1 18/2/1 17/2/1
f 20/2/1 18/2/1 19/2/1
f 21/2/2 22/2/2 23/2/2
f 23/2/2 22/2/2 24/2/2
f 25/1/2 26/1/2 27/1/2
f 27/1/2 26/1/2 28/1/2
f 29/2/2 30/2/2 33/2/2
f 33/2/2 30/2/2 34/2/2
f 31/2/2 32/2/2 35/2/2
f 35/2/2 32/2/2 36/2/2
f 37/2/2 38/2/2 39/2/2
f 39/2/2 38/2/2 40/2/2
f 45/1/3 42/1/3 41/1/3
f 46/1/3 42/1/3 45/1/3
f 47/2/3 44/2/3 43/2/3
f 48/2/3 44/2/3 47/2/3
f 51/2/3 50/2/3 49/2/3
f 52/2/3 50/2/3 51/2/3
f 55/2/3 54/2/3 53/2/3
f 56/2/3 54/2/3 55/2/3
f 59/2/3 58/2/3 57/2/3
f 60/2/3 58/2/3 59/2/3
f 61/1/4 62/1/4 65/1/4
f 65/1/4 62/1/4 66/1/4
f 63/2/4 64/2/4 67/2/4
f 67/2/4 64/2/4 68/2/4
f 69/2/4 70/2/4 71/2/4
f 71/2/4 70/2/4 72/2/4
f 73/2/4 74/2/4 75/2/4
f 75/2/4 74/2/4 76/2/4
f 77/2/4 78/2/4 79/2/4
f 79/2/4 78/2/4 80/2/4
f 83/1/5 82/1/5 81/1/5
f 84/1/5 82/1/5 83/1/5
f 88/2/5 86/2/5 85/2/5
f 89/2/5 86/2/5 88/2/5
f 91/2/5 88/2/5 87/2/5
f 92/2/5 88/2/5 91/2/5
f 93/2/5 90/2/5 89/2/5
f 94/2/5 90/2/5 93/2/5
f 95/2/5 93/2/5 92/2/5
f 96/2/5 93/2/5 95/2/5
f 97/1/6 98/1/6 99/1/6
f 99/1/6 98/1/6 100/1/6
f 101/2/6 102/2/6 104/2/6
f 104/2/6 102/2/6 105/2/6
f 103/2/6 104/2/6 107/2/6
f 107/2/6 104/2/6 108/2/6
f 105/2/6 106/2/6 109/2/6
f 109/2/6 106/2/6 110/2/6
f 108/2/6 109/2/6 111/2/6
f 111/2/6 109/2/6 112/2/6
