# MagicaVoxel @ Ephtracy

# group
o 

# material
mtllib female-42.mtl
usemtl palette

# normals
vn -1 0 0
vn 1 0 0
vn 0 0 1
vn 0 0 -1
vn 0 -1 0
vn 0 1 0

# texcoords
vt 0.0292969 0.5
vt 0.341797 0.5
vt 0.509766 0.5

# verts
v -0.1 -0.0999999 0.1
v -0.1 -0.0999999 -0.1
v -0.1 0.1 0.1
v -0.1 0.1 -0.1
v -4.47035e-008 -0.2 0.1
v -4.47035e-008 -0.2 -0.1
v -4.47035e-008 -0.0999999 0.2
v -4.47035e-008 -0.0999999 0.1
v -4.47035e-008 -0.0999999 -0.1
v -4.47035e-008 -0.0999999 -0.2
v -4.47035e-008 0.1 0.2
v -4.47035e-008 0.1 0.1
v -4.47035e-008 0.1 -0.1
v -4.47035e-008 0.1 -0.2
v -4.47035e-008 0.2 0.1
v -4.47035e-008 0.2 -0.1
v 0.1 -0.2 -0.1
v 0.1 -0.2 -0.2
v 0.1 -0.0999999 -0.1
v 0.1 -0.0999999 -0.2
v 0.1 -0.0999999 -0.3
v 0.1 0.1 -0.1
v 0.1 0.1 -0.2
v 0.1 0.1 -0.3
v 0.1 0.2 -0.1
v 0.1 0.2 -0.2
v 0.2 -0.2 -0.2
v 0.2 -0.2 -0.3
v 0.2 -0.0999999 -0.2
v 0.2 -0.0999999 -0.3
v 0.2 -0.0999999 -0.4
v 0.2 0.1 -0.2
v 0.2 0.1 -0.3
v 0.2 0.1 -0.4
v 0.2 0.2 -0.2
v 0.2 0.2 -0.3
v 0.3 -0.2 -0.3
v 0.3 -0.2 -0.4
v 0.3 -0.0999999 -0.3
v 0.3 -0.0999999 -0.4
v 0.3 -0.0999999 -0.5
v 0.3 0.1 -0.3
v 0.3 0.1 -0.4
v 0.3 0.1 -0.5
v 0.3 0.2 -0.3
v 0.3 0.2 -0.4
v 0.1 -0.0999999 -0.1
v 0.1 -0.0999999 -0.2
v 0.1 0.1 -0.1
v 0.1 0.1 -0.2
v 0.2 -0.0999999 -0.2
v 0.2 -0.0999999 -0.3
v 0.2 0.1 -0.2
v 0.2 0.1 -0.3
v 0.3 -0.0999999 -0.3
v 0.3 -0.0999999 -0.4
v 0.3 0.1 -0.3
v 0.3 0.1 -0.4
v 0.6 -0.2 0.1
v 0.6 -0.2 -0.4
v 0.6 -0.0999999 0.2
v 0.6 -0.0999999 0.1
v 0.6 -0.0999999 -0.1
v 0.6 -0.0999999 -0.4
v 0.6 -0.0999999 -0.5
v 0.6 0.1 0.2
v 0.6 0.1 0.1
v 0.6 0.1 -0.1
v 0.6 0.1 -0.4
v 0.6 0.1 -0.5
v 0.6 0.2 0.1
v 0.6 0.2 -0.4
v -4.47035e-008 -0.0999999 0.2
v -4.47035e-008 0.1 0.2
v 0.5 -0.0999999 0.2
v 0.5 0.1 0.2
v 0.6 -0.0999999 0.2
v 0.6 0.1 0.2
v -0.1 -0.0999999 0.1
v -0.1 0.1 0.1
v -4.47035e-008 -0.2 0.1
v -4.47035e-008 -0.0999999 0.1
v -4.47035e-008 0.1 0.1
v -4.47035e-008 0.2 0.1
v 0.5 -0.2 0.1
v 0.5 -0.0999999 0.1
v 0.5 0.1 0.1
v 0.5 0.2 0.1
v 0.6 -0.2 0.1
v 0.6 -0.0999999 0.1
v 0.6 0.1 0.1
v 0.6 0.2 0.1
v 0.1 -0.0999999 -0.2
v 0.1 0.1 -0.2
v 0.2 -0.0999999 -0.2
v 0.2 0.1 -0.2
v 0.2 -0.0999999 -0.3
v 0.2 0.1 -0.3
v 0.3 -0.0999999 -0.3
v 0.3 0.1 -0.3
v 0.3 -0.0999999 -0.4
v 0.3 0.1 -0.4
v 0.5 -0.0999999 -0.4
v 0.5 0.1 -0.4
v 0.6 -0.0999999 -0.4
v 0.6 0.1 -0.4
v -0.1 -0.0999999 -0.1
v -0.1 0.1 -0.1
v -4.47035e-008 -0.2 -0.1
v -4.47035e-008 -0.0999999 -0.1
v -4.47035e-008 0.1 -0.1
v -4.47035e-008 0.2 -0.1
v 0.1 -0.2 -0.1
v 0.1 -0.0999999 -0.1
v 0.1 0.1 -0.1
v 0.1 0.2 -0.1
v 0.5 -0.0999999 -0.1
v 0.5 0.1 -0.1
v 0.6 -0.0999999 -0.1
v 0.6 0.1 -0.1
v -4.47035e-008 -0.0999999 -0.2
v -4.47035e-008 0.1 -0.2
v 0.1 -0.2 -0.2
v 0.1 -0.0999999 -0.2
v 0.1 0.1 -0.2
v 0.1 0.2 -0.2
v 0.2 -0.2 -0.2
v 0.2 -0.0999999 -0.2
v 0.2 0.1 -0.2
v 0.2 0.2 -0.2
v 0.1 -0.0999999 -0.3
v 0.1 0.1 -0.3
v 0.2 -0.2 -0.3
v 0.2 -0.0999999 -0.3
v 0.2 0.1 -0.3
v 0.2 0.2 -0.3
v 0.3 -0.2 -0.3
v 0.3 -0.0999999 -0.3
v 0.3 0.1 -0.3
v 0.3 0.2 -0.3
v 0.2 -0.0999999 -0.4
v 0.2 0.1 -0.4
v 0.3 -0.2 -0.4
v 0.3 -0.0999999 -0.4
v 0.3 0.1 -0.4
v 0.3 0.2 -0.4
v 0.5 -0.2 -0.4
v 0.5 -0.0999999 -0.4
v 0.5 0.1 -0.4
v 0.5 0.2 -0.4
v 0.6 -0.2 -0.4
v 0.6 -0.0999999 -0.4
v 0.6 0.1 -0.4
v 0.6 0.2 -0.4
v 0.3 -0.0999999 -0.5
v 0.3 0.1 -0.5
v 0.5 -0.0999999 -0.5
v 0.5 0.1 -0.5
v 0.6 -0.0999999 -0.5
v 0.6 0.1 -0.5
v -4.47035e-008 -0.2 0.1
v 0.5 -0.2 0.1
v 0.6 -0.2 0.1
v -4.47035e-008 -0.2 -0.1
v 0.1 -0.2 -0.1
v 0.1 -0.2 -0.2
v 0.2 -0.2 -0.2
v 0.2 -0.2 -0.3
v 0.3 -0.2 -0.3
v 0.3 -0.2 -0.4
v 0.5 -0.2 -0.4
v 0.6 -0.2 -0.4
v -4.47035e-008 -0.0999999 0.2
v 0.5 -0.0999999 0.2
v 0.6 -0.0999999 0.2
v -0.1 -0.0999999 0.1
v -4.47035e-008 -0.0999999 0.1
v 0.5 -0.0999999 0.1
v 0.6 -0.0999999 0.1
v -0.1 -0.0999999 -0.1
v -4.47035e-008 -0.0999999 -0.1
v 0.1 -0.0999999 -0.1
v -4.47035e-008 -0.0999999 -0.2
v 0.1 -0.0999999 -0.2
v 0.2 -0.0999999 -0.2
v 0.1 -0.0999999 -0.3
v 0.2 -0.0999999 -0.3
v 0.3 -0.0999999 -0.3
v 0.2 -0.0999999 -0.4
v 0.3 -0.0999999 -0.4
v 0.5 -0.0999999 -0.4
v 0.6 -0.0999999 -0.4
v 0.3 -0.0999999 -0.5
v 0.5 -0.0999999 -0.5
v 0.6 -0.0999999 -0.5
v 0.1 0.1 -0.1
v 0.5 0.1 -0.1
v 0.6 0.1 -0.1
v 0.1 0.1 -0.2
v 0.2 0.1 -0.2
v 0.2 0.1 -0.3
v 0.3 0.1 -0.3
v 0.3 0.1 -0.4
v 0.5 0.1 -0.4
v 0.6 0.1 -0.4
v 0.1 -0.0999999 -0.1
v 0.5 -0.0999999 -0.1
v 0.6 -0.0999999 -0.1
v 0.1 -0.0999999 -0.2
v 0.2 -0.0999999 -0.2
v 0.2 -0.0999999 -0.3
v 0.3 -0.0999999 -0.3
v 0.3 -0.0999999 -0.4
v 0.5 -0.0999999 -0.4
v 0.6 -0.0999999 -0.4
v -4.47035e-008 0.1 0.2
v 0.5 0.1 0.2
v 0.6 0.1 0.2
v -0.1 0.1 0.1
v -4.47035e-008 0.1 0.1
v 0.5 0.1 0.1
v 0.6 0.1 0.1
v -0.1 0.1 -0.1
v -4.47035e-008 0.1 -0.1
v 0.1 0.1 -0.1
v -4.47035e-008 0.1 -0.2
v 0.1 0.1 -0.2
v 0.2 0.1 -0.2
v 0.1 0.1 -0.3
v 0.2 0.1 -0.3
v 0.3 0.1 -0.3
v 0.2 0.1 -0.4
v 0.3 0.1 -0.4
v 0.5 0.1 -0.4
v 0.6 0.1 -0.4
v 0.3 0.1 -0.5
v 0.5 0.1 -0.5
v 0.6 0.1 -0.5
v -4.47035e-008 0.2 0.1
v 0.5 0.2 0.1
v 0.6 0.2 0.1
v -4.47035e-008 0.2 -0.1
v 0.1 0.2 -0.1
v 0.1 0.2 -0.2
v 0.2 0.2 -0.2
v 0.2 0.2 -0.3
v 0.3 0.2 -0.3
v 0.3 0.2 -0.4
v 0.5 0.2 -0.4
v 0.6 0.2 -0.4

# faces
f 3/2/1 2/2/1 1/2/1
f 4/2/1 2/2/1 3/2/1
f 8/2/1 6/2/1 5/2/1
f 9/2/1 6/2/1 8/2/1
f 11/2/1 8/2/1 7/2/1
f 12/2/1 8/2/1 11/2/1
f 13/2/1 10/2/1 9/2/1
f 14/2/1 10/2/1 13/2/1
f 15/2/1 13/2/1 12/2/1
f 16/2/1 13/2/1 15/2/1
f 19/2/1 18/2/1 17/2/1
f 20/2/1 18/2/1 19/2/1
f 23/2/1 21/2/1 20/2/1
f 24/2/1 21/2/1 23/2/1
f 25/2/1 23/2/1 22/2/1
f 26/2/1 23/2/1 25/2/1
f 29/2/1 28/2/1 27/2/1
f 30/2/1 28/2/1 29/2/1
f 33/2/1 31/2/1 30/2/1
f 34/2/1 31/2/1 33/2/1
f 35/2/1 33/2/1 32/2/1
f 36/2/1 33/2/1 35/2/1
f 39/2/1 38/2/1 37/2/1
f 40/2/1 38/2/1 39/2/1
f 43/2/1 41/2/1 40/2/1
f 44/2/1 41/2/1 43/2/1
f 45/2/1 43/2/1 42/2/1
f 46/2/1 43/2/1 45/2/1
f 47/2/2 48/2/2 49/2/2
f 49/2/2 48/2/2 50/2/2
f 51/2/2 52/2/2 53/2/2
f 53/2/2 52/2/2 54/2/2
f 55/2/2 56/2/2 57/2/2
f 57/2/2 56/2/2 58/2/2
f 59/3/2 60/3/2 62/3/2
f 62/3/2 60/3/2 63/3/2
f 63/3/2 60/3/2 64/3/2
f 61/3/2 62/3/2 66/3/2
f 62/1/2 63/1/2 67/1/2
f 66/3/2 62/3/2 67/3/2
f 67/1/2 63/1/2 68/1/2
f 64/3/2 65/3/2 69/3/2
f 69/3/2 65/3/2 70/3/2
f 67/3/2 68/3/2 71/3/2
f 68/3/2 69/3/2 71/3/2
f 71/3/2 69/3/2 72/3/2
f 75/2/3 74/2/3 73/2/3
f 76/2/3 74/2/3 75/2/3
f 77/3/3 76/3/3 75/3/3
f 78/3/3 76/3/3 77/3/3
f 82/2/3 80/2/3 79/2/3
f 83/2/3 80/2/3 82/2/3
f 85/2/3 82/2/3 81/2/3
f 86/2/3 82/2/3 85/2/3
f 87/2/3 84/2/3 83/2/3
f 88/2/3 84/2/3 87/2/3
f 89/3/3 86/3/3 85/3/3
f 90/3/3 86/3/3 89/3/3
f 91/3/3 88/3/3 87/3/3
f 92/3/3 88/3/3 91/3/3
f 95/2/3 94/2/3 93/2/3
f 96/2/3 94/2/3 95/2/3
f 99/2/3 98/2/3 97/2/3
f 100/2/3 98/2/3 99/2/3
f 103/2/3 102/2/3 101/2/3
f 104/2/3 102/2/3 103/2/3
f 105/3/3 104/3/3 103/3/3
f 106/3/3 104/3/3 105/3/3
f 107/2/4 108/2/4 110/2/4
f 110/2/4 108/2/4 111/2/4
f 109/2/4 110/2/4 113/2/4
f 113/2/4 110/2/4 114/2/4
f 111/2/4 112/2/4 115/2/4
f 115/2/4 112/2/4 116/2/4
f 114/1/4 115/1/4 117/1/4
f 117/1/4 115/1/4 118/1/4
f 117/1/4 118/1/4 119/1/4
f 119/1/4 118/1/4 120/1/4
f 121/2/4 122/2/4 124/2/4
f 124/2/4 122/2/4 125/2/4
f 123/2/4 124/2/4 127/2/4
f 127/2/4 124/2/4 128/2/4
f 125/2/4 126/2/4 129/2/4
f 129/2/4 126/2/4 130/2/4
f 131/2/4 132/2/4 134/2/4
f 134/2/4 132/2/4 135/2/4
f 133/2/4 134/2/4 137/2/4
f 137/2/4 134/2/4 138/2/4
f 135/2/4 136/2/4 139/2/4
f 139/2/4 136/2/4 140/2/4
f 141/2/4 142/2/4 144/2/4
f 144/2/4 142/2/4 145/2/4
f 143/2/4 144/2/4 147/2/4
f 147/2/4 144/2/4 148/2/4
f 145/2/4 146/2/4 149/2/4
f 149/2/4 146/2/4 150/2/4
f 147/3/4 148/3/4 151/3/4
f 151/3/4 148/3/4 152/3/4
f 149/3/4 150/3/4 153/3/4
f 153/3/4 150/3/4 154/3/4
f 155/2/4 156/2/4 157/2/4
f 157/2/4 156/2/4 158/2/4
f 157/3/4 158/3/4 159/3/4
f 159/3/4 158/3/4 160/3/4
f 164/2/5 162/2/5 161/2/5
f 165/2/5 162/2/5 164/2/5
f 166/2/5 162/2/5 165/2/5
f 167/2/5 162/2/5 166/2/5
f 168/2/5 162/2/5 167/2/5
f 169/2/5 162/2/5 168/2/5
f 170/2/5 162/2/5 169/2/5
f 171/3/5 163/3/5 162/3/5
f 171/2/5 162/2/5 170/2/5
f 172/3/5 163/3/5 171/3/5
f 177/2/5 174/2/5 173/2/5
f 178/3/5 175/3/5 174/3/5
f 178/2/5 174/2/5 177/2/5
f 179/3/5 175/3/5 178/3/5
f 180/2/5 177/2/5 176/2/5
f 181/2/5 177/2/5 180/2/5
f 183/2/5 182/2/5 181/2/5
f 184/2/5 182/2/5 183/2/5
f 186/2/5 185/2/5 184/2/5
f 187/2/5 185/2/5 186/2/5
f 189/2/5 188/2/5 187/2/5
f 190/2/5 188/2/5 189/2/5
f 193/2/5 191/2/5 190/2/5
f 194/3/5 192/3/5 191/3/5
f 194/2/5 191/2/5 193/2/5
f 195/3/5 192/3/5 194/3/5
f 199/2/5 197/2/5 196/2/5
f 200/2/5 197/2/5 199/2/5
f 201/2/5 197/2/5 200/2/5
f 202/2/5 197/2/5 201/2/5
f 203/2/5 197/2/5 202/2/5
f 204/3/5 198/3/5 197/3/5
f 204/2/5 197/2/5 203/2/5
f 205/3/5 198/3/5 204/3/5
f 206/2/6 207/2/6 209/2/6
f 209/2/6 207/2/6 210/2/6
f 210/2/6 207/2/6 211/2/6
f 211/2/6 207/2/6 212/2/6
f 212/2/6 207/2/6 213/2/6
f 207/3/6 208/3/6 214/3/6
f 213/2/6 207/2/6 214/2/6
f 214/3/6 208/3/6 215/3/6
f 216/2/6 217/2/6 220/2/6
f 217/3/6 218/3/6 221/3/6
f 220/2/6 217/2/6 221/2/6
f 221/3/6 218/3/6 222/3/6
f 219/2/6 220/2/6 223/2/6
f 223/2/6 220/2/6 224/2/6
f 224/2/6 225/2/6 226/2/6
f 226/2/6 225/2/6 227/2/6
f 227/2/6 228/2/6 229/2/6
f 229/2/6 228/2/6 230/2/6
f 230/2/6 231/2/6 232/2/6
f 232/2/6 231/2/6 233/2/6
f 233/2/6 234/2/6 236/2/6
f 234/3/6 235/3/6 237/3/6
f 236/2/6 234/2/6 237/2/6
f 237/3/6 235/3/6 238/3/6
f 239/2/6 240/2/6 242/2/6
f 242/2/6 240/2/6 243/2/6
f 243/2/6 240/2/6 244/2/6
f 244/2/6 240/2/6 245/2/6
f 245/2/6 240/2/6 246/2/6
f 246/2/6 240/2/6 247/2/6
f 247/2/6 240/2/6 248/2/6
f 240/3/6 241/3/6 249/3/6
f 248/2/6 240/2/6 249/2/6
f 249/3/6 241/3/6 250/3/6
