# MagicaVoxel @ Ephtracy

# group
o 

# material
mtllib female-52.mtl
usemtl palette

# normals
vn -1 0 0
vn 1 0 0
vn 0 0 1
vn 0 0 -1
vn 0 -1 0
vn 0 1 0

# texcoords
vt 0.0292969 0.5
vt 0.341797 0.5
vt 0.509766 0.5

# verts
v -0.6 -0.2 0.1
v -0.6 -0.2 -0.4
v -0.6 -0.1 0.2
v -0.6 -0.1 0.1
v -0.6 -0.1 -0.1
v -0.6 -0.1 -0.4
v -0.6 -0.1 -0.5
v -0.6 0.0999999 0.2
v -0.6 0.0999999 0.1
v -0.6 0.0999999 -0.1
v -0.6 0.0999999 -0.4
v -0.6 0.0999999 -0.5
v -0.6 0.2 0.1
v -0.6 0.2 -0.4
v -0.3 -0.1 -0.3
v -0.3 -0.1 -0.4
v -0.3 0.0999999 -0.3
v -0.3 0.0999999 -0.4
v -0.2 -0.1 -0.2
v -0.2 -0.1 -0.3
v -0.2 0.0999999 -0.2
v -0.2 0.0999999 -0.3
v -0.1 -0.1 -0.1
v -0.1 -0.1 -0.2
v -0.1 0.0999999 -0.1
v -0.1 0.0999999 -0.2
v -0.3 -0.2 -0.3
v -0.3 -0.2 -0.4
v -0.3 -0.1 -0.3
v -0.3 -0.1 -0.4
v -0.3 -0.1 -0.5
v -0.3 0.0999999 -0.3
v -0.3 0.0999999 -0.4
v -0.3 0.0999999 -0.5
v -0.3 0.2 -0.3
v -0.3 0.2 -0.4
v -0.2 -0.2 -0.2
v -0.2 -0.2 -0.3
v -0.2 -0.1 -0.2
v -0.2 -0.1 -0.3
v -0.2 -0.1 -0.4
v -0.2 0.0999999 -0.2
v -0.2 0.0999999 -0.3
v -0.2 0.0999999 -0.4
v -0.2 0.2 -0.2
v -0.2 0.2 -0.3
v -0.1 -0.2 -0.1
v -0.1 -0.2 -0.2
v -0.1 -0.1 -0.1
v -0.1 -0.1 -0.2
v -0.1 -0.1 -0.3
v -0.1 0.0999999 -0.1
v -0.1 0.0999999 -0.2
v -0.1 0.0999999 -0.3
v -0.1 0.2 -0.1
v -0.1 0.2 -0.2
v 0 -0.2 0.1
v 0 -0.2 -0.1
v 0 -0.1 0.2
v 0 -0.1 0.1
v 0 -0.1 -0.1
v 0 -0.1 -0.2
v 0 0.0999999 0.2
v 0 0.0999999 0.1
v 0 0.0999999 -0.1
v 0 0.0999999 -0.2
v 0 0.2 0.1
v 0 0.2 -0.1
v 0.1 -0.1 0.1
v 0.1 -0.1 -0.1
v 0.1 0.0999999 0.1
v 0.1 0.0999999 -0.1
v -0.6 -0.1 0.2
v -0.6 0.0999999 0.2
v -0.5 -0.1 0.2
v -0.5 0.0999999 0.2
v 0 -0.1 0.2
v 0 0.0999999 0.2
v -0.6 -0.2 0.1
v -0.6 -0.1 0.1
v -0.6 0.0999999 0.1
v -0.6 0.2 0.1
v -0.5 -0.2 0.1
v -0.5 -0.1 0.1
v -0.5 0.0999999 0.1
v -0.5 0.2 0.1
v 0 -0.2 0.1
v 0 -0.1 0.1
v 0 0.0999999 0.1
v 0 0.2 0.1
v 0.1 -0.1 0.1
v 0.1 0.0999999 0.1
v -0.2 -0.1 -0.2
v -0.2 0.0999999 -0.2
v -0.1 -0.1 -0.2
v -0.1 0.0999999 -0.2
v -0.3 -0.1 -0.3
v -0.3 0.0999999 -0.3
v -0.2 -0.1 -0.3
v -0.2 0.0999999 -0.3
v -0.6 -0.1 -0.4
v -0.6 0.0999999 -0.4
v -0.5 -0.1 -0.4
v -0.5 0.0999999 -0.4
v -0.3 -0.1 -0.4
v -0.3 0.0999999 -0.4
v -0.6 -0.1 -0.1
v -0.6 0.0999999 -0.1
v -0.5 -0.1 -0.1
v -0.5 0.0999999 -0.1
v -0.1 -0.2 -0.1
v -0.1 -0.1 -0.1
v -0.1 0.0999999 -0.1
v -0.1 0.2 -0.1
v 0 -0.2 -0.1
v 0 -0.1 -0.1
v 0 0.0999999 -0.1
v 0 0.2 -0.1
v 0.1 -0.1 -0.1
v 0.1 0.0999999 -0.1
v -0.2 -0.2 -0.2
v -0.2 -0.1 -0.2
v -0.2 0.0999999 -0.2
v -0.2 0.2 -0.2
v -0.1 -0.2 -0.2
v -0.1 -0.1 -0.2
v -0.1 0.0999999 -0.2
v -0.1 0.2 -0.2
v 0 -0.1 -0.2
v 0 0.0999999 -0.2
v -0.3 -0.2 -0.3
v -0.3 -0.1 -0.3
v -0.3 0.0999999 -0.3
v -0.3 0.2 -0.3
v -0.2 -0.2 -0.3
v -0.2 -0.1 -0.3
v -0.2 0.0999999 -0.3
v -0.2 0.2 -0.3
v -0.1 -0.1 -0.3
v -0.1 0.0999999 -0.3
v -0.6 -0.2 -0.4
v -0.6 -0.1 -0.4
v -0.6 0.0999999 -0.4
v -0.6 0.2 -0.4
v -0.5 -0.2 -0.4
v -0.5 -0.1 -0.4
v -0.5 0.0999999 -0.4
v -0.5 0.2 -0.4
v -0.3 -0.2 -0.4
v -0.3 -0.1 -0.4
v -0.3 0.0999999 -0.4
v -0.3 0.2 -0.4
v -0.2 -0.1 -0.4
v -0.2 0.0999999 -0.4
v -0.6 -0.1 -0.5
v -0.6 0.0999999 -0.5
v -0.5 -0.1 -0.5
v -0.5 0.0999999 -0.5
v -0.3 -0.1 -0.5
v -0.3 0.0999999 -0.5
v -0.6 -0.2 0.1
v -0.5 -0.2 0.1
v 0 -0.2 0.1
v -0.1 -0.2 -0.1
v 0 -0.2 -0.1
v -0.2 -0.2 -0.2
v -0.1 -0.2 -0.2
v -0.3 -0.2 -0.3
v -0.2 -0.2 -0.3
v -0.6 -0.2 -0.4
v -0.5 -0.2 -0.4
v -0.3 -0.2 -0.4
v -0.6 -0.1 0.2
v -0.5 -0.1 0.2
v 0 -0.1 0.2
v -0.6 -0.1 0.1
v -0.5 -0.1 0.1
v 0 -0.1 0.1
v 0.1 -0.1 0.1
v -0.1 -0.1 -0.1
v 0 -0.1 -0.1
v 0.1 -0.1 -0.1
v -0.2 -0.1 -0.2
v -0.1 -0.1 -0.2
v 0 -0.1 -0.2
v -0.3 -0.1 -0.3
v -0.2 -0.1 -0.3
v -0.1 -0.1 -0.3
v -0.6 -0.1 -0.4
v -0.5 -0.1 -0.4
v -0.3 -0.1 -0.4
v -0.2 -0.1 -0.4
v -0.6 -0.1 -0.5
v -0.5 -0.1 -0.5
v -0.3 -0.1 -0.5
v -0.6 0.0999999 -0.1
v -0.5 0.0999999 -0.1
v -0.1 0.0999999 -0.1
v -0.2 0.0999999 -0.2
v -0.1 0.0999999 -0.2
v -0.3 0.0999999 -0.3
v -0.2 0.0999999 -0.3
v -0.6 0.0999999 -0.4
v -0.5 0.0999999 -0.4
v -0.3 0.0999999 -0.4
v -0.6 -0.1 -0.1
v -0.5 -0.1 -0.1
v -0.1 -0.1 -0.1
v -0.2 -0.1 -0.2
v -0.1 -0.1 -0.2
v -0.3 -0.1 -0.3
v -0.2 -0.1 -0.3
v -0.6 -0.1 -0.4
v -0.5 -0.1 -0.4
v -0.3 -0.1 -0.4
v -0.6 0.0999999 0.2
v -0.5 0.0999999 0.2
v 0 0.0999999 0.2
v -0.6 0.0999999 0.1
v -0.5 0.0999999 0.1
v 0 0.0999999 0.1
v 0.1 0.0999999 0.1
v -0.1 0.0999999 -0.1
v 0 0.0999999 -0.1
v 0.1 0.0999999 -0.1
v -0.2 0.0999999 -0.2
v -0.1 0.0999999 -0.2
v 0 0.0999999 -0.2
v -0.3 0.0999999 -0.3
v -0.2 0.0999999 -0.3
v -0.1 0.0999999 -0.3
v -0.6 0.0999999 -0.4
v -0.5 0.0999999 -0.4
v -0.3 0.0999999 -0.4
v -0.2 0.0999999 -0.4
v -0.6 0.0999999 -0.5
v -0.5 0.0999999 -0.5
v -0.3 0.0999999 -0.5
v -0.6 0.2 0.1
v -0.5 0.2 0.1
v 0 0.2 0.1
v -0.1 0.2 -0.1
v 0 0.2 -0.1
v -0.2 0.2 -0.2
v -0.1 0.2 -0.2
v -0.3 0.2 -0.3
v -0.2 0.2 -0.3
v -0.6 0.2 -0.4
v -0.5 0.2 -0.4
v -0.3 0.2 -0.4

# faces
f 4/3/1 2/3/1 1/3/1
f 5/3/1 2/3/1 4/3/1
f 6/3/1 2/3/1 5/3/1
f 8/3/1 4/3/1 3/3/1
f 9/1/1 5/1/1 4/1/1
f 9/3/1 4/3/1 8/3/1
f 10/1/1 5/1/1 9/1/1
f 11/3/1 7/3/1 6/3/1
f 12/3/1 7/3/1 11/3/1
f 13/3/1 10/3/1 9/3/1
f 13/3/1 11/3/1 10/3/1
f 14/3/1 11/3/1 13/3/1
f 17/2/1 16/2/1 15/2/1
f 18/2/1 16/2/1 17/2/1
f 21/2/1 20/2/1 19/2/1
f 22/2/1 20/2/1 21/2/1
f 25/2/1 24/2/1 23/2/1
f 26/2/1 24/2/1 25/2/1
f 27/2/2 28/2/2 29/2/2
f 29/2/2 28/2/2 30/2/2
f 30/2/2 31/2/2 33/2/2
f 33/2/2 31/2/2 34/2/2
f 32/2/2 33/2/2 35/2/2
f 35/2/2 33/2/2 36/2/2
f 37/2/2 38/2/2 39/2/2
f 39/2/2 38/2/2 40/2/2
f 40/2/2 41/2/2 43/2/2
f 43/2/2 41/2/2 44/2/2
f 42/2/2 43/2/2 45/2/2
f 45/2/2 43/2/2 46/2/2
f 47/2/2 48/2/2 49/2/2
f 49/2/2 48/2/2 50/2/2
f 50/2/2 51/2/2 53/2/2
f 53/2/2 51/2/2 54/2/2
f 52/2/2 53/2/2 55/2/2
f 55/2/2 53/2/2 56/2/2
f 57/2/2 58/2/2 60/2/2
f 60/2/2 58/2/2 61/2/2
f 59/2/2 60/2/2 63/2/2
f 63/2/2 60/2/2 64/2/2
f 61/2/2 62/2/2 65/2/2
f 65/2/2 62/2/2 66/2/2
f 64/2/2 65/2/2 67/2/2
f 67/2/2 65/2/2 68/2/2
f 69/2/2 70/2/2 71/2/2
f 71/2/2 70/2/2 72/2/2
f 75/3/3 74/3/3 73/3/3
f 76/3/3 74/3/3 75/3/3
f 77/2/3 76/2/3 75/2/3
f 78/2/3 76/2/3 77/2/3
f 83/3/3 80/3/3 79/3/3
f 84/3/3 80/3/3 83/3/3
f 85/3/3 82/3/3 81/3/3
f 86/3/3 82/3/3 85/3/3
f 87/2/3 84/2/3 83/2/3
f 88/2/3 84/2/3 87/2/3
f 89/2/3 86/2/3 85/2/3
f 90/2/3 86/2/3 89/2/3
f 91/2/3 89/2/3 88/2/3
f 92/2/3 89/2/3 91/2/3
f 95/2/3 94/2/3 93/2/3
f 96/2/3 94/2/3 95/2/3
f 99/2/3 98/2/3 97/2/3
f 100/2/3 98/2/3 99/2/3
f 103/3/3 102/3/3 101/3/3
f 104/3/3 102/3/3 103/3/3
f 105/2/3 104/2/3 103/2/3
f 106/2/3 104/2/3 105/2/3
f 107/1/4 108/1/4 109/1/4
f 109/1/4 108/1/4 110/1/4
f 109/1/4 110/1/4 112/1/4
f 112/1/4 110/1/4 113/1/4
f 111/2/4 112/2/4 115/2/4
f 115/2/4 112/2/4 116/2/4
f 113/2/4 114/2/4 117/2/4
f 117/2/4 114/2/4 118/2/4
f 116/2/4 117/2/4 119/2/4
f 119/2/4 117/2/4 120/2/4
f 121/2/4 122/2/4 125/2/4
f 125/2/4 122/2/4 126/2/4
f 123/2/4 124/2/4 127/2/4
f 127/2/4 124/2/4 128/2/4
f 126/2/4 127/2/4 129/2/4
f 129/2/4 127/2/4 130/2/4
f 131/2/4 132/2/4 135/2/4
f 135/2/4 132/2/4 136/2/4
f 133/2/4 134/2/4 137/2/4
f 137/2/4 134/2/4 138/2/4
f 136/2/4 137/2/4 139/2/4
f 139/2/4 137/2/4 140/2/4
f 141/3/4 142/3/4 145/3/4
f 145/3/4 142/3/4 146/3/4
f 143/3/4 144/3/4 147/3/4
f 147/3/4 144/3/4 148/3/4
f 145/2/4 146/2/4 149/2/4
f 149/2/4 146/2/4 150/2/4
f 147/2/4 148/2/4 151/2/4
f 151/2/4 148/2/4 152/2/4
f 150/2/4 151/2/4 153/2/4
f 153/2/4 151/2/4 154/2/4
f 155/3/4 156/3/4 157/3/4
f 157/3/4 156/3/4 158/3/4
f 157/2/4 158/2/4 159/2/4
f 159/2/4 158/2/4 160/2/4
f 164/2/5 163/2/5 162/2/5
f 165/2/5 163/2/5 164/2/5
f 166/2/5 164/2/5 162/2/5
f 167/2/5 164/2/5 166/2/5
f 168/2/5 166/2/5 162/2/5
f 169/2/5 166/2/5 168/2/5
f 170/3/5 162/3/5 161/3/5
f 171/2/5 168/2/5 162/2/5
f 171/3/5 162/3/5 170/3/5
f 172/2/5 168/2/5 171/2/5
f 176/3/5 174/3/5 173/3/5
f 177/2/5 175/2/5 174/2/5
f 177/3/5 174/3/5 176/3/5
f 178/2/5 175/2/5 177/2/5
f 181/2/5 179/2/5 178/2/5
f 182/2/5 179/2/5 181/2/5
f 184/2/5 181/2/5 180/2/5
f 185/2/5 181/2/5 184/2/5
f 187/2/5 184/2/5 183/2/5
f 188/2/5 184/2/5 187/2/5
f 191/2/5 187/2/5 186/2/5
f 192/2/5 187/2/5 191/2/5
f 193/3/5 190/3/5 189/3/5
f 194/2/5 191/2/5 190/2/5
f 194/3/5 190/3/5 193/3/5
f 195/2/5 191/2/5 194/2/5
f 199/2/5 198/2/5 197/2/5
f 200/2/5 198/2/5 199/2/5
f 201/2/5 199/2/5 197/2/5
f 202/2/5 199/2/5 201/2/5
f 203/3/5 197/3/5 196/3/5
f 204/2/5 201/2/5 197/2/5
f 204/3/5 197/3/5 203/3/5
f 205/2/5 201/2/5 204/2/5
f 207/2/6 208/2/6 209/2/6
f 209/2/6 208/2/6 210/2/6
f 207/2/6 209/2/6 211/2/6
f 211/2/6 209/2/6 212/2/6
f 206/3/6 207/3/6 213/3/6
f 207/2/6 211/2/6 214/2/6
f 213/3/6 207/3/6 214/3/6
f 214/2/6 211/2/6 215/2/6
f 216/3/6 217/3/6 219/3/6
f 217/2/6 218/2/6 220/2/6
f 219/3/6 217/3/6 220/3/6
f 220/2/6 218/2/6 221/2/6
f 221/2/6 222/2/6 224/2/6
f 224/2/6 222/2/6 225/2/6
f 223/2/6 224/2/6 227/2/6
f 227/2/6 224/2/6 228/2/6
f 226/2/6 227/2/6 230/2/6
f 230/2/6 227/2/6 231/2/6
f 229/2/6 230/2/6 234/2/6
f 234/2/6 230/2/6 235/2/6
f 232/3/6 233/3/6 236/3/6
f 233/2/6 234/2/6 237/2/6
f 236/3/6 233/3/6 237/3/6
f 237/2/6 234/2/6 238/2/6
f 240/2/6 241/2/6 242/2/6
f 242/2/6 241/2/6 243/2/6
f 240/2/6 242/2/6 244/2/6
f 244/2/6 242/2/6 245/2/6
f 240/2/6 244/2/6 246/2/6
f 246/2/6 244/2/6 247/2/6
f 239/3/6 240/3/6 248/3/6
f 240/2/6 246/2/6 249/2/6
f 248/3/6 240/3/6 249/3/6
f 249/2/6 246/2/6 250/2/6
