# MagicaVoxel @ Ephtracy

# group
o 

# material
mtllib female-30.mtl
usemtl palette

# normals
vn -1 0 0
vn 1 0 0
vn 0 0 1
vn 0 0 -1
vn 0 -1 0
vn 0 1 0

# texcoords
vt 0.0292969 0.5
vt 0.0839844 0.5
vt 0.966797 0.5
vt 0.990234 0.5
vt 0.994141 0.5

# verts
v -0.7 0.4 -0.1
v -0.7 0.4 -0.2
v -0.7 0.6 -0.2
v -0.7 0.6 -0.3
v -0.7 1.3 -0.1
v -0.7 1.3 -0.3
v -0.6 1.3 -0.1
v -0.6 1.3 -0.3
v -0.6 1.4 -0.1
v -0.6 1.4 -0.3
v -0.5 0.5 0
v -0.5 0.5 -0.1
v -0.5 0.8 0
v -0.5 0.8 -0.1
v -0.5 1.3 0
v -0.5 1.3 -0.1
v -0.5 1.3 -0.3
v -0.5 1.3 -0.4
v -0.5 1.4 0
v -0.5 1.4 -0.1
v -0.5 1.4 -0.3
v -0.5 1.4 -0.4
v -0.5 1.5 -0.1
v -0.5 1.5 -0.3
v -0.4 0.3 -0.3
v -0.4 0.3 -0.4
v -0.4 0.4 0
v -0.4 0.4 -0.1
v -0.4 0.4 -0.2
v -0.4 0.4 -0.3
v -0.4 0.4 -0.4
v -0.4 0.4 -0.5
v -0.4 0.5 0
v -0.4 0.5 -0.1
v -0.4 0.5 -0.2
v -0.4 0.6 0.1
v -0.4 0.6 0
v -0.4 0.7 0.3
v -0.4 0.7 0.1
v -0.4 0.8 0.4
v -0.4 0.8 0.3
v -0.4 0.8 0
v -0.4 0.8 -0.1
v -0.4 0.9 0.4
v -0.4 0.9 0.3
v -0.4 0.9 -0.4
v -0.4 0.9 -0.5
v -0.4 1 0.3
v -0.4 1 0
v -0.4 1 -0.3
v -0.4 1 -0.4
v -0.4 1.1 0
v -0.4 1.1 -0.1
v -0.4 1.2 -0.1
v -0.4 1.2 -0.3
v -0.3 0.2 0.4
v -0.3 0.2 0
v -0.3 0.3 0
v -0.3 0.3 -0.3
v -0.3 0.3 -0.4
v -0.3 0.3 -0.5
v -0.3 0.4 0
v -0.3 0.4 -0.1
v -0.3 0.4 -0.2
v -0.3 0.4 -0.3
v -0.3 0.4 -0.4
v -0.3 0.4 -0.5
v -0.3 0.4 -0.6
v -0.3 0.5 -0.1
v -0.3 0.5 -0.2
v -0.3 0.6 0.4
v -0.3 0.6 0.3
v -0.3 0.6 0.1
v -0.3 0.6 0
v -0.3 0.7 0.4
v -0.3 0.7 0.3
v -0.3 0.7 0.1
v -0.3 0.8 0.4
v -0.3 0.8 0.3
v -0.3 0.9 0.4
v -0.3 0.9 0.3
v -0.3 0.9 -0.4
v -0.3 0.9 -0.5
v -0.3 0.9 -0.6
v -0.3 1 0.4
v -0.3 1 0.3
v -0.3 1 0
v -0.3 1 -0.3
v -0.3 1 -0.4
v -0.3 1 -0.5
v -0.3 1.1 0.3
v -0.3 1.1 0
v -0.3 1.1 -0.3
v -0.3 1.1 -0.4
v -0.2 0.1 0.4
v -0.2 0.1 -0.2
v -0.2 0.2 0.4
v -0.2 0.2 0
v -0.2 0.2 -0.2
v -0.2 0.2 -0.3
v -0.2 0.3 0
v -0.2 0.3 -0.3
v -0.2 0.6 0.4
v -0.2 0.6 0.3
v -0.2 0.7 0.4
v -0.2 0.7 0.3
v -0.1 -2.23517e-008 0.1
v -0.1 -2.23517e-008 -0.1
v -0.1 0.1 0.1
v -0.1 0.1 -0.1
v -0.1 0.4 0.5
v -0.1 0.4 0.4
v -0.1 0.5 0.5
v -0.1 0.5 0.4
v -0.6 0.4 -0.1
v -0.6 0.4 -0.2
v -0.6 0.6 -0.2
v -0.6 0.6 -0.3
v -0.6 0.8 -0.1
v -0.6 0.8 -0.3
v -0.5 0.8 -0.1
v -0.5 0.8 -0.3
v -0.5 1.2 -0.1
v -0.5 1.2 -0.3
v -0.3 1.3 0
v -0.3 1.3 -0.1
v -0.3 1.3 -0.3
v -0.3 1.3 -0.4
v -0.3 1.4 0
v -0.3 1.4 -0.1
v -0.3 1.4 -0.3
v -0.3 1.4 -0.4
v -0.3 1.5 -0.1
v -0.3 1.5 -0.3
v -0.2 1.1 -0.1
v -0.2 1.1 -0.3
v -0.2 1.3 -0.1
v -0.2 1.3 -0.3
v 0.1 -2.23517e-008 0.1
v 0.1 -2.23517e-008 -0.1
v 0.1 0.1 0.1
v 0.1 0.1 -0.1
v 0.1 0.4 0.5
v 0.1 0.4 0.4
v 0.1 0.5 0.5
v 0.1 0.5 0.4
v 0.2 0.1 0.4
v 0.2 0.1 -0.2
v 0.2 0.2 0.4
v 0.2 0.2 0
v 0.2 0.2 -0.2
v 0.2 0.2 -0.3
v 0.2 0.3 0
v 0.2 0.3 -0.3
v 0.2 0.6 0.4
v 0.2 0.6 0.3
v 0.2 0.7 0.4
v 0.2 0.7 0.3
v 0.3 0.2 0.4
v 0.3 0.2 0
v 0.3 0.3 0
v 0.3 0.3 -0.3
v 0.3 0.3 -0.4
v 0.3 0.3 -0.5
v 0.3 0.4 0
v 0.3 0.4 -0.1
v 0.3 0.4 -0.2
v 0.3 0.4 -0.3
v 0.3 0.4 -0.4
v 0.3 0.4 -0.5
v 0.3 0.4 -0.6
v 0.3 0.5 -0.1
v 0.3 0.5 -0.2
v 0.3 0.6 0.4
v 0.3 0.6 0.3
v 0.3 0.6 0.1
v 0.3 0.6 0
v 0.3 0.7 0.4
v 0.3 0.7 0.3
v 0.3 0.7 0.1
v 0.3 0.8 0.4
v 0.3 0.8 0.3
v 0.3 0.9 0.4
v 0.3 0.9 0.3
v 0.3 0.9 -0.4
v 0.3 0.9 -0.5
v 0.3 0.9 -0.6
v 0.3 1 0.4
v 0.3 1 0.3
v 0.3 1 -0.4
v 0.3 1 -0.5
v 0.3 1.1 0.3
v 0.3 1.1 -0.4
v 0.4 0.3 -0.3
v 0.4 0.3 -0.4
v 0.4 0.4 0
v 0.4 0.4 -0.1
v 0.4 0.4 -0.2
v 0.4 0.4 -0.3
v 0.4 0.4 -0.4
v 0.4 0.4 -0.5
v 0.4 0.5 0
v 0.4 0.5 -0.1
v 0.4 0.5 -0.2
v 0.4 0.6 0.1
v 0.4 0.6 0
v 0.4 0.7 0.3
v 0.4 0.7 0.1
v 0.4 0.8 0.4
v 0.4 0.8 0.3
v 0.4 0.8 0
v 0.4 0.8 -0.1
v 0.4 0.9 0.4
v 0.4 0.9 0.3
v 0.4 0.9 -0.4
v 0.4 0.9 -0.5
v 0.4 1 0.3
v 0.4 1 -0.4
v 0.5 0.5 0
v 0.5 0.5 -0.1
v 0.5 0.8 0
v 0.5 0.8 -0.1
v -0.1 0.4 0.5
v -0.1 0.5 0.5
v 0.1 0.4 0.5
v 0.1 0.5 0.5
v -0.4 0.8 0.4
v -0.4 0.9 0.4
v -0.3 0.2 0.4
v -0.3 0.6 0.4
v -0.3 0.7 0.4
v -0.3 0.8 0.4
v -0.3 0.9 0.4
v -0.3 1 0.4
v -0.2 0.1 0.4
v -0.2 0.2 0.4
v -0.2 0.5 0.4
v -0.2 0.6 0.4
v -0.2 0.7 0.4
v -0.1 0.2 0.4
v -0.1 0.3 0.4
v -0.1 0.4 0.4
v -0.1 0.5 0.4
v -0.1 0.6 0.4
v -0.1 0.7 0.4
v 0.1 0.2 0.4
v 0.1 0.3 0.4
v 0.1 0.4 0.4
v 0.1 0.5 0.4
v 0.1 0.6 0.4
v 0.1 0.7 0.4
v 0.2 0.1 0.4
v 0.2 0.2 0.4
v 0.2 0.5 0.4
v 0.2 0.6 0.4
v 0.2 0.7 0.4
v 0.3 0.2 0.4
v 0.3 0.6 0.4
v 0.3 0.7 0.4
v 0.3 0.8 0.4
v 0.3 0.9 0.4
v 0.3 1 0.4
v 0.4 0.8 0.4
v 0.4 0.9 0.4
v -0.4 0.7 0.3
v -0.4 0.8 0.3
v -0.4 0.9 0.3
v -0.4 1 0.3
v -0.3 0.6 0.3
v -0.3 0.7 0.3
v -0.3 0.8 0.3
v -0.3 0.9 0.3
v -0.3 1 0.3
v -0.3 1.1 0.3
v -0.2 0.6 0.3
v -0.2 0.7 0.3
v 0.2 0.6 0.3
v 0.2 0.7 0.3
v 0.3 0.6 0.3
v 0.3 0.7 0.3
v 0.3 0.8 0.3
v 0.3 0.9 0.3
v 0.3 1 0.3
v 0.3 1.1 0.3
v 0.4 0.7 0.3
v 0.4 0.8 0.3
v 0.4 0.9 0.3
v 0.4 1 0.3
v -0.4 0.6 0.1
v -0.4 0.7 0.1
v -0.3 0.6 0.1
v -0.3 0.7 0.1
v -0.1 -2.23517e-008 0.1
v -0.1 0.1 0.1
v 0.1 -2.23517e-008 0.1
v 0.1 0.1 0.1
v 0.3 0.6 0.1
v 0.3 0.7 0.1
v 0.4 0.6 0.1
v 0.4 0.7 0.1
v -0.5 0.5 0
v -0.5 0.8 0
v -0.5 1.3 0
v -0.5 1.4 0
v -0.4 0.4 0
v -0.4 0.5 0
v -0.4 0.6 0
v -0.4 0.8 0
v -0.4 1 0
v -0.4 1.1 0
v -0.3 0.4 0
v -0.3 0.6 0
v -0.3 1 0
v -0.3 1.1 0
v -0.3 1.3 0
v -0.3 1.4 0
v 0.3 0.4 0
v 0.3 0.6 0
v 0.4 0.4 0
v 0.4 0.5 0
v 0.4 0.6 0
v 0.4 0.8 0
v 0.5 0.5 0
v 0.5 0.8 0
v -0.7 0.4 -0.1
v -0.7 1.3 -0.1
v -0.6 0.4 -0.1
v -0.6 0.8 -0.1
v -0.6 1.3 -0.1
v -0.6 1.4 -0.1
v -0.5 0.8 -0.1
v -0.5 1.2 -0.1
v -0.5 1.3 -0.1
v -0.5 1.4 -0.1
v -0.5 1.5 -0.1
v -0.4 1.1 -0.1
v -0.4 1.2 -0.1
v -0.3 1.3 -0.1
v -0.3 1.4 -0.1
v -0.3 1.5 -0.1
v -0.2 1.1 -0.1
v -0.2 1.3 -0.1
v -0.4 0.4 -0.2
v -0.4 0.5 -0.2
v -0.3 0.4 -0.2
v -0.3 0.5 -0.2
v 0.3 0.4 -0.2
v 0.3 0.5 -0.2
v 0.4 0.4 -0.2
v 0.4 0.5 -0.2
v -0.4 0.3 -0.3
v -0.4 0.4 -0.3
v -0.3 0.3 -0.3
v -0.3 0.4 -0.3
v 0.3 0.3 -0.3
v 0.3 0.4 -0.3
v 0.4 0.3 -0.3
v 0.4 0.4 -0.3
v -0.3 0.2 0
v -0.3 0.3 0
v -0.2 0.2 0
v -0.2 0.3 0
v 0.2 0.2 0
v 0.2 0.3 0
v 0.3 0.2 0
v 0.3 0.3 0
v -0.5 0.5 -0.1
v -0.5 0.8 -0.1
v -0.4 0.4 -0.1
v -0.4 0.5 -0.1
v -0.4 0.8 -0.1
v -0.3 0.4 -0.1
v -0.3 0.5 -0.1
v -0.1 -2.23517e-008 -0.1
v -0.1 0.1 -0.1
v 0.1 -2.23517e-008 -0.1
v 0.1 0.1 -0.1
v 0.3 0.4 -0.1
v 0.3 0.5 -0.1
v 0.4 0.4 -0.1
v 0.4 0.5 -0.1
v 0.4 0.8 -0.1
v 0.5 0.5 -0.1
v 0.5 0.8 -0.1
v -0.7 0.4 -0.2
v -0.7 0.6 -0.2
v -0.6 0.4 -0.2
v -0.6 0.6 -0.2
v -0.2 0.1 -0.2
v -0.2 0.2 -0.2
v 0.2 0.1 -0.2
v 0.2 0.2 -0.2
v -0.7 0.6 -0.3
v -0.7 1.3 -0.3
v -0.6 0.6 -0.3
v -0.6 0.8 -0.3
v -0.6 1.3 -0.3
v -0.6 1.4 -0.3
v -0.5 0.8 -0.3
v -0.5 1.2 -0.3
v -0.5 1.3 -0.3
v -0.5 1.4 -0.3
v -0.5 1.5 -0.3
v -0.4 1 -0.3
v -0.4 1.2 -0.3
v -0.3 1 -0.3
v -0.3 1.1 -0.3
v -0.3 1.3 -0.3
v -0.3 1.4 -0.3
v -0.3 1.5 -0.3
v -0.2 0.2 -0.3
v -0.2 0.3 -0.3
v -0.2 1.1 -0.3
v -0.2 1.3 -0.3
v 0.2 0.2 -0.3
v 0.2 0.3 -0.3
v -0.5 1.3 -0.4
v -0.5 1.4 -0.4
v -0.4 0.3 -0.4
v -0.4 0.4 -0.4
v -0.4 0.9 -0.4
v -0.4 1 -0.4
v -0.3 0.3 -0.4
v -0.3 0.4 -0.4
v -0.3 0.9 -0.4
v -0.3 1 -0.4
v -0.3 1.1 -0.4
v -0.3 1.3 -0.4
v -0.3 1.4 -0.4
v 0.3 0.3 -0.4
v 0.3 0.4 -0.4
v 0.3 0.9 -0.4
v 0.3 1 -0.4
v 0.3 1.1 -0.4
v 0.4 0.3 -0.4
v 0.4 0.4 -0.4
v 0.4 0.9 -0.4
v 0.4 1 -0.4
v -0.4 0.4 -0.5
v -0.4 0.9 -0.5
v -0.3 0.3 -0.5
v -0.3 0.4 -0.5
v -0.3 0.9 -0.5
v -0.3 1 -0.5
v 0.3 0.3 -0.5
v 0.3 0.4 -0.5
v 0.3 0.9 -0.5
v 0.3 1 -0.5
v 0.4 0.4 -0.5
v 0.4 0.9 -0.5
v -0.3 0.4 -0.6
v -0.3 0.9 -0.6
v 0.3 0.4 -0.6
v 0.3 0.9 -0.6
v -0.1 -2.23517e-008 0.1
v 0.1 -2.23517e-008 0.1
v -0.1 -2.23517e-008 -0.1
v 0.1 -2.23517e-008 -0.1
v -0.2 0.1 0.4
v 0.2 0.1 0.4
v -0.1 0.1 0.1
v 0.1 0.1 0.1
v -0.1 0.1 -0.1
v 0.1 0.1 -0.1
v -0.2 0.1 -0.2
v 0.2 0.1 -0.2
v -0.3 0.2 0.4
v -0.2 0.2 0.4
v 0.2 0.2 0.4
v 0.3 0.2 0.4
v -0.3 0.2 0
v -0.2 0.2 0
v 0.2 0.2 0
v 0.3 0.2 0
v -0.2 0.2 -0.2
v 0.2 0.2 -0.2
v -0.2 0.2 -0.3
v 0.2 0.2 -0.3
v -0.3 0.3 0
v -0.2 0.3 0
v 0.2 0.3 0
v 0.3 0.3 0
v -0.4 0.3 -0.3
v -0.3 0.3 -0.3
v -0.2 0.3 -0.3
v 0.2 0.3 -0.3
v 0.3 0.3 -0.3
v 0.4 0.3 -0.3
v -0.4 0.3 -0.4
v -0.3 0.3 -0.4
v 0.3 0.3 -0.4
v 0.4 0.3 -0.4
v -0.3 0.3 -0.5
v 0.3 0.3 -0.5
v -0.1 0.4 0.5
v 0.1 0.4 0.5
v -0.1 0.4 0.4
v 0.1 0.4 0.4
v -0.4 0.4 0
v -0.3 0.4 0
v 0.3 0.4 0
v 0.4 0.4 0
v -0.7 0.4 -0.1
v -0.6 0.4 -0.1
v -0.4 0.4 -0.1
v -0.3 0.4 -0.1
v 0.3 0.4 -0.1
v 0.4 0.4 -0.1
v -0.7 0.4 -0.2
v -0.6 0.4 -0.2
v -0.4 0.4 -0.2
v -0.3 0.4 -0.2
v 0.3 0.4 -0.2
v 0.4 0.4 -0.2
v -0.4 0.4 -0.3
v -0.3 0.4 -0.3
v 0.3 0.4 -0.3
v 0.4 0.4 -0.3
v -0.4 0.4 -0.4
v -0.3 0.4 -0.4
v 0.3 0.4 -0.4
v 0.4 0.4 -0.4
v -0.4 0.4 -0.5
v -0.3 0.4 -0.5
v 0.3 0.4 -0.5
v 0.4 0.4 -0.5
v -0.3 0.4 -0.6
v 0.3 0.4 -0.6
v -0.5 0.5 0
v -0.4 0.5 0
v 0.4 0.5 0
v 0.5 0.5 0
v -0.5 0.5 -0.1
v -0.4 0.5 -0.1
v -0.3 0.5 -0.1
v 0.3 0.5 -0.1
v 0.4 0.5 -0.1
v 0.5 0.5 -0.1
v -0.4 0.5 -0.2
v -0.3 0.5 -0.2
v 0.3 0.5 -0.2
v 0.4 0.5 -0.2
v -0.4 0.6 0.1
v -0.3 0.6 0.1
v 0.3 0.6 0.1
v 0.4 0.6 0.1
v -0.4 0.6 0
v -0.3 0.6 0
v 0.3 0.6 0
v 0.4 0.6 0
v -0.7 0.6 -0.2
v -0.6 0.6 -0.2
v -0.7 0.6 -0.3
v -0.6 0.6 -0.3
v -0.3 0.7 0.4
v -0.2 0.7 0.4
v 0.2 0.7 0.4
v 0.3 0.7 0.4
v -0.4 0.7 0.3
v -0.3 0.7 0.3
v -0.2 0.7 0.3
v 0.2 0.7 0.3
v 0.3 0.7 0.3
v 0.4 0.7 0.3
v -0.4 0.7 0.1
v -0.3 0.7 0.1
v 0.3 0.7 0.1
v 0.4 0.7 0.1
v -0.4 0.8 0.4
v -0.3 0.8 0.4
v 0.3 0.8 0.4
v 0.4 0.8 0.4
v -0.4 0.8 0.3
v -0.3 0.8 0.3
v 0.3 0.8 0.3
v 0.4 0.8 0.3
v -0.6 0.8 -0.1
v -0.5 0.8 -0.1
v -0.6 0.8 -0.3
v -0.5 0.8 -0.3
v -0.5 1.2 -0.1
v -0.4 1.2 -0.1
v -0.5 1.2 -0.3
v -0.4 1.2 -0.3
v -0.5 1.3 0
v -0.3 1.3 0
v -0.5 1.3 -0.1
v -0.3 1.3 -0.1
v -0.5 1.3 -0.3
v -0.3 1.3 -0.3
v -0.5 1.3 -0.4
v -0.3 1.3 -0.4
v -0.1 0.5 0.5
v 0.1 0.5 0.5
v -0.1 0.5 0.4
v 0.1 0.5 0.4
v -0.3 0.6 0.4
v -0.2 0.6 0.4
v 0.2 0.6 0.4
v 0.3 0.6 0.4
v -0.3 0.6 0.3
v -0.2 0.6 0.3
v 0.2 0.6 0.3
v 0.3 0.6 0.3
v -0.5 0.8 0
v -0.4 0.8 0
v 0.4 0.8 0
v 0.5 0.8 0
v -0.5 0.8 -0.1
v -0.4 0.8 -0.1
v 0.4 0.8 -0.1
v 0.5 0.8 -0.1
v -0.4 0.9 0.4
v -0.3 0.9 0.4
v 0.3 0.9 0.4
v 0.4 0.9 0.4
v -0.4 0.9 0.3
v -0.3 0.9 0.3
v 0.3 0.9 0.3
v 0.4 0.9 0.3
v -0.4 0.9 -0.4
v -0.3 0.9 -0.4
v 0.3 0.9 -0.4
v 0.4 0.9 -0.4
v -0.4 0.9 -0.5
v -0.3 0.9 -0.5
v 0.3 0.9 -0.5
v 0.4 0.9 -0.5
v -0.3 0.9 -0.6
v 0.3 0.9 -0.6
v -0.3 1 0.4
v 0.3 1 0.4
v -0.4 1 0.3
v -0.3 1 0.3
v 0.3 1 0.3
v 0.4 1 0.3
v -0.4 1 0
v -0.3 1 0
v -0.4 1 -0.3
v -0.3 1 -0.3
v -0.4 1 -0.4
v -0.3 1 -0.4
v 0.3 1 -0.4
v 0.4 1 -0.4
v -0.3 1 -0.5
v 0.3 1 -0.5
v -0.3 1.1 0.3
v 0.3 1.1 0.3
v -0.4 1.1 0
v -0.3 1.1 0
v -0.4 1.1 -0.1
v -0.2 1.1 -0.1
v -0.3 1.1 -0.3
v -0.2 1.1 -0.3
v -0.3 1.1 -0.4
v 0.3 1.1 -0.4
v -0.7 1.3 -0.1
v -0.6 1.3 -0.1
v -0.3 1.3 -0.1
v -0.2 1.3 -0.1
v -0.7 1.3 -0.3
v -0.6 1.3 -0.3
v -0.3 1.3 -0.3
v -0.2 1.3 -0.3
v -0.5 1.4 0
v -0.3 1.4 0
v -0.6 1.4 -0.1
v -0.5 1.4 -0.1
v -0.3 1.4 -0.1
v -0.6 1.4 -0.3
v -0.5 1.4 -0.3
v -0.3 1.4 -0.3
v -0.5 1.4 -0.4
v -0.3 1.4 -0.4
v -0.5 1.5 -0.1
v -0.3 1.5 -0.1
v -0.5 1.5 -0.3
v -0.3 1.5 -0.3

# faces
f 3/4/1 2/4/1 1/4/1
f 5/4/1 3/4/1 1/4/1
f 5/4/1 4/4/1 3/4/1
f 6/4/1 4/4/1 5/4/1
f 9/4/1 8/4/1 7/4/1
f 10/4/1 8/4/1 9/4/1
f 13/1/1 12/1/1 11/1/1
f 14/1/1 12/1/1 13/1/1
f 19/4/1 16/4/1 15/4/1
f 20/4/1 16/4/1 19/4/1
f 21/4/1 18/4/1 17/4/1
f 22/4/1 18/4/1 21/4/1
f 23/4/1 21/4/1 20/4/1
f 24/4/1 21/4/1 23/4/1
f 30/4/1 26/4/1 25/4/1
f 31/4/1 26/4/1 30/4/1
f 33/1/1 28/1/1 27/1/1
f 34/1/1 28/1/1 33/1/1
f 35/4/1 32/4/1 31/4/1
f 35/4/1 30/4/1 29/4/1
f 35/4/1 31/4/1 30/4/1
f 39/4/1 37/4/1 36/4/1
f 41/4/1 39/4/1 38/4/1
f 42/4/1 37/4/1 39/4/1
f 42/4/1 39/4/1 41/4/1
f 43/4/1 35/4/1 34/4/1
f 44/4/1 42/4/1 41/4/1
f 44/4/1 43/4/1 42/4/1
f 44/4/1 41/4/1 40/4/1
f 45/4/1 43/4/1 44/4/1
f 46/4/1 35/4/1 43/4/1
f 46/4/1 43/4/1 45/4/1
f 46/4/1 32/4/1 35/4/1
f 47/4/1 32/4/1 46/4/1
f 48/4/1 46/4/1 45/4/1
f 49/4/1 46/4/1 48/4/1
f 50/4/1 46/4/1 49/4/1
f 51/4/1 46/4/1 50/4/1
f 52/4/1 50/4/1 49/4/1
f 53/4/1 50/4/1 52/4/1
f 54/4/1 50/4/1 53/4/1
f 55/4/1 50/4/1 54/4/1
f 58/1/1 57/1/1 56/1/1
f 62/1/1 58/1/1 56/1/1
f 62/1/1 59/1/1 58/1/1
f 63/1/1 59/1/1 62/1/1
f 64/1/1 59/1/1 63/1/1
f 65/1/1 59/1/1 64/1/1
f 66/4/1 61/4/1 60/4/1
f 67/4/1 61/4/1 66/4/1
f 69/1/1 64/1/1 63/1/1
f 70/1/1 64/1/1 69/1/1
f 71/1/1 62/1/1 56/1/1
f 72/1/1 62/1/1 71/1/1
f 73/1/1 62/1/1 72/1/1
f 74/1/1 62/1/1 73/1/1
f 76/1/1 73/1/1 72/1/1
f 77/1/1 73/1/1 76/1/1
f 78/1/1 76/1/1 75/1/1
f 79/1/1 76/1/1 78/1/1
f 83/4/1 68/4/1 67/4/1
f 84/4/1 68/4/1 83/4/1
f 85/4/1 81/4/1 80/4/1
f 86/4/1 81/4/1 85/4/1
f 89/4/1 83/4/1 82/4/1
f 90/4/1 83/4/1 89/4/1
f 91/4/1 87/4/1 86/4/1
f 92/4/1 87/4/1 91/4/1
f 93/4/1 89/4/1 88/4/1
f 94/4/1 89/4/1 93/4/1
f 97/1/1 96/1/1 95/1/1
f 98/1/1 96/1/1 97/1/1
f 99/1/1 96/1/1 98/1/1
f 101/1/1 100/1/1 99/1/1
f 101/1/1 99/1/1 98/1/1
f 102/1/1 100/1/1 101/1/1
f 105/3/1 104/3/1 103/3/1
f 106/3/1 104/3/1 105/3/1
f 109/1/1 108/1/1 107/1/1
f 110/1/1 108/1/1 109/1/1
f 113/1/1 112/1/1 111/1/1
f 114/1/1 112/1/1 113/1/1
f 115/4/2 116/4/2 117/4/2
f 115/4/2 117/4/2 119/4/2
f 117/4/2 118/4/2 119/4/2
f 119/4/2 118/4/2 120/4/2
f 121/4/2 122/4/2 123/4/2
f 123/4/2 122/4/2 124/4/2
f 125/4/2 126/4/2 129/4/2
f 127/4/2 128/4/2 129/4/2
f 126/4/2 127/4/2 129/4/2
f 129/4/2 128/4/2 130/4/2
f 130/4/2 128/4/2 131/4/2
f 131/4/2 128/4/2 132/4/2
f 130/4/2 131/4/2 133/4/2
f 133/4/2 131/4/2 134/4/2
f 135/4/2 136/4/2 137/4/2
f 137/4/2 136/4/2 138/4/2
f 139/1/2 140/1/2 141/1/2
f 141/1/2 140/1/2 142/1/2
f 143/1/2 144/1/2 145/1/2
f 145/1/2 144/1/2 146/1/2
f 147/1/2 148/1/2 149/1/2
f 149/1/2 148/1/2 150/1/2
f 150/1/2 148/1/2 151/1/2
f 151/1/2 152/1/2 153/1/2
f 150/1/2 151/1/2 153/1/2
f 153/1/2 152/1/2 154/1/2
f 155/3/2 156/3/2 157/3/2
f 157/3/2 156/3/2 158/3/2
f 159/1/2 160/1/2 161/1/2
f 159/1/2 161/1/2 165/1/2
f 161/1/2 162/1/2 165/1/2
f 165/1/2 162/1/2 166/1/2
f 166/1/2 162/1/2 167/1/2
f 167/1/2 162/1/2 168/1/2
f 163/4/2 164/4/2 169/4/2
f 169/4/2 164/4/2 170/4/2
f 166/1/2 167/1/2 172/1/2
f 172/1/2 167/1/2 173/1/2
f 159/1/2 165/1/2 174/1/2
f 174/1/2 165/1/2 175/1/2
f 175/1/2 165/1/2 176/1/2
f 176/1/2 165/1/2 177/1/2
f 175/1/2 176/1/2 179/1/2
f 179/1/2 176/1/2 180/1/2
f 178/1/2 179/1/2 181/1/2
f 181/1/2 179/1/2 182/1/2
f 170/4/2 171/4/2 186/4/2
f 186/4/2 171/4/2 187/4/2
f 183/4/2 184/4/2 188/4/2
f 188/4/2 184/4/2 189/4/2
f 185/4/2 186/4/2 190/4/2
f 190/4/2 186/4/2 191/4/2
f 189/4/2 190/4/2 192/4/2
f 192/4/2 190/4/2 193/4/2
f 194/4/2 195/4/2 199/4/2
f 199/4/2 195/4/2 200/4/2
f 196/1/2 197/1/2 202/1/2
f 202/1/2 197/1/2 203/1/2
f 200/4/2 201/4/2 204/4/2
f 198/4/2 199/4/2 204/4/2
f 199/4/2 200/4/2 204/4/2
f 205/4/2 206/4/2 208/4/2
f 207/4/2 208/4/2 210/4/2
f 208/4/2 206/4/2 211/4/2
f 210/4/2 208/4/2 211/4/2
f 203/4/2 204/4/2 212/4/2
f 210/4/2 211/4/2 213/4/2
f 211/4/2 212/4/2 213/4/2
f 209/4/2 210/4/2 213/4/2
f 213/4/2 212/4/2 214/4/2
f 212/4/2 204/4/2 215/4/2
f 214/4/2 212/4/2 215/4/2
f 204/4/2 201/4/2 215/4/2
f 215/4/2 201/4/2 216/4/2
f 214/4/2 215/4/2 217/4/2
f 217/4/2 215/4/2 218/4/2
f 219/1/2 220/1/2 221/1/2
f 221/1/2 220/1/2 222/1/2
f 225/1/3 224/1/3 223/1/3
f 226/1/3 224/1/3 225/1/3
f 232/4/3 228/4/3 227/4/3
f 233/4/3 228/4/3 232/4/3
f 236/1/3 230/1/3 229/1/3
f 237/1/3 230/1/3 236/1/3
f 238/1/3 230/1/3 237/1/3
f 239/1/3 232/1/3 231/1/3
f 239/1/3 233/1/3 232/1/3
f 240/1/3 237/1/3 236/1/3
f 240/1/3 236/1/3 235/1/3
f 241/1/3 237/1/3 240/1/3
f 242/1/3 237/1/3 241/1/3
f 243/5/3 238/5/3 237/5/3
f 243/1/3 237/1/3 242/1/3
f 244/3/3 239/3/3 238/3/3
f 244/5/3 238/5/3 243/5/3
f 245/1/3 233/1/3 239/1/3
f 245/3/3 239/3/3 244/3/3
f 246/1/3 240/1/3 235/1/3
f 246/2/3 241/2/3 240/2/3
f 247/1/3 242/1/3 241/1/3
f 247/2/3 241/2/3 246/2/3
f 248/1/3 242/1/3 247/1/3
f 249/1/3 244/1/3 243/1/3
f 249/1/3 245/1/3 244/1/3
f 250/1/3 245/1/3 249/1/3
f 251/1/3 233/1/3 245/1/3
f 251/1/3 245/1/3 250/1/3
f 252/1/3 246/1/3 235/1/3
f 252/1/3 248/1/3 247/1/3
f 252/1/3 247/1/3 246/1/3
f 252/1/3 249/1/3 248/1/3
f 253/1/3 249/1/3 252/1/3
f 254/5/3 250/5/3 249/5/3
f 254/1/3 249/1/3 253/1/3
f 255/3/3 251/3/3 250/3/3
f 255/5/3 250/5/3 254/5/3
f 256/1/3 233/1/3 251/1/3
f 256/3/3 251/3/3 255/3/3
f 257/1/3 255/1/3 254/1/3
f 257/1/3 254/1/3 253/1/3
f 258/1/3 255/1/3 257/1/3
f 259/1/3 233/1/3 256/1/3
f 260/1/3 233/1/3 259/1/3
f 261/4/3 234/4/3 233/4/3
f 261/1/3 233/1/3 260/1/3
f 262/4/3 234/4/3 261/4/3
f 263/4/3 261/4/3 260/4/3
f 264/4/3 261/4/3 263/4/3
f 270/4/3 266/4/3 265/4/3
f 271/4/3 266/4/3 270/4/3
f 272/4/3 268/4/3 267/4/3
f 273/4/3 268/4/3 272/4/3
f 275/1/3 270/1/3 269/1/3
f 276/1/3 270/1/3 275/1/3
f 279/1/3 278/1/3 277/1/3
f 280/1/3 278/1/3 279/1/3
f 283/4/3 274/4/3 273/4/3
f 284/4/3 274/4/3 283/4/3
f 285/4/3 281/4/3 280/4/3
f 286/4/3 281/4/3 285/4/3
f 287/4/3 283/4/3 282/4/3
f 288/4/3 283/4/3 287/4/3
f 291/4/3 290/4/3 289/4/3
f 292/4/3 290/4/3 291/4/3
f 295/1/3 294/1/3 293/1/3
f 296/1/3 294/1/3 295/1/3
f 299/4/3 298/4/3 297/4/3
f 300/4/3 298/4/3 299/4/3
f 306/1/3 302/1/3 301/1/3
f 307/1/3 302/1/3 306/1/3
f 308/1/3 302/1/3 307/1/3
f 311/1/3 306/1/3 305/1/3
f 311/1/3 307/1/3 306/1/3
f 312/1/3 307/1/3 311/1/3
f 313/4/3 310/4/3 309/4/3
f 314/4/3 310/4/3 313/4/3
f 315/4/3 304/4/3 303/4/3
f 316/4/3 304/4/3 315/4/3
f 319/1/3 318/1/3 317/1/3
f 320/1/3 318/1/3 319/1/3
f 321/1/3 318/1/3 320/1/3
f 323/1/3 322/1/3 321/1/3
f 323/1/3 321/1/3 320/1/3
f 324/1/3 322/1/3 323/1/3
f 327/4/3 326/4/3 325/4/3
f 328/4/3 326/4/3 327/4/3
f 329/4/3 326/4/3 328/4/3
f 331/4/3 330/4/3 329/4/3
f 331/4/3 329/4/3 328/4/3
f 332/4/3 330/4/3 331/4/3
f 333/4/3 330/4/3 332/4/3
f 334/4/3 330/4/3 333/4/3
f 337/4/3 333/4/3 332/4/3
f 338/4/3 333/4/3 337/4/3
f 338/4/3 337/4/3 336/4/3
f 339/4/3 335/4/3 334/4/3
f 340/4/3 335/4/3 339/4/3
f 341/4/3 338/4/3 336/4/3
f 342/4/3 338/4/3 341/4/3
f 345/4/3 344/4/3 343/4/3
f 346/4/3 344/4/3 345/4/3
f 349/4/3 348/4/3 347/4/3
f 350/4/3 348/4/3 349/4/3
f 353/4/3 352/4/3 351/4/3
f 354/4/3 352/4/3 353/4/3
f 357/4/3 356/4/3 355/4/3
f 358/4/3 356/4/3 357/4/3
f 359/1/4 360/1/4 361/1/4
f 361/1/4 360/1/4 362/1/4
f 363/1/4 364/1/4 365/1/4
f 365/1/4 364/1/4 366/1/4
f 367/1/4 368/1/4 370/1/4
f 370/1/4 368/1/4 371/1/4
f 369/1/4 370/1/4 372/1/4
f 372/1/4 370/1/4 373/1/4
f 374/1/4 375/1/4 376/1/4
f 376/1/4 375/1/4 377/1/4
f 378/1/4 379/1/4 380/1/4
f 380/1/4 379/1/4 381/1/4
f 381/1/4 382/1/4 383/1/4
f 383/1/4 382/1/4 384/1/4
f 385/4/4 386/4/4 387/4/4
f 387/4/4 386/4/4 388/4/4
f 389/1/4 390/1/4 391/1/4
f 391/1/4 390/1/4 392/1/4
f 393/4/4 394/4/4 395/4/4
f 395/4/4 394/4/4 396/4/4
f 396/4/4 394/4/4 397/4/4
f 397/4/4 398/4/4 399/4/4
f 396/4/4 397/4/4 399/4/4
f 399/4/4 398/4/4 400/4/4
f 400/4/4 398/4/4 401/4/4
f 401/4/4 398/4/4 402/4/4
f 400/4/4 401/4/4 405/4/4
f 404/4/4 405/4/4 406/4/4
f 406/4/4 405/4/4 407/4/4
f 405/4/4 401/4/4 408/4/4
f 407/4/4 405/4/4 408/4/4
f 402/4/4 403/4/4 409/4/4
f 409/4/4 403/4/4 410/4/4
f 407/4/4 408/4/4 413/4/4
f 413/4/4 408/4/4 414/4/4
f 411/1/4 412/1/4 415/1/4
f 415/1/4 412/1/4 416/1/4
f 419/4/4 420/4/4 423/4/4
f 423/4/4 420/4/4 424/4/4
f 421/4/4 422/4/4 425/4/4
f 425/4/4 422/4/4 426/4/4
f 417/4/4 418/4/4 428/4/4
f 428/4/4 418/4/4 429/4/4
f 426/4/4 427/4/4 433/4/4
f 433/4/4 427/4/4 434/4/4
f 430/4/4 431/4/4 435/4/4
f 435/4/4 431/4/4 436/4/4
f 432/4/4 433/4/4 437/4/4
f 437/4/4 433/4/4 438/4/4
f 439/4/4 440/4/4 442/4/4
f 442/4/4 440/4/4 443/4/4
f 441/4/4 442/4/4 445/4/4
f 445/4/4 442/4/4 446/4/4
f 443/4/4 444/4/4 447/4/4
f 447/4/4 444/4/4 448/4/4
f 446/4/4 447/4/4 449/4/4
f 449/4/4 447/4/4 450/4/4
f 451/4/4 452/4/4 453/4/4
f 453/4/4 452/4/4 454/4/4
f 457/1/5 456/1/5 455/1/5
f 458/1/5 456/1/5 457/1/5
f 461/1/5 460/1/5 459/1/5
f 462/1/5 460/1/5 461/1/5
f 463/1/5 461/1/5 459/1/5
f 464/1/5 460/1/5 462/1/5
f 465/1/5 463/1/5 459/1/5
f 465/1/5 464/1/5 463/1/5
f 466/1/5 460/1/5 464/1/5
f 466/1/5 464/1/5 465/1/5
f 471/1/5 468/1/5 467/1/5
f 472/1/5 468/1/5 471/1/5
f 473/1/5 470/1/5 469/1/5
f 474/1/5 470/1/5 473/1/5
f 477/1/5 476/1/5 475/1/5
f 478/1/5 476/1/5 477/1/5
f 484/1/5 480/1/5 479/1/5
f 485/1/5 480/1/5 484/1/5
f 486/1/5 482/1/5 481/1/5
f 487/1/5 482/1/5 486/1/5
f 489/4/5 484/4/5 483/4/5
f 490/1/5 485/1/5 484/1/5
f 490/4/5 484/4/5 489/4/5
f 490/1/5 486/1/5 485/1/5
f 490/1/5 487/1/5 486/1/5
f 491/4/5 488/4/5 487/4/5
f 491/1/5 487/1/5 490/1/5
f 492/4/5 488/4/5 491/4/5
f 493/4/5 491/4/5 490/4/5
f 494/4/5 491/4/5 493/4/5
f 497/1/5 496/1/5 495/1/5
f 498/1/5 496/1/5 497/1/5
f 505/1/5 500/1/5 499/1/5
f 506/1/5 500/1/5 505/1/5
f 507/1/5 502/1/5 501/1/5
f 508/1/5 502/1/5 507/1/5
f 509/4/5 504/4/5 503/4/5
f 510/4/5 504/4/5 509/4/5
f 515/4/5 512/4/5 511/4/5
f 516/4/5 512/4/5 515/4/5
f 517/4/5 514/4/5 513/4/5
f 518/4/5 514/4/5 517/4/5
f 523/4/5 520/4/5 519/4/5
f 524/4/5 520/4/5 523/4/5
f 525/4/5 522/4/5 521/4/5
f 526/4/5 522/4/5 525/4/5
f 527/4/5 525/4/5 524/4/5
f 528/4/5 525/4/5 527/4/5
f 533/1/5 530/1/5 529/1/5
f 534/1/5 530/1/5 533/1/5
f 537/1/5 532/1/5 531/1/5
f 538/1/5 532/1/5 537/1/5
f 539/4/5 535/4/5 534/4/5
f 540/4/5 535/4/5 539/4/5
f 541/4/5 537/4/5 536/4/5
f 542/4/5 537/4/5 541/4/5
f 547/4/5 544/4/5 543/4/5
f 548/4/5 544/4/5 547/4/5
f 549/4/5 546/4/5 545/4/5
f 550/4/5 546/4/5 549/4/5
f 553/4/5 552/4/5 551/4/5
f 554/4/5 552/4/5 553/4/5
f 560/1/5 556/1/5 555/1/5
f 561/1/5 556/1/5 560/1/5
f 562/1/5 558/1/5 557/1/5
f 563/1/5 558/1/5 562/1/5
f 565/4/5 560/4/5 559/4/5
f 566/4/5 560/4/5 565/4/5
f 567/4/5 564/4/5 563/4/5
f 568/4/5 564/4/5 567/4/5
f 573/4/5 570/4/5 569/4/5
f 574/4/5 570/4/5 573/4/5
f 575/4/5 572/4/5 571/4/5
f 576/4/5 572/4/5 575/4/5
f 579/4/5 578/4/5 577/4/5
f 580/4/5 578/4/5 579/4/5
f 583/4/5 582/4/5 581/4/5
f 584/4/5 582/4/5 583/4/5
f 587/4/5 586/4/5 585/4/5
f 588/4/5 586/4/5 587/4/5
f 591/4/5 590/4/5 589/4/5
f 592/4/5 590/4/5 591/4/5
f 593/1/6 594/1/6 595/1/6
f 595/1/6 594/1/6 596/1/6
f 597/1/6 598/1/6 601/1/6
f 601/1/6 598/1/6 602/1/6
f 599/1/6 600/1/6 603/1/6
f 603/1/6 600/1/6 604/1/6
f 605/1/6 606/1/6 609/1/6
f 609/1/6 606/1/6 610/1/6
f 607/1/6 608/1/6 611/1/6
f 611/1/6 608/1/6 612/1/6
f 613/4/6 614/4/6 617/4/6
f 617/4/6 614/4/6 618/4/6
f 615/4/6 616/4/6 619/4/6
f 619/4/6 616/4/6 620/4/6
f 621/4/6 622/4/6 625/4/6
f 625/4/6 622/4/6 626/4/6
f 623/4/6 624/4/6 627/4/6
f 627/4/6 624/4/6 628/4/6
f 626/4/6 627/4/6 629/4/6
f 629/4/6 627/4/6 630/4/6
f 631/4/6 632/4/6 634/4/6
f 634/4/6 632/4/6 635/4/6
f 633/4/6 634/4/6 637/4/6
f 637/4/6 634/4/6 638/4/6
f 639/4/6 640/4/6 641/4/6
f 641/4/6 640/4/6 642/4/6
f 635/4/6 636/4/6 643/4/6
f 643/4/6 636/4/6 644/4/6
f 642/4/6 643/4/6 645/4/6
f 645/4/6 643/4/6 646/4/6
f 647/4/6 648/4/6 650/4/6
f 649/4/6 650/4/6 651/4/6
f 650/4/6 648/4/6 652/4/6
f 651/4/6 650/4/6 652/4/6
f 652/4/6 648/4/6 654/4/6
f 653/4/6 654/4/6 655/4/6
f 654/4/6 648/4/6 656/4/6
f 655/4/6 654/4/6 656/4/6
f 657/4/6 658/4/6 661/4/6
f 661/4/6 658/4/6 662/4/6
f 659/4/6 660/4/6 663/4/6
f 663/4/6 660/4/6 664/4/6
f 665/4/6 666/4/6 668/4/6
f 668/4/6 666/4/6 669/4/6
f 667/4/6 668/4/6 670/4/6
f 670/4/6 668/4/6 671/4/6
f 671/4/6 672/4/6 673/4/6
f 673/4/6 672/4/6 674/4/6
f 675/4/6 676/4/6 677/4/6
f 677/4/6 676/4/6 678/4/6
