# MagicaVoxel @ Ephtracy

# group
o 

# material
mtllib arrow.mtl
usemtl palette

# normals
vn -1 0 0
vn 1 0 0
vn 0 0 1
vn 0 0 -1
vn 0 -1 0
vn 0 1 0

# texcoords
vt 0.396484 0.5
vt 0.958984 0.5
vt 0.978516 0.5

# verts
v -0.2 2.4 -0.6
v -0.2 2.4 -0.9
v -0.2 2.5 -0.6
v -0.2 2.5 -0.9
v -0.0999999 2.3 0.8
v -0.0999999 2.3 0.6
v -0.0999999 2.3 -0.6
v -0.0999999 2.3 -0.9
v -0.0999999 2.4 1
v -0.0999999 2.4 0.8
v -0.0999999 2.4 0.7
v -0.0999999 2.4 0.6
v -0.0999999 2.4 -0.6
v -0.0999999 2.4 -0.9
v -0.0999999 2.4 -1
v -0.0999999 2.5 1
v -0.0999999 2.5 0.8
v -0.0999999 2.5 0.7
v -0.0999999 2.5 0.6
v -0.0999999 2.5 -0.6
v -0.0999999 2.5 -0.9
v -0.0999999 2.5 -1
v -0.0999999 2.6 0.8
v -0.0999999 2.6 0.6
v -0.0999999 2.6 -0.6
v -0.0999999 2.6 -0.9
v 5.96046e-008 2.3 0.8
v 5.96046e-008 2.3 0.6
v 5.96046e-008 2.3 -0.6
v 5.96046e-008 2.3 -0.9
v 5.96046e-008 2.4 1
v 5.96046e-008 2.4 0.8
v 5.96046e-008 2.4 0.7
v 5.96046e-008 2.4 0.6
v 5.96046e-008 2.4 -0.6
v 5.96046e-008 2.4 -0.9
v 5.96046e-008 2.4 -1
v 5.96046e-008 2.5 1
v 5.96046e-008 2.5 0.8
v 5.96046e-008 2.5 0.7
v 5.96046e-008 2.5 0.6
v 5.96046e-008 2.5 -0.6
v 5.96046e-008 2.5 -0.9
v 5.96046e-008 2.5 -1
v 5.96046e-008 2.6 0.8
v 5.96046e-008 2.6 0.6
v 5.96046e-008 2.6 -0.6
v 5.96046e-008 2.6 -0.9
v 0.1 2.4 -0.6
v 0.1 2.4 -0.9
v 0.1 2.5 -0.6
v 0.1 2.5 -0.9
v -0.0999999 2.4 1
v -0.0999999 2.5 1
v 5.96046e-008 2.4 1
v 5.96046e-008 2.5 1
v -0.0999999 2.3 0.8
v -0.0999999 2.4 0.8
v -0.0999999 2.5 0.8
v -0.0999999 2.6 0.8
v 5.96046e-008 2.3 0.8
v 5.96046e-008 2.4 0.8
v 5.96046e-008 2.5 0.8
v 5.96046e-008 2.6 0.8
v -0.2 2.4 -0.6
v -0.2 2.5 -0.6
v -0.0999999 2.3 -0.6
v -0.0999999 2.4 -0.6
v -0.0999999 2.5 -0.6
v -0.0999999 2.6 -0.6
v 5.96046e-008 2.3 -0.6
v 5.96046e-008 2.4 -0.6
v 5.96046e-008 2.5 -0.6
v 5.96046e-008 2.6 -0.6
v 0.1 2.4 -0.6
v 0.1 2.5 -0.6
v -0.0999999 2.3 0.6
v -0.0999999 2.4 0.6
v -0.0999999 2.5 0.6
v -0.0999999 2.6 0.6
v 5.96046e-008 2.3 0.6
v 5.96046e-008 2.4 0.6
v 5.96046e-008 2.5 0.6
v 5.96046e-008 2.6 0.6
v -0.2 2.4 -0.9
v -0.2 2.5 -0.9
v -0.0999999 2.3 -0.9
v -0.0999999 2.4 -0.9
v -0.0999999 2.5 -0.9
v -0.0999999 2.6 -0.9
v 5.96046e-008 2.3 -0.9
v 5.96046e-008 2.4 -0.9
v 5.96046e-008 2.5 -0.9
v 5.96046e-008 2.6 -0.9
v 0.1 2.4 -0.9
v 0.1 2.5 -0.9
v -0.0999999 2.4 -1
v -0.0999999 2.5 -1
v 5.96046e-008 2.4 -1
v 5.96046e-008 2.5 -1
v -0.0999999 2.3 0.8
v 5.96046e-008 2.3 0.8
v -0.0999999 2.3 0.6
v 5.96046e-008 2.3 0.6
v -0.0999999 2.3 -0.6
v 5.96046e-008 2.3 -0.6
v -0.0999999 2.3 -0.9
v 5.96046e-008 2.3 -0.9
v -0.0999999 2.4 1
v 5.96046e-008 2.4 1
v -0.0999999 2.4 0.8
v 5.96046e-008 2.4 0.8
v -0.0999999 2.4 0.6
v 5.96046e-008 2.4 0.6
v -0.2 2.4 -0.6
v -0.0999999 2.4 -0.6
v 5.96046e-008 2.4 -0.6
v 0.1 2.4 -0.6
v -0.2 2.4 -0.9
v -0.0999999 2.4 -0.9
v 5.96046e-008 2.4 -0.9
v 0.1 2.4 -0.9
v -0.0999999 2.4 -1
v 5.96046e-008 2.4 -1
v -0.0999999 2.5 1
v 5.96046e-008 2.5 1
v -0.0999999 2.5 0.8
v 5.96046e-008 2.5 0.8
v -0.0999999 2.5 0.6
v 5.96046e-008 2.5 0.6
v -0.2 2.5 -0.6
v -0.0999999 2.5 -0.6
v 5.96046e-008 2.5 -0.6
v 0.1 2.5 -0.6
v -0.2 2.5 -0.9
v -0.0999999 2.5 -0.9
v 5.96046e-008 2.5 -0.9
v 0.1 2.5 -0.9
v -0.0999999 2.5 -1
v 5.96046e-008 2.5 -1
v -0.0999999 2.6 0.8
v 5.96046e-008 2.6 0.8
v -0.0999999 2.6 0.6
v 5.96046e-008 2.6 0.6
v -0.0999999 2.6 -0.6
v 5.96046e-008 2.6 -0.6
v -0.0999999 2.6 -0.9
v 5.96046e-008 2.6 -0.9

# faces
f 3/2/1 2/2/1 1/2/1
f 4/2/1 2/2/1 3/2/1
f 10/3/1 6/3/1 5/3/1
f 11/3/1 6/3/1 10/3/1
f 12/3/1 6/3/1 11/3/1
f 13/2/1 8/2/1 7/2/1
f 14/2/1 8/2/1 13/2/1
f 16/3/1 10/3/1 9/3/1
f 16/3/1 11/3/1 10/3/1
f 17/3/1 11/3/1 16/3/1
f 18/1/1 12/1/1 11/1/1
f 18/3/1 11/3/1 17/3/1
f 18/1/1 13/1/1 12/1/1
f 19/1/1 13/1/1 18/1/1
f 20/1/1 13/1/1 19/1/1
f 21/1/1 15/1/1 14/1/1
f 22/1/1 15/1/1 21/1/1
f 23/3/1 18/3/1 17/3/1
f 23/3/1 19/3/1 18/3/1
f 24/3/1 19/3/1 23/3/1
f 25/2/1 21/2/1 20/2/1
f 26/2/1 21/2/1 25/2/1
f 27/3/2 28/3/2 32/3/2
f 32/3/2 28/3/2 33/3/2
f 33/3/2 28/3/2 34/3/2
f 29/2/2 30/2/2 35/2/2
f 35/2/2 30/2/2 36/2/2
f 31/3/2 32/3/2 38/3/2
f 32/3/2 33/3/2 38/3/2
f 38/3/2 33/3/2 39/3/2
f 33/1/2 34/1/2 40/1/2
f 39/3/2 33/3/2 40/3/2
f 34/1/2 35/1/2 40/1/2
f 40/1/2 35/1/2 41/1/2
f 41/1/2 35/1/2 42/1/2
f 36/1/2 37/1/2 43/1/2
f 43/1/2 37/1/2 44/1/2
f 39/3/2 40/3/2 45/3/2
f 40/3/2 41/3/2 45/3/2
f 45/3/2 41/3/2 46/3/2
f 42/2/2 43/2/2 47/2/2
f 47/2/2 43/2/2 48/2/2
f 49/2/2 50/2/2 51/2/2
f 51/2/2 50/2/2 52/2/2
f 55/3/3 54/3/3 53/3/3
f 56/3/3 54/3/3 55/3/3
f 61/3/3 58/3/3 57/3/3
f 62/3/3 58/3/3 61/3/3
f 63/3/3 60/3/3 59/3/3
f 64/3/3 60/3/3 63/3/3
f 68/2/3 66/2/3 65/2/3
f 69/2/3 66/2/3 68/2/3
f 71/2/3 68/2/3 67/2/3
f 72/2/3 68/2/3 71/2/3
f 73/2/3 70/2/3 69/2/3
f 74/2/3 70/2/3 73/2/3
f 75/2/3 73/2/3 72/2/3
f 76/2/3 73/2/3 75/2/3
f 77/3/4 78/3/4 81/3/4
f 81/3/4 78/3/4 82/3/4
f 79/3/4 80/3/4 83/3/4
f 83/3/4 80/3/4 84/3/4
f 85/2/4 86/2/4 88/2/4
f 88/2/4 86/2/4 89/2/4
f 87/2/4 88/2/4 91/2/4
f 91/2/4 88/2/4 92/2/4
f 89/2/4 90/2/4 93/2/4
f 93/2/4 90/2/4 94/2/4
f 92/2/4 93/2/4 95/2/4
f 95/2/4 93/2/4 96/2/4
f 97/1/4 98/1/4 99/1/4
f 99/1/4 98/1/4 100/1/4
f 103/3/5 102/3/5 101/3/5
f 104/3/5 102/3/5 103/3/5
f 107/2/5 106/2/5 105/2/5
f 108/2/5 106/2/5 107/2/5
f 111/3/5 110/3/5 109/3/5
f 112/3/5 110/3/5 111/3/5
f 116/1/5 114/1/5 113/1/5
f 117/1/5 114/1/5 116/1/5
f 119/2/5 116/2/5 115/2/5
f 120/2/5 116/2/5 119/2/5
f 121/2/5 118/2/5 117/2/5
f 122/2/5 118/2/5 121/2/5
f 123/1/5 121/1/5 120/1/5
f 124/1/5 121/1/5 123/1/5
f 125/3/6 126/3/6 127/3/6
f 127/3/6 126/3/6 128/3/6
f 129/1/6 130/1/6 132/1/6
f 132/1/6 130/1/6 133/1/6
f 131/2/6 132/2/6 135/2/6
f 135/2/6 132/2/6 136/2/6
f 133/2/6 134/2/6 137/2/6
f 137/2/6 134/2/6 138/2/6
f 136/1/6 137/1/6 139/1/6
f 139/1/6 137/1/6 140/1/6
f 141/3/6 142/3/6 143/3/6
f 143/3/6 142/3/6 144/3/6
f 145/2/6 146/2/6 147/2/6
f 147/2/6 146/2/6 148/2/6
