# MagicaVoxel @ Ephtracy

# group
o 

# material
mtllib male-53.mtl
usemtl palette

# normals
vn -1 0 0
vn 1 0 0
vn 0 0 1
vn 0 0 -1
vn 0 -1 0
vn 0 1 0

# texcoords
vt 0.0292969 0.5
vt 0.958984 0.5
vt 0.970703 0.5
vt 0.986328 0.5

# verts
v -0.5 -0.1 0.5
v -0.5 -0.1 0.3
v -0.5 -5.96046e-008 0.5
v -0.5 -5.96046e-008 0.3
v -0.4 -0.2 0.2
v -0.4 -0.2 -0.2
v -0.4 -0.1 2
v -0.4 -0.1 0.5
v -0.4 -0.1 0.3
v -0.4 -0.1 0.2
v -0.4 -0.1 -0.3
v -0.4 -0.1 -0.4
v -0.4 -5.96046e-008 2
v -0.4 -5.96046e-008 0.5
v -0.4 -5.96046e-008 0.3
v -0.4 -5.96046e-008 0.2
v -0.4 -5.96046e-008 -0.3
v -0.4 -5.96046e-008 -0.4
v -0.4 0.0999999 0.2
v -0.4 0.0999999 -0.2
v -0.3 -0.1 2.1
v -0.3 -0.1 2
v -0.3 -0.1 -0.2
v -0.3 -0.1 -0.3
v -0.3 -0.1 -0.4
v -0.3 -0.1 -0.5
v -0.3 -5.96046e-008 2.1
v -0.3 -5.96046e-008 2
v -0.3 -5.96046e-008 -0.2
v -0.3 -5.96046e-008 -0.3
v -0.3 -5.96046e-008 -0.4
v -0.3 -5.96046e-008 -0.5
v -0.2 -0.2 0.3
v -0.2 -0.2 0.2
v -0.2 -0.1 0.3
v -0.2 -0.1 0.2
v -0.2 -0.1 2.1
v -0.2 -0.1 2
v -0.2 -0.1 -0.2
v -0.2 -0.1 -0.3
v -0.2 -0.1 -0.4
v -0.2 -0.1 -0.5
v -0.2 -5.96046e-008 2.1
v -0.2 -5.96046e-008 2
v -0.2 -5.96046e-008 -0.2
v -0.2 -5.96046e-008 -0.3
v -0.2 -5.96046e-008 -0.4
v -0.2 -5.96046e-008 -0.5
v -0.1 -0.2 0.0999999
v -0.1 -0.2 -0.2
v -0.1 -0.1 2
v -0.1 -0.1 0.5
v -0.1 -0.1 0.3
v -0.1 -0.1 0.2
v -0.1 -0.1 0.0999999
v -0.1 -0.1 -0.2
v -0.1 -0.1 -0.3
v -0.1 -0.1 -0.4
v -0.1 -5.96046e-008 2
v -0.1 -5.96046e-008 0.5
v -0.1 -5.96046e-008 0.3
v -0.1 -5.96046e-008 0.2
v -0.1 -5.96046e-008 -0.3
v -0.1 -5.96046e-008 -0.4
v 0 -0.2 0.3
v 0 -0.2 0.0999999
v 0 -0.1 0.5
v 0 -0.1 0.3
v 0 -0.1 0.2
v 0 -0.1 0.0999999
v 0 -0.1 -0.2
v 0 -5.96046e-008 0.5
v 0 -5.96046e-008 0.3
v 0 0.0999999 0.2
v 0 0.0999999 -0.2
v -0.3 -0.1 2.1
v -0.3 -5.96046e-008 2.1
v -0.2 -0.1 2.1
v -0.2 -5.96046e-008 2.1
v -0.4 -0.1 2
v -0.4 -5.96046e-008 2
v -0.3 -0.1 2
v -0.3 -5.96046e-008 2
v -0.2 -0.1 2
v -0.2 -5.96046e-008 2
v -0.1 -0.1 2
v -0.1 -5.96046e-008 2
v -0.5 -0.1 0.5
v -0.5 -5.96046e-008 0.5
v -0.4 -0.1 0.5
v -0.4 -5.96046e-008 0.5
v -0.1 -0.1 0.5
v -0.1 -5.96046e-008 0.5
v 0 -0.1 0.5
v 0 -5.96046e-008 0.5
v -0.2 -0.2 0.3
v -0.2 -0.1 0.3
v 0 -0.2 0.3
v 0 -0.1 0.3
v -0.4 -0.2 0.2
v -0.4 -0.1 0.2
v -0.4 -5.96046e-008 0.2
v -0.4 0.0999999 0.2
v -0.3 -0.1 0.2
v -0.3 -5.96046e-008 0.2
v -0.2 -0.2 0.2
v -0.2 -0.1 0.2
v -0.2 -5.96046e-008 0.2
v -0.1 -0.1 0.2
v -0.1 -5.96046e-008 0.2
v 0 -0.1 0.2
v 0 0.0999999 0.2
v -0.4 -0.1 -0.3
v -0.4 -5.96046e-008 -0.3
v -0.3 -0.1 -0.3
v -0.3 -5.96046e-008 -0.3
v -0.2 -0.1 -0.3
v -0.2 -5.96046e-008 -0.3
v -0.1 -0.1 -0.3
v -0.1 -5.96046e-008 -0.3
v -0.5 -0.1 0.3
v -0.5 -5.96046e-008 0.3
v -0.4 -0.1 0.3
v -0.4 -5.96046e-008 0.3
v -0.1 -0.1 0.3
v -0.1 -5.96046e-008 0.3
v 0 -0.1 0.3
v 0 -5.96046e-008 0.3
v -0.1 -0.2 0.0999999
v -0.1 -0.1 0.0999999
v 0 -0.2 0.0999999
v 0 -0.1 0.0999999
v -0.4 -0.2 -0.2
v -0.4 0.0999999 -0.2
v -0.3 -0.1 -0.2
v -0.3 -5.96046e-008 -0.2
v -0.2 -0.1 -0.2
v -0.2 -5.96046e-008 -0.2
v -0.1 -0.2 -0.2
v -0.1 -0.1 -0.2
v 0 -0.1 -0.2
v 0 0.0999999 -0.2
v -0.4 -0.1 -0.4
v -0.4 -5.96046e-008 -0.4
v -0.3 -0.1 -0.4
v -0.3 -5.96046e-008 -0.4
v -0.2 -0.1 -0.4
v -0.2 -5.96046e-008 -0.4
v -0.1 -0.1 -0.4
v -0.1 -5.96046e-008 -0.4
v -0.3 -0.1 -0.5
v -0.3 -5.96046e-008 -0.5
v -0.2 -0.1 -0.5
v -0.2 -5.96046e-008 -0.5
v -0.2 -0.2 0.3
v 0 -0.2 0.3
v -0.4 -0.2 0.2
v -0.2 -0.2 0.2
v -0.1 -0.2 0.0999999
v 0 -0.2 0.0999999
v -0.4 -0.2 -0.2
v -0.1 -0.2 -0.2
v -0.3 -0.1 2.1
v -0.2 -0.1 2.1
v -0.4 -0.1 2
v -0.3 -0.1 2
v -0.2 -0.1 2
v -0.1 -0.1 2
v -0.5 -0.1 0.5
v -0.4 -0.1 0.5
v -0.1 -0.1 0.5
v 0 -0.1 0.5
v -0.4 -0.1 0.4
v -0.1 -0.1 0.4
v -0.5 -0.1 0.3
v -0.4 -0.1 0.3
v -0.3 -0.1 0.3
v -0.2 -0.1 0.3
v 0 -0.1 0.3
v -0.4 -0.1 0.2
v -0.3 -0.1 0.2
v -0.2 -0.1 0.2
v -0.1 -0.1 0.0999999
v 0 -0.1 0.0999999
v -0.3 -0.1 -0.2
v -0.2 -0.1 -0.2
v -0.1 -0.1 -0.2
v 0 -0.1 -0.2
v -0.4 -0.1 -0.3
v -0.3 -0.1 -0.3
v -0.2 -0.1 -0.3
v -0.1 -0.1 -0.3
v -0.4 -0.1 -0.4
v -0.3 -0.1 -0.4
v -0.2 -0.1 -0.4
v -0.1 -0.1 -0.4
v -0.3 -0.1 -0.5
v -0.2 -0.1 -0.5
v -0.1 -0.1 0.3
v 0 -0.1 0.3
v -0.1 -0.1 0.2
v 0 -0.1 0.2
v -0.3 -5.96046e-008 2.1
v -0.2 -5.96046e-008 2.1
v -0.4 -5.96046e-008 2
v -0.3 -5.96046e-008 2
v -0.2 -5.96046e-008 2
v -0.1 -5.96046e-008 2
v -0.5 -5.96046e-008 0.5
v -0.4 -5.96046e-008 0.5
v -0.1 -5.96046e-008 0.5
v 0 -5.96046e-008 0.5
v -0.4 -5.96046e-008 0.4
v -0.1 -5.96046e-008 0.4
v -0.5 -5.96046e-008 0.3
v -0.4 -5.96046e-008 0.3
v -0.3 -5.96046e-008 0.3
v -0.2 -5.96046e-008 0.3
v -0.1 -5.96046e-008 0.3
v 0 -5.96046e-008 0.3
v -0.4 -5.96046e-008 0.2
v -0.3 -5.96046e-008 0.2
v -0.2 -5.96046e-008 0.2
v -0.1 -5.96046e-008 0.2
v -0.3 -5.96046e-008 -0.2
v -0.2 -5.96046e-008 -0.2
v -0.4 -5.96046e-008 -0.3
v -0.3 -5.96046e-008 -0.3
v -0.2 -5.96046e-008 -0.3
v -0.1 -5.96046e-008 -0.3
v -0.4 -5.96046e-008 -0.4
v -0.3 -5.96046e-008 -0.4
v -0.2 -5.96046e-008 -0.4
v -0.1 -5.96046e-008 -0.4
v -0.3 -5.96046e-008 -0.5
v -0.2 -5.96046e-008 -0.5
v -0.4 0.0999999 0.2
v 0 0.0999999 0.2
v -0.4 0.0999999 -0.2
v 0 0.0999999 -0.2

# faces
f 3/3/1 2/3/1 1/3/1
f 4/3/1 2/3/1 3/3/1
f 10/1/1 6/1/1 5/1/1
f 13/2/1 8/2/1 7/2/1
f 14/2/1 8/2/1 13/2/1
f 15/3/1 10/3/1 9/3/1
f 16/1/1 6/1/1 10/1/1
f 16/3/1 10/3/1 15/3/1
f 17/3/1 12/3/1 11/3/1
f 18/3/1 12/3/1 17/3/1
f 19/1/1 6/1/1 16/1/1
f 20/1/1 6/1/1 19/1/1
f 27/2/1 22/2/1 21/2/1
f 28/2/1 22/2/1 27/2/1
f 29/3/1 24/3/1 23/3/1
f 30/3/1 24/3/1 29/3/1
f 31/3/1 26/3/1 25/3/1
f 32/3/1 26/3/1 31/3/1
f 35/1/1 34/1/1 33/1/1
f 36/1/1 34/1/1 35/1/1
f 37/2/2 38/2/2 43/2/2
f 43/2/2 38/2/2 44/2/2
f 39/3/2 40/3/2 45/3/2
f 45/3/2 40/3/2 46/3/2
f 41/3/2 42/3/2 47/3/2
f 47/3/2 42/3/2 48/3/2
f 49/1/2 50/1/2 55/1/2
f 55/1/2 50/1/2 56/1/2
f 51/2/2 52/2/2 59/2/2
f 59/2/2 52/2/2 60/2/2
f 53/3/2 54/3/2 61/3/2
f 61/3/2 54/3/2 62/3/2
f 57/3/2 58/3/2 63/3/2
f 63/3/2 58/3/2 64/3/2
f 65/1/2 66/1/2 68/1/2
f 68/1/2 66/1/2 69/1/2
f 69/1/2 66/1/2 70/1/2
f 67/3/2 68/3/2 72/3/2
f 72/3/2 68/3/2 73/3/2
f 70/1/2 71/1/2 74/1/2
f 69/1/2 70/1/2 74/1/2
f 74/1/2 71/1/2 75/1/2
f 78/2/3 77/2/3 76/2/3
f 79/2/3 77/2/3 78/2/3
f 82/2/3 81/2/3 80/2/3
f 83/2/3 81/2/3 82/2/3
f 86/2/3 85/2/3 84/2/3
f 87/2/3 85/2/3 86/2/3
f 90/3/3 89/3/3 88/3/3
f 91/3/3 89/3/3 90/3/3
f 94/3/3 93/3/3 92/3/3
f 95/3/3 93/3/3 94/3/3
f 98/1/3 97/1/3 96/1/3
f 99/1/3 97/1/3 98/1/3
f 104/1/3 101/1/3 100/1/3
f 105/1/3 103/1/3 102/1/3
f 106/1/3 104/1/3 100/1/3
f 107/1/3 104/1/3 106/1/3
f 108/1/3 103/1/3 105/1/3
f 110/1/3 103/1/3 108/1/3
f 111/1/3 110/1/3 109/1/3
f 112/1/3 103/1/3 110/1/3
f 112/1/3 110/1/3 111/1/3
f 115/3/3 114/3/3 113/3/3
f 116/3/3 114/3/3 115/3/3
f 119/3/3 118/3/3 117/3/3
f 120/3/3 118/3/3 119/3/3
f 121/3/4 122/3/4 123/3/4
f 123/3/4 122/3/4 124/3/4
f 125/3/4 126/3/4 127/3/4
f 127/3/4 126/3/4 128/3/4
f 129/1/4 130/1/4 131/1/4
f 131/1/4 130/1/4 132/1/4
f 133/1/4 134/1/4 135/1/4
f 135/1/4 134/1/4 136/1/4
f 133/1/4 135/1/4 137/1/4
f 136/1/4 134/1/4 138/1/4
f 133/1/4 137/1/4 139/1/4
f 137/1/4 138/1/4 139/1/4
f 139/1/4 138/1/4 140/1/4
f 140/1/4 138/1/4 141/1/4
f 138/1/4 134/1/4 142/1/4
f 141/1/4 138/1/4 142/1/4
f 143/3/4 144/3/4 145/3/4
f 145/3/4 144/3/4 146/3/4
f 147/3/4 148/3/4 149/3/4
f 149/3/4 148/3/4 150/3/4
f 151/3/4 152/3/4 153/3/4
f 153/3/4 152/3/4 154/3/4
f 158/1/5 156/1/5 155/1/5
f 159/1/5 156/1/5 158/1/5
f 159/1/5 158/1/5 157/1/5
f 160/1/5 156/1/5 159/1/5
f 161/1/5 159/1/5 157/1/5
f 162/1/5 159/1/5 161/1/5
f 166/2/5 164/2/5 163/2/5
f 167/2/5 164/2/5 166/2/5
f 170/2/5 166/2/5 165/2/5
f 170/2/5 168/2/5 167/2/5
f 170/2/5 167/2/5 166/2/5
f 171/2/5 168/2/5 170/2/5
f 173/3/5 170/3/5 169/3/5
f 173/2/5 171/2/5 170/2/5
f 174/3/5 172/3/5 171/3/5
f 174/2/5 171/2/5 173/2/5
f 175/3/5 173/3/5 169/3/5
f 175/3/5 174/3/5 173/3/5
f 176/3/5 174/3/5 175/3/5
f 177/3/5 174/3/5 176/3/5
f 178/3/5 174/3/5 177/3/5
f 179/3/5 172/3/5 174/3/5
f 179/3/5 174/3/5 178/3/5
f 180/3/5 177/3/5 176/3/5
f 181/4/5 178/4/5 177/4/5
f 181/3/5 177/3/5 180/3/5
f 182/4/5 178/4/5 181/4/5
f 187/1/5 184/1/5 183/1/5
f 188/1/5 184/1/5 187/1/5
f 190/3/5 186/3/5 185/3/5
f 191/3/5 186/3/5 190/3/5
f 193/3/5 190/3/5 189/3/5
f 193/3/5 192/3/5 191/3/5
f 193/3/5 191/3/5 190/3/5
f 194/3/5 192/3/5 193/3/5
f 195/3/5 192/3/5 194/3/5
f 196/3/5 192/3/5 195/3/5
f 197/3/5 195/3/5 194/3/5
f 198/3/5 195/3/5 197/3/5
f 199/1/6 200/1/6 201/1/6
f 201/1/6 200/1/6 202/1/6
f 203/2/6 204/2/6 206/2/6
f 206/2/6 204/2/6 207/2/6
f 205/2/6 206/2/6 210/2/6
f 207/2/6 208/2/6 210/2/6
f 206/2/6 207/2/6 210/2/6
f 210/2/6 208/2/6 211/2/6
f 209/3/6 210/3/6 213/3/6
f 210/2/6 211/2/6 213/2/6
f 211/3/6 212/3/6 214/3/6
f 213/2/6 211/2/6 214/2/6
f 209/3/6 213/3/6 215/3/6
f 213/3/6 214/3/6 215/3/6
f 215/3/6 214/3/6 216/3/6
f 216/3/6 214/3/6 217/3/6
f 217/3/6 214/3/6 218/3/6
f 214/3/6 212/3/6 219/3/6
f 218/3/6 214/3/6 219/3/6
f 219/3/6 212/3/6 220/3/6
f 216/3/6 217/3/6 221/3/6
f 217/4/6 218/4/6 222/4/6
f 221/3/6 217/3/6 222/3/6
f 218/3/6 219/3/6 223/3/6
f 222/4/6 218/4/6 223/4/6
f 223/3/6 219/3/6 224/3/6
f 225/3/6 226/3/6 228/3/6
f 228/3/6 226/3/6 229/3/6
f 227/3/6 228/3/6 231/3/6
f 229/3/6 230/3/6 231/3/6
f 228/3/6 229/3/6 231/3/6
f 231/3/6 230/3/6 232/3/6
f 232/3/6 230/3/6 233/3/6
f 233/3/6 230/3/6 234/3/6
f 232/3/6 233/3/6 235/3/6
f 235/3/6 233/3/6 236/3/6
f 237/1/6 238/1/6 239/1/6
f 239/1/6 238/1/6 240/1/6
