# MagicaVoxel @ Ephtracy

# group
o 

# material
mtllib male-10.mtl
usemtl palette

# normals
vn -1 0 0
vn 1 0 0
vn 0 0 1
vn 0 0 -1
vn 0 -1 0
vn 0 1 0

# texcoords
vt 0.0292969 0.5
vt 0.0566406 0.5
vt 0.341797 0.5
vt 0.509766 0.5

# verts
v -0.6 0.3 0.2
v -0.6 0.3 -0.2
v -0.6 0.9 0.2
v -0.6 0.9 -0.2
v -0.5 -2.23517e-008 0.2
v -0.5 -2.23517e-008 -0.2
v -0.5 0.1 -2.98023e-008
v -0.5 0.1 -0.2
v -0.5 0.2 0.1
v -0.5 0.2 -2.98023e-008
v -0.5 0.3 0.3
v -0.5 0.3 0.2
v -0.5 0.3 0.1
v -0.5 0.3 -0.2
v -0.5 0.3 -0.3
v -0.5 0.9 0.3
v -0.5 0.9 0.2
v -0.5 0.9 -0.2
v -0.5 0.9 -0.3
v -0.5 1 0.2
v -0.5 1 -0.2
v -0.4 -2.23517e-008 0.3
v -0.4 -2.23517e-008 0.2
v -0.4 -2.23517e-008 -0.2
v -0.4 -2.23517e-008 -0.3
v -0.4 0.1 0.3
v -0.4 0.1 0.2
v -0.4 0.1 -0.2
v -0.4 0.1 -0.3
v -0.4 0.2 0.3
v -0.4 0.2 0.2
v -0.4 0.3 0.3
v -0.4 0.3 0.2
v -0.4 0.3 -0.2
v -0.4 0.3 -0.3
v -0.0999999 0.9 0.1
v -0.0999999 0.9 -0.1
v -0.0999999 1 0.1
v -0.0999999 1 -0.1
v 0.1 0.8 0.3
v 0.1 0.8 0.2
v 0.1 0.9 0.3
v 0.1 0.9 0.2
v 0.2 0.9 0.2
v 0.2 0.9 -0.2
v 0.2 1 0.2
v 0.2 1 -0.2
v -0.2 0.9 0.2
v -0.2 0.9 -0.2
v -0.2 1 0.2
v -0.2 1 -0.2
v -0.0999999 0.8 0.3
v -0.0999999 0.8 0.2
v -0.0999999 0.9 0.3
v -0.0999999 0.9 0.2
v 0.1 0.9 0.1
v 0.1 0.9 -0.1
v 0.1 1 0.1
v 0.1 1 -0.1
v 0.4 -2.23517e-008 0.3
v 0.4 -2.23517e-008 0.2
v 0.4 -2.23517e-008 -0.2
v 0.4 -2.23517e-008 -0.3
v 0.4 0.1 0.3
v 0.4 0.1 0.2
v 0.4 0.1 -0.2
v 0.4 0.1 -0.3
v 0.4 0.3 0.3
v 0.4 0.3 0.2
v 0.4 0.3 -0.2
v 0.4 0.3 -0.3
v 0.5 -2.23517e-008 0.2
v 0.5 -2.23517e-008 -0.2
v 0.5 0.1 0.2
v 0.5 0.1 -0.2
v 0.5 0.3 0.3
v 0.5 0.3 0.2
v 0.5 0.3 -0.2
v 0.5 0.3 -0.3
v 0.5 0.9 0.3
v 0.5 0.9 0.2
v 0.5 0.9 -0.2
v 0.5 0.9 -0.3
v 0.5 1 0.2
v 0.5 1 -0.2
v 0.6 0.3 0.2
v 0.6 0.3 -0.2
v 0.6 0.9 0.2
v 0.6 0.9 -0.2
v -0.5 0.3 0.3
v -0.5 0.9 0.3
v -0.4 -2.23517e-008 0.3
v -0.4 0.1 0.3
v -0.4 0.2 0.3
v -0.4 0.3 0.3
v -0.4 0.4 0.3
v -0.3 0.2 0.3
v -0.3 0.3 0.3
v -0.3 0.4 0.3
v -0.3 0.5 0.3
v -0.3 0.8 0.3
v -0.3 0.9 0.3
v -0.2 0.3 0.3
v -0.2 0.4 0.3
v -0.2 0.5 0.3
v -0.2 0.6 0.3
v -0.2 0.7 0.3
v -0.2 0.8 0.3
v -0.0999999 0.4 0.3
v -0.0999999 0.5 0.3
v -0.0999999 0.6 0.3
v -0.0999999 0.7 0.3
v -0.0999999 0.8 0.3
v -0.0999999 0.9 0.3
v 5.96046e-008 0.5 0.3
v 5.96046e-008 0.6 0.3
v 0.1 0.6 0.3
v 0.1 0.7 0.3
v 0.1 0.8 0.3
v 0.1 0.9 0.3
v 0.2 0.7 0.3
v 0.2 0.8 0.3
v 0.3 0.8 0.3
v 0.3 0.9 0.3
v 0.4 -2.23517e-008 0.3
v 0.4 0.1 0.3
v 0.4 0.3 0.3
v 0.5 0.3 0.3
v 0.5 0.9 0.3
v -0.6 0.3 0.2
v -0.6 0.9 0.2
v -0.5 -2.23517e-008 0.2
v -0.5 0.3 0.2
v -0.5 0.9 0.2
v -0.5 1 0.2
v -0.4 -2.23517e-008 0.2
v -0.4 0.1 0.2
v -0.4 0.2 0.2
v -0.4 0.3 0.2
v -0.4 0.9 0.2
v -0.4 1 0.2
v -0.3 0.9 0.2
v -0.2 0.9 0.2
v -0.2 1 0.2
v -0.0999999 0.8 0.2
v -0.0999999 0.9 0.2
v 0.1 0.8 0.2
v 0.1 0.9 0.2
v 0.2 0.9 0.2
v 0.2 1 0.2
v 0.3 0.9 0.2
v 0.4 -2.23517e-008 0.2
v 0.4 0.1 0.2
v 0.4 0.3 0.2
v 0.4 0.9 0.2
v 0.4 1 0.2
v 0.5 -2.23517e-008 0.2
v 0.5 0.1 0.2
v 0.5 0.3 0.2
v 0.5 0.9 0.2
v 0.5 1 0.2
v 0.6 0.3 0.2
v 0.6 0.9 0.2
v -0.0999999 0.9 0.1
v -0.0999999 1 0.1
v 0.1 0.9 0.1
v 0.1 1 0.1
v -0.0999999 0.9 -0.1
v -0.0999999 1 -0.1
v 0.1 0.9 -0.1
v 0.1 1 -0.1
v -0.6 0.3 -0.2
v -0.6 0.9 -0.2
v -0.5 -2.23517e-008 -0.2
v -0.5 0.1 -0.2
v -0.5 0.3 -0.2
v -0.5 0.9 -0.2
v -0.5 1 -0.2
v -0.4 -2.23517e-008 -0.2
v -0.4 0.1 -0.2
v -0.4 0.3 -0.2
v -0.4 0.9 -0.2
v -0.4 1 -0.2
v -0.2 0.9 -0.2
v -0.2 1 -0.2
v 0.2 0.9 -0.2
v 0.2 1 -0.2
v 0.4 -2.23517e-008 -0.2
v 0.4 0.1 -0.2
v 0.4 0.3 -0.2
v 0.4 0.9 -0.2
v 0.4 1 -0.2
v 0.5 -2.23517e-008 -0.2
v 0.5 0.1 -0.2
v 0.5 0.3 -0.2
v 0.5 0.9 -0.2
v 0.5 1 -0.2
v 0.6 0.3 -0.2
v 0.6 0.9 -0.2
v -0.5 0.3 -0.3
v -0.5 0.9 -0.3
v -0.4 -2.23517e-008 -0.3
v -0.4 0.1 -0.3
v -0.4 0.3 -0.3
v -0.2 0.8 -0.3
v -0.2 0.9 -0.3
v 0.2 0.8 -0.3
v 0.2 0.9 -0.3
v 0.4 -2.23517e-008 -0.3
v 0.4 0.1 -0.3
v 0.4 0.3 -0.3
v 0.5 0.3 -0.3
v 0.5 0.9 -0.3
v -0.4 -2.23517e-008 0.3
v 0.4 -2.23517e-008 0.3
v -0.5 -2.23517e-008 0.2
v -0.4 -2.23517e-008 0.2
v 0.4 -2.23517e-008 0.2
v 0.5 -2.23517e-008 0.2
v -0.5 -2.23517e-008 -0.2
v -0.4 -2.23517e-008 -0.2
v 0.4 -2.23517e-008 -0.2
v 0.5 -2.23517e-008 -0.2
v -0.4 -2.23517e-008 -0.3
v 0.4 -2.23517e-008 -0.3
v -0.5 0.3 0.3
v -0.4 0.3 0.3
v 0.4 0.3 0.3
v 0.5 0.3 0.3
v -0.6 0.3 0.2
v -0.5 0.3 0.2
v -0.4 0.3 0.2
v 0.4 0.3 0.2
v 0.5 0.3 0.2
v 0.6 0.3 0.2
v -0.5 0.3 0.1
v -0.6 0.3 -0.2
v -0.5 0.3 -0.2
v -0.4 0.3 -0.2
v 0.4 0.3 -0.2
v 0.5 0.3 -0.2
v 0.6 0.3 -0.2
v -0.5 0.3 -0.3
v -0.4 0.3 -0.3
v 0.4 0.3 -0.3
v 0.5 0.3 -0.3
v -0.0999999 0.8 0.3
v 0.1 0.8 0.3
v -0.0999999 0.8 0.2
v 0.1 0.8 0.2
v -0.5 0.9 0.3
v -0.3 0.9 0.3
v -0.0999999 0.9 0.3
v 0.1 0.9 0.3
v 0.3 0.9 0.3
v 0.5 0.9 0.3
v -0.6 0.9 0.2
v -0.5 0.9 0.2
v -0.4 0.9 0.2
v -0.3 0.9 0.2
v -0.2 0.9 0.2
v -0.0999999 0.9 0.2
v 0.1 0.9 0.2
v 0.2 0.9 0.2
v 0.3 0.9 0.2
v 0.4 0.9 0.2
v 0.5 0.9 0.2
v 0.6 0.9 0.2
v -0.0999999 0.9 0.1
v 0.1 0.9 0.1
v -0.0999999 0.9 -0.1
v 0.1 0.9 -0.1
v -0.6 0.9 -0.2
v -0.5 0.9 -0.2
v -0.4 0.9 -0.2
v -0.2 0.9 -0.2
v 0.2 0.9 -0.2
v 0.4 0.9 -0.2
v 0.5 0.9 -0.2
v 0.6 0.9 -0.2
v -0.5 0.9 -0.3
v -0.2 0.9 -0.3
v 0.2 0.9 -0.3
v 0.5 0.9 -0.3
v -0.5 1 0.2
v -0.4 1 0.2
v -0.2 1 0.2
v 0.2 1 0.2
v 0.4 1 0.2
v 0.5 1 0.2
v -0.0999999 1 0.1
v 0.1 1 0.1
v -0.0999999 1 -0.1
v 0.1 1 -0.1
v -0.5 1 -0.2
v -0.4 1 -0.2
v -0.2 1 -0.2
v 0.2 1 -0.2
v 0.4 1 -0.2
v 0.5 1 -0.2

# faces
f 3/3/1 2/3/1 1/3/1
f 4/3/1 2/3/1 3/3/1
f 7/4/1 6/4/1 5/4/1
f 8/4/1 6/4/1 7/4/1
f 9/4/1 7/4/1 5/4/1
f 10/3/1 8/3/1 7/3/1
f 10/4/1 7/4/1 9/4/1
f 12/4/1 9/4/1 5/4/1
f 13/3/1 10/3/1 9/3/1
f 13/4/1 9/4/1 12/4/1
f 14/3/1 8/3/1 10/3/1
f 14/3/1 10/3/1 13/3/1
f 16/3/1 12/3/1 11/3/1
f 17/3/1 12/3/1 16/3/1
f 18/3/1 15/3/1 14/3/1
f 19/3/1 15/3/1 18/3/1
f 20/3/1 18/3/1 17/3/1
f 21/3/1 18/3/1 20/3/1
f 26/4/1 23/4/1 22/4/1
f 27/4/1 23/4/1 26/4/1
f 28/4/1 25/4/1 24/4/1
f 29/4/1 25/4/1 28/4/1
f 30/3/1 27/3/1 26/3/1
f 31/3/1 27/3/1 30/3/1
f 32/4/1 31/4/1 30/4/1
f 33/4/1 31/4/1 32/4/1
f 34/3/1 29/3/1 28/3/1
f 35/3/1 29/3/1 34/3/1
f 38/1/1 37/1/1 36/1/1
f 39/1/1 37/1/1 38/1/1
f 42/4/1 41/4/1 40/4/1
f 43/4/1 41/4/1 42/4/1
f 46/4/1 45/4/1 44/4/1
f 47/4/1 45/4/1 46/4/1
f 48/4/2 49/4/2 50/4/2
f 50/4/2 49/4/2 51/4/2
f 52/4/2 53/4/2 54/4/2
f 54/4/2 53/4/2 55/4/2
f 56/1/2 57/1/2 58/1/2
f 58/1/2 57/1/2 59/1/2
f 60/4/2 61/4/2 64/4/2
f 64/4/2 61/4/2 65/4/2
f 62/4/2 63/4/2 66/4/2
f 66/4/2 63/4/2 67/4/2
f 64/3/2 65/3/2 68/3/2
f 68/3/2 65/3/2 69/3/2
f 66/3/2 67/3/2 70/3/2
f 70/3/2 67/3/2 71/3/2
f 72/4/2 73/4/2 74/4/2
f 74/4/2 73/4/2 75/4/2
f 74/3/2 75/3/2 77/3/2
f 77/3/2 75/3/2 78/3/2
f 76/3/2 77/3/2 80/3/2
f 80/3/2 77/3/2 81/3/2
f 78/3/2 79/3/2 82/3/2
f 82/3/2 79/3/2 83/3/2
f 81/3/2 82/3/2 84/3/2
f 84/3/2 82/3/2 85/3/2
f 86/3/2 87/3/2 88/3/2
f 88/3/2 87/3/2 89/3/2
f 95/3/3 91/3/3 90/3/3
f 96/3/3 91/3/3 95/3/3
f 97/3/3 94/3/3 93/3/3
f 97/4/3 95/4/3 94/4/3
f 97/4/3 96/4/3 95/4/3
f 98/4/3 96/4/3 97/4/3
f 99/3/3 91/3/3 96/3/3
f 99/4/3 96/4/3 98/4/3
f 100/3/3 91/3/3 99/3/3
f 101/3/3 91/3/3 100/3/3
f 102/3/3 91/3/3 101/3/3
f 103/3/3 98/3/3 97/3/3
f 103/4/3 99/4/3 98/4/3
f 103/4/3 100/4/3 99/4/3
f 104/4/3 100/4/3 103/4/3
f 105/3/3 101/3/3 100/3/3
f 105/4/3 100/4/3 104/4/3
f 106/3/3 101/3/3 105/3/3
f 107/3/3 101/3/3 106/3/3
f 108/4/3 102/4/3 101/4/3
f 108/3/3 101/3/3 107/3/3
f 109/3/3 104/3/3 103/3/3
f 109/4/3 105/4/3 104/4/3
f 109/4/3 106/4/3 105/4/3
f 110/4/3 106/4/3 109/4/3
f 111/3/3 107/3/3 106/3/3
f 111/4/3 106/4/3 110/4/3
f 112/4/3 108/4/3 107/4/3
f 112/3/3 107/3/3 111/3/3
f 113/4/3 102/4/3 108/4/3
f 113/4/3 108/4/3 112/4/3
f 114/4/3 102/4/3 113/4/3
f 115/3/3 110/3/3 109/3/3
f 115/4/3 112/4/3 111/4/3
f 115/4/3 113/4/3 112/4/3
f 115/4/3 111/4/3 110/4/3
f 116/4/3 113/4/3 115/4/3
f 117/3/3 116/3/3 115/3/3
f 117/4/3 113/4/3 116/4/3
f 118/4/3 113/4/3 117/4/3
f 119/4/3 113/4/3 118/4/3
f 121/3/3 118/3/3 117/3/3
f 121/4/3 120/4/3 119/4/3
f 121/4/3 119/4/3 118/4/3
f 122/4/3 120/4/3 121/4/3
f 123/3/3 122/3/3 121/3/3
f 123/4/3 120/4/3 122/4/3
f 124/4/3 120/4/3 123/4/3
f 125/4/3 93/4/3 92/4/3
f 126/3/3 97/3/3 93/3/3
f 126/4/3 93/4/3 125/4/3
f 126/3/3 109/3/3 103/3/3
f 126/3/3 124/3/3 123/3/3
f 126/3/3 123/3/3 121/3/3
f 126/3/3 121/3/3 117/3/3
f 126/3/3 117/3/3 115/3/3
f 126/3/3 115/3/3 109/3/3
f 126/3/3 103/3/3 97/3/3
f 127/3/3 124/3/3 126/3/3
f 128/3/3 124/3/3 127/3/3
f 129/3/3 124/3/3 128/3/3
f 133/3/3 131/3/3 130/3/3
f 134/3/3 131/3/3 133/3/3
f 136/4/3 133/4/3 132/4/3
f 137/4/3 133/4/3 136/4/3
f 138/4/3 133/4/3 137/4/3
f 139/4/3 133/4/3 138/4/3
f 140/3/3 135/3/3 134/3/3
f 141/3/3 135/3/3 140/3/3
f 142/4/3 141/4/3 140/4/3
f 143/4/3 141/4/3 142/4/3
f 144/4/3 141/4/3 143/4/3
f 147/1/3 146/1/3 145/1/3
f 148/1/3 146/1/3 147/1/3
f 151/4/3 150/4/3 149/4/3
f 155/4/3 150/4/3 151/4/3
f 156/4/3 150/4/3 155/4/3
f 157/4/3 153/4/3 152/4/3
f 158/3/3 154/3/3 153/3/3
f 158/4/3 153/4/3 157/4/3
f 159/3/3 154/3/3 158/3/3
f 160/3/3 156/3/3 155/3/3
f 161/3/3 156/3/3 160/3/3
f 162/3/3 160/3/3 159/3/3
f 163/3/3 160/3/3 162/3/3
f 166/1/3 165/1/3 164/1/3
f 167/1/3 165/1/3 166/1/3
f 168/1/4 169/1/4 170/1/4
f 170/1/4 169/1/4 171/1/4
f 172/3/4 173/3/4 176/3/4
f 176/3/4 173/3/4 177/3/4
f 174/4/4 175/4/4 179/4/4
f 175/3/4 176/3/4 180/3/4
f 179/4/4 175/4/4 180/4/4
f 180/3/4 176/3/4 181/3/4
f 177/3/4 178/3/4 182/3/4
f 182/3/4 178/3/4 183/3/4
f 182/4/4 183/4/4 184/4/4
f 184/4/4 183/4/4 185/4/4
f 186/4/4 187/4/4 191/4/4
f 191/4/4 187/4/4 192/4/4
f 188/4/4 189/4/4 193/4/4
f 189/3/4 190/3/4 194/3/4
f 193/4/4 189/4/4 194/4/4
f 194/3/4 190/3/4 195/3/4
f 191/3/4 192/3/4 196/3/4
f 196/3/4 192/3/4 197/3/4
f 195/3/4 196/3/4 198/3/4
f 198/3/4 196/3/4 199/3/4
f 200/3/4 201/3/4 204/3/4
f 204/3/4 201/3/4 205/3/4
f 203/3/4 204/3/4 205/3/4
f 205/3/4 201/3/4 206/3/4
f 203/3/4 205/3/4 207/3/4
f 205/4/4 206/4/4 207/4/4
f 207/4/4 206/4/4 208/4/4
f 202/4/4 203/4/4 209/4/4
f 203/3/4 207/3/4 210/3/4
f 209/4/4 203/4/4 210/4/4
f 207/3/4 208/3/4 210/3/4
f 210/3/4 208/3/4 211/3/4
f 211/3/4 208/3/4 212/3/4
f 212/3/4 208/3/4 213/3/4
f 217/4/5 215/4/5 214/4/5
f 218/4/5 215/4/5 217/4/5
f 220/4/5 217/4/5 216/4/5
f 221/1/5 218/1/5 217/1/5
f 221/4/5 217/4/5 220/4/5
f 222/4/5 219/4/5 218/4/5
f 222/1/5 218/1/5 221/1/5
f 223/4/5 219/4/5 222/4/5
f 224/4/5 222/4/5 221/4/5
f 225/4/5 222/4/5 224/4/5
f 231/3/5 227/3/5 226/3/5
f 232/3/5 227/3/5 231/3/5
f 233/3/5 229/3/5 228/3/5
f 234/3/5 229/3/5 233/3/5
f 236/3/5 231/3/5 230/3/5
f 237/3/5 236/3/5 230/3/5
f 238/3/5 236/3/5 237/3/5
f 241/3/5 235/3/5 234/3/5
f 242/3/5 235/3/5 241/3/5
f 243/3/5 239/3/5 238/3/5
f 244/3/5 239/3/5 243/3/5
f 245/3/5 241/3/5 240/3/5
f 246/3/5 241/3/5 245/3/5
f 247/4/6 248/4/6 249/4/6
f 249/4/6 248/4/6 250/4/6
f 251/3/6 252/3/6 258/3/6
f 258/3/6 252/3/6 259/3/6
f 252/4/6 253/4/6 260/4/6
f 259/3/6 252/3/6 260/3/6
f 260/4/6 253/4/6 261/4/6
f 261/4/6 253/4/6 262/4/6
f 254/4/6 255/4/6 263/4/6
f 263/4/6 255/4/6 264/4/6
f 255/3/6 256/3/6 265/3/6
f 264/4/6 255/4/6 265/4/6
f 265/3/6 256/3/6 266/3/6
f 266/3/6 256/3/6 267/3/6
f 263/1/6 264/1/6 269/1/6
f 262/1/6 263/1/6 269/1/6
f 261/1/6 262/1/6 269/1/6
f 269/1/6 264/1/6 270/1/6
f 261/1/6 269/1/6 271/1/6
f 270/1/6 264/1/6 272/1/6
f 257/3/6 258/3/6 273/3/6
f 273/3/6 258/3/6 274/3/6
f 271/1/6 272/1/6 276/1/6
f 261/1/6 271/1/6 276/1/6
f 272/1/6 264/1/6 277/1/6
f 276/1/6 272/1/6 277/1/6
f 267/3/6 268/3/6 279/3/6
f 279/3/6 268/3/6 280/3/6
f 274/3/6 275/3/6 281/3/6
f 275/3/6 276/3/6 281/3/6
f 276/4/6 277/4/6 282/4/6
f 281/3/6 276/3/6 282/3/6
f 277/3/6 278/3/6 283/3/6
f 282/4/6 277/4/6 283/4/6
f 278/3/6 279/3/6 283/3/6
f 283/3/6 279/3/6 284/3/6
f 291/1/6 292/1/6 293/1/6
f 293/1/6 292/1/6 294/1/6
f 285/3/6 286/3/6 295/3/6
f 286/4/6 287/4/6 296/4/6
f 295/3/6 286/3/6 296/3/6
f 296/4/6 287/4/6 297/4/6
f 288/4/6 289/4/6 298/4/6
f 289/3/6 290/3/6 299/3/6
f 298/4/6 289/4/6 299/4/6
f 299/3/6 290/3/6 300/3/6
