# MagicaVoxel @ Ephtracy

# group
o 

# material
mtllib male-53.mtl
usemtl palette

# normals
vn -1 0 0
vn 1 0 0
vn 0 0 1
vn 0 0 -1
vn 0 -1 0
vn 0 1 0

# texcoords
vt 0.0292969 0.5

# verts
v -0.4 -0.2 0.2
v -0.4 -0.2 -0.2
v -0.4 0.0999999 0.2
v -0.4 0.0999999 -0.2
v -0.2 -0.2 0.3
v -0.2 -0.2 0.2
v -0.2 -0.1 0.3
v -0.2 -0.1 0.2
v -0.2 -0.1 -0.2
v -0.2 -5.96046e-008 0.2
v -0.2 -5.96046e-008 -0.2
v -0.3 -0.1 0.2
v -0.3 -0.1 -0.2
v -0.3 -5.96046e-008 0.2
v -0.3 -5.96046e-008 -0.2
v -0.1 -0.2 0.1
v -0.1 -0.2 -0.2
v -0.1 -0.1 0.1
v -0.1 -0.1 -0.2
v 0 -0.2 0.3
v 0 -0.2 0.1
v 0 -0.1 0.3
v 0 -0.1 0.2
v 0 -0.1 0.1
v 0 -0.1 -0.2
v 0 0.0999999 0.2
v 0 0.0999999 -0.2
v -0.2 -0.2 0.3
v -0.2 -0.1 0.3
v 0 -0.2 0.3
v 0 -0.1 0.3
v -0.4 -0.2 0.2
v -0.4 0.0999999 0.2
v -0.3 -0.1 0.2
v -0.3 -5.96046e-008 0.2
v -0.2 -0.2 0.2
v -0.2 -0.1 0.2
v -0.2 -5.96046e-008 0.2
v 0 -0.1 0.2
v 0 0.0999999 0.2
v -0.1 -0.2 0.1
v -0.1 -0.1 0.1
v 0 -0.2 0.1
v 0 -0.1 0.1
v -0.4 -0.2 -0.2
v -0.4 0.0999999 -0.2
v -0.3 -0.1 -0.2
v -0.3 -5.96046e-008 -0.2
v -0.2 -0.1 -0.2
v -0.2 -5.96046e-008 -0.2
v -0.1 -0.2 -0.2
v -0.1 -0.1 -0.2
v 0 -0.1 -0.2
v 0 0.0999999 -0.2
v -0.2 -0.2 0.3
v 0 -0.2 0.3
v -0.4 -0.2 0.2
v -0.2 -0.2 0.2
v -0.1 -0.2 0.1
v 0 -0.2 0.1
v -0.4 -0.2 -0.2
v -0.1 -0.2 -0.2
v -0.1 -0.1 0.1
v 0 -0.1 0.1
v -0.1 -0.1 -0.2
v 0 -0.1 -0.2
v -0.3 -5.96046e-008 0.2
v -0.2 -5.96046e-008 0.2
v -0.3 -5.96046e-008 -0.2
v -0.2 -5.96046e-008 -0.2
v -0.2 -0.1 0.3
v 0 -0.1 0.3
v -0.3 -0.1 0.2
v -0.2 -0.1 0.2
v 0 -0.1 0.2
v -0.3 -0.1 -0.2
v -0.2 -0.1 -0.2
v -0.4 0.0999999 0.2
v 0 0.0999999 0.2
v -0.4 0.0999999 -0.2
v 0 0.0999999 -0.2

# faces
f 3/1/1 2/1/1 1/1/1
f 4/1/1 2/1/1 3/1/1
f 7/1/1 6/1/1 5/1/1
f 8/1/1 6/1/1 7/1/1
f 10/1/1 9/1/1 8/1/1
f 11/1/1 9/1/1 10/1/1
f 12/1/2 13/1/2 14/1/2
f 14/1/2 13/1/2 15/1/2
f 16/1/2 17/1/2 18/1/2
f 18/1/2 17/1/2 19/1/2
f 20/1/2 21/1/2 22/1/2
f 22/1/2 21/1/2 23/1/2
f 23/1/2 21/1/2 24/1/2
f 24/1/2 25/1/2 26/1/2
f 23/1/2 24/1/2 26/1/2
f 26/1/2 25/1/2 27/1/2
f 30/1/3 29/1/3 28/1/3
f 31/1/3 29/1/3 30/1/3
f 34/1/3 33/1/3 32/1/3
f 35/1/3 33/1/3 34/1/3
f 36/1/3 34/1/3 32/1/3
f 37/1/3 34/1/3 36/1/3
f 38/1/3 33/1/3 35/1/3
f 39/1/3 38/1/3 37/1/3
f 40/1/3 33/1/3 38/1/3
f 40/1/3 38/1/3 39/1/3
f 41/1/4 42/1/4 43/1/4
f 43/1/4 42/1/4 44/1/4
f 45/1/4 46/1/4 47/1/4
f 47/1/4 46/1/4 48/1/4
f 45/1/4 47/1/4 49/1/4
f 48/1/4 46/1/4 50/1/4
f 45/1/4 49/1/4 51/1/4
f 49/1/4 50/1/4 51/1/4
f 51/1/4 50/1/4 52/1/4
f 52/1/4 50/1/4 53/1/4
f 50/1/4 46/1/4 54/1/4
f 53/1/4 50/1/4 54/1/4
f 58/1/5 56/1/5 55/1/5
f 59/1/5 56/1/5 58/1/5
f 59/1/5 58/1/5 57/1/5
f 60/1/5 56/1/5 59/1/5
f 61/1/5 59/1/5 57/1/5
f 62/1/5 59/1/5 61/1/5
f 65/1/5 64/1/5 63/1/5
f 66/1/5 64/1/5 65/1/5
f 69/1/5 68/1/5 67/1/5
f 70/1/5 68/1/5 69/1/5
f 71/1/6 72/1/6 74/1/6
f 74/1/6 72/1/6 75/1/6
f 73/1/6 74/1/6 76/1/6
f 76/1/6 74/1/6 77/1/6
f 78/1/6 79/1/6 80/1/6
f 80/1/6 79/1/6 81/1/6
