# MagicaVoxel @ Ephtracy

# group
o 

# material
mtllib male-20.mtl
usemtl palette

# normals
vn -1 0 0
vn 1 0 0
vn 0 0 1
vn 0 0 -1
vn 0 -1 0
vn 0 1 0

# texcoords
vt 0.0292969 0.5
vt 0.341797 0.5
vt 0.509766 0.5
vt 0.978516 0.5

# verts
v -0.6 -0.5 0.2
v -0.6 -0.5 -0.2
v -0.6 -0.2 0.2
v -0.6 -0.2 -0.2
v -0.5 -0.6 0.2
v -0.5 -0.6 -0.2
v -0.5 -0.5 0.3
v -0.5 -0.5 0.2
v -0.5 -0.5 -0.2
v -0.5 -0.5 -0.3
v -0.5 -0.2 0.3
v -0.5 -0.2 0.2
v -0.5 -0.2 -0.2
v -0.5 -0.2 -0.3
v -0.5 -0.0999999 0.2
v -0.5 -0.0999999 -0.2
v -0.5 5.96046e-008 0.2
v -0.5 5.96046e-008 -0.2
v -0.4 -0.2 0.3
v -0.4 -0.2 0.2
v -0.4 -0.2 -0.2
v -0.4 -0.2 -0.3
v -0.4 -0.0999999 0.3
v -0.4 -0.0999999 0.2
v -0.4 -0.0999999 -0.2
v -0.4 -0.0999999 -0.3
v -0.4 5.96046e-008 0.3
v -0.4 5.96046e-008 0.2
v -0.4 5.96046e-008 -0.2
v -0.4 5.96046e-008 -0.3
v 0.4 -0.2 0.3
v 0.4 -0.2 0.2
v 0.4 -0.2 -0.2
v 0.4 -0.2 -0.3
v 0.4 -0.0999999 0.3
v 0.4 -0.0999999 0.2
v 0.4 -0.0999999 -0.2
v 0.4 -0.0999999 -0.3
v 0.4 5.96046e-008 0.3
v 0.4 5.96046e-008 0.2
v 0.4 5.96046e-008 -0.2
v 0.4 5.96046e-008 -0.3
v 0.5 -0.6 0.2
v 0.5 -0.6 -0.2
v 0.5 -0.5 0.3
v 0.5 -0.5 0.2
v 0.5 -0.5 -0.2
v 0.5 -0.5 -0.3
v 0.5 -0.2 0.3
v 0.5 -0.2 0.2
v 0.5 -0.2 -0.2
v 0.5 -0.2 -0.3
v 0.5 -0.0999999 0.2
v 0.5 -0.0999999 -0.2
v 0.5 5.96046e-008 0.2
v 0.5 5.96046e-008 -0.2
v 0.6 -0.5 0.2
v 0.6 -0.5 -0.2
v 0.6 -0.2 0.2
v 0.6 -0.2 -0.2
v -0.5 -0.5 0.3
v -0.5 -0.2 0.3
v -0.4 -0.2 0.3
v -0.4 -0.0999999 0.3
v -0.4 5.96046e-008 0.3
v 0.4 -0.2 0.3
v 0.4 -0.0999999 0.3
v 0.4 5.96046e-008 0.3
v 0.5 -0.5 0.3
v 0.5 -0.2 0.3
v -0.6 -0.5 0.2
v -0.6 -0.2 0.2
v -0.5 -0.6 0.2
v -0.5 -0.5 0.2
v -0.5 -0.2 0.2
v -0.5 -0.0999999 0.2
v -0.5 5.96046e-008 0.2
v -0.4 -0.2 0.2
v -0.4 -0.0999999 0.2
v -0.4 5.96046e-008 0.2
v 0.4 -0.2 0.2
v 0.4 -0.0999999 0.2
v 0.4 5.96046e-008 0.2
v 0.5 -0.6 0.2
v 0.5 -0.5 0.2
v 0.5 -0.2 0.2
v 0.5 -0.0999999 0.2
v 0.5 5.96046e-008 0.2
v 0.6 -0.5 0.2
v 0.6 -0.2 0.2
v -0.6 -0.5 -0.2
v -0.6 -0.2 -0.2
v -0.5 -0.6 -0.2
v -0.5 -0.5 -0.2
v -0.5 -0.2 -0.2
v -0.5 -0.0999999 -0.2
v -0.5 5.96046e-008 -0.2
v -0.4 -0.2 -0.2
v -0.4 -0.0999999 -0.2
v -0.4 5.96046e-008 -0.2
v 0.4 -0.2 -0.2
v 0.4 -0.0999999 -0.2
v 0.4 5.96046e-008 -0.2
v 0.5 -0.6 -0.2
v 0.5 -0.5 -0.2
v 0.5 -0.2 -0.2
v 0.5 -0.0999999 -0.2
v 0.5 5.96046e-008 -0.2
v 0.6 -0.5 -0.2
v 0.6 -0.2 -0.2
v -0.5 -0.5 -0.3
v -0.5 -0.2 -0.3
v -0.4 -0.2 -0.3
v -0.4 -0.0999999 -0.3
v -0.4 5.96046e-008 -0.3
v 0.4 -0.2 -0.3
v 0.4 -0.0999999 -0.3
v 0.4 5.96046e-008 -0.3
v 0.5 -0.5 -0.3
v 0.5 -0.2 -0.3
v -0.5 -0.6 0.2
v 0.5 -0.6 0.2
v -0.5 -0.6 -0.2
v 0.5 -0.6 -0.2
v -0.5 -0.5 0.3
v 0.5 -0.5 0.3
v -0.6 -0.5 0.2
v -0.5 -0.5 0.2
v 0.5 -0.5 0.2
v 0.6 -0.5 0.2
v -0.6 -0.5 -0.2
v -0.5 -0.5 -0.2
v 0.5 -0.5 -0.2
v 0.6 -0.5 -0.2
v -0.5 -0.5 -0.3
v 0.5 -0.5 -0.3
v -0.5 -0.2 0.3
v -0.4 -0.2 0.3
v 0.4 -0.2 0.3
v 0.5 -0.2 0.3
v -0.6 -0.2 0.2
v -0.5 -0.2 0.2
v -0.4 -0.2 0.2
v 0.4 -0.2 0.2
v 0.5 -0.2 0.2
v 0.6 -0.2 0.2
v -0.6 -0.2 -0.2
v -0.5 -0.2 -0.2
v -0.4 -0.2 -0.2
v 0.4 -0.2 -0.2
v 0.5 -0.2 -0.2
v 0.6 -0.2 -0.2
v -0.5 -0.2 -0.3
v -0.4 -0.2 -0.3
v 0.4 -0.2 -0.3
v 0.5 -0.2 -0.3
v -0.4 5.96046e-008 0.3
v 0.4 5.96046e-008 0.3
v -0.5 5.96046e-008 0.2
v -0.4 5.96046e-008 0.2
v 0.4 5.96046e-008 0.2
v 0.5 5.96046e-008 0.2
v -0.5 5.96046e-008 -0.2
v -0.4 5.96046e-008 -0.2
v 0.4 5.96046e-008 -0.2
v 0.5 5.96046e-008 -0.2
v -0.4 5.96046e-008 -0.3
v 0.4 5.96046e-008 -0.3

# faces
f 3/2/1 2/2/1 1/2/1
f 4/2/1 2/2/1 3/2/1
f 8/4/1 6/4/1 5/4/1
f 9/4/1 6/4/1 8/4/1
f 11/2/1 8/2/1 7/2/1
f 12/2/1 8/2/1 11/2/1
f 13/2/1 10/2/1 9/2/1
f 14/2/1 10/2/1 13/2/1
f 15/2/1 13/2/1 12/2/1
f 16/2/1 13/2/1 15/2/1
f 17/3/1 16/3/1 15/3/1
f 18/3/1 16/3/1 17/3/1
f 23/2/1 20/2/1 19/2/1
f 24/2/1 20/2/1 23/2/1
f 25/2/1 22/2/1 21/2/1
f 26/2/1 22/2/1 25/2/1
f 27/3/1 24/3/1 23/3/1
f 28/3/1 24/3/1 27/3/1
f 29/3/1 26/3/1 25/3/1
f 30/3/1 26/3/1 29/3/1
f 31/2/2 32/2/2 35/2/2
f 35/2/2 32/2/2 36/2/2
f 33/2/2 34/2/2 37/2/2
f 37/2/2 34/2/2 38/2/2
f 35/3/2 36/3/2 39/3/2
f 39/3/2 36/3/2 40/3/2
f 37/3/2 38/3/2 41/3/2
f 41/3/2 38/3/2 42/3/2
f 43/4/2 44/4/2 46/4/2
f 46/4/2 44/4/2 47/4/2
f 45/2/2 46/2/2 49/2/2
f 49/2/2 46/2/2 50/2/2
f 47/2/2 48/2/2 51/2/2
f 51/2/2 48/2/2 52/2/2
f 50/2/2 51/2/2 53/2/2
f 53/2/2 51/2/2 54/2/2
f 53/3/2 54/3/2 55/3/2
f 55/3/2 54/3/2 56/3/2
f 57/2/2 58/2/2 59/2/2
f 59/2/2 58/2/2 60/2/2
f 63/2/3 62/2/3 61/2/3
f 66/2/3 63/2/3 61/2/3
f 66/2/3 64/2/3 63/2/3
f 67/3/3 65/3/3 64/3/3
f 67/2/3 64/2/3 66/2/3
f 68/3/3 65/3/3 67/3/3
f 69/2/3 66/2/3 61/2/3
f 70/2/3 66/2/3 69/2/3
f 74/2/3 72/2/3 71/2/3
f 75/2/3 72/2/3 74/2/3
f 78/2/3 76/2/3 75/2/3
f 79/3/3 77/3/3 76/3/3
f 79/2/3 76/2/3 78/2/3
f 80/3/3 77/3/3 79/3/3
f 84/4/3 74/4/3 73/4/3
f 85/4/3 74/4/3 84/4/3
f 86/2/3 82/2/3 81/2/3
f 87/3/3 83/3/3 82/3/3
f 87/2/3 82/2/3 86/2/3
f 88/3/3 83/3/3 87/3/3
f 89/2/3 86/2/3 85/2/3
f 90/2/3 86/2/3 89/2/3
f 91/2/4 92/2/4 94/2/4
f 94/2/4 92/2/4 95/2/4
f 95/2/4 96/2/4 98/2/4
f 96/3/4 97/3/4 99/3/4
f 98/2/4 96/2/4 99/2/4
f 99/3/4 97/3/4 100/3/4
f 93/4/4 94/4/4 104/4/4
f 104/4/4 94/4/4 105/4/4
f 101/2/4 102/2/4 106/2/4
f 102/3/4 103/3/4 107/3/4
f 106/2/4 102/2/4 107/2/4
f 107/3/4 103/3/4 108/3/4
f 105/2/4 106/2/4 109/2/4
f 109/2/4 106/2/4 110/2/4
f 111/2/4 112/2/4 113/2/4
f 111/2/4 113/2/4 116/2/4
f 113/2/4 114/2/4 116/2/4
f 114/3/4 115/3/4 117/3/4
f 116/2/4 114/2/4 117/2/4
f 117/3/4 115/3/4 118/3/4
f 111/2/4 116/2/4 119/2/4
f 119/2/4 116/2/4 120/2/4
f 123/4/5 122/4/5 121/4/5
f 124/4/5 122/4/5 123/4/5
f 128/2/5 126/2/5 125/2/5
f 129/2/5 126/2/5 128/2/5
f 131/2/5 128/2/5 127/2/5
f 132/2/5 128/2/5 131/2/5
f 133/2/5 130/2/5 129/2/5
f 134/2/5 130/2/5 133/2/5
f 135/2/5 133/2/5 132/2/5
f 136/2/5 133/2/5 135/2/5
f 137/2/6 138/2/6 142/2/6
f 142/2/6 138/2/6 143/2/6
f 139/2/6 140/2/6 144/2/6
f 144/2/6 140/2/6 145/2/6
f 141/2/6 142/2/6 147/2/6
f 147/2/6 142/2/6 148/2/6
f 145/2/6 146/2/6 151/2/6
f 151/2/6 146/2/6 152/2/6
f 148/2/6 149/2/6 153/2/6
f 153/2/6 149/2/6 154/2/6
f 150/2/6 151/2/6 155/2/6
f 155/2/6 151/2/6 156/2/6
f 157/3/6 158/3/6 160/3/6
f 160/3/6 158/3/6 161/3/6
f 159/3/6 160/3/6 163/3/6
f 160/1/6 161/1/6 164/1/6
f 163/3/6 160/3/6 164/3/6
f 161/3/6 162/3/6 165/3/6
f 164/1/6 161/1/6 165/1/6
f 165/3/6 162/3/6 166/3/6
f 164/3/6 165/3/6 167/3/6
f 167/3/6 165/3/6 168/3/6
