# MagicaVoxel @ Ephtracy

# group
o 

# material
mtllib male-30.mtl
usemtl palette

# normals
vn -1 0 0
vn 1 0 0
vn 0 0 1
vn 0 0 -1
vn 0 -1 0
vn 0 1 0

# texcoords
vt 0.0292969 0.5
vt 0.0566406 0.5
vt 0.974609 0.5
vt 0.990234 0.5

# verts
v -0.5 0.5 0
v -0.5 0.5 -0.1
v -0.5 0.8 0
v -0.5 0.8 -0.1
v -0.4 0.3 -0.3
v -0.4 0.3 -0.4
v -0.4 0.4 0
v -0.4 0.4 -0.1
v -0.4 0.4 -0.2
v -0.4 0.4 -0.3
v -0.4 0.4 -0.4
v -0.4 0.4 -0.5
v -0.4 0.5 0
v -0.4 0.5 -0.1
v -0.4 0.5 -0.2
v -0.4 0.6 0.1
v -0.4 0.6 0
v -0.4 0.7 0.3
v -0.4 0.7 0.1
v -0.4 0.8 0.5
v -0.4 0.8 0.3
v -0.4 0.8 0
v -0.4 0.8 -0.1
v -0.4 0.9 0.5
v -0.4 0.9 0.3
v -0.4 0.9 -0.4
v -0.4 0.9 -0.5
v -0.4 1 0.3
v -0.4 1 -0.4
v -0.3 0.2 0.4
v -0.3 0.2 0
v -0.3 0.2 -0.3
v -0.3 0.2 -0.4
v -0.3 0.3 0
v -0.3 0.3 -0.1
v -0.3 0.3 -0.2
v -0.3 0.3 -0.3
v -0.3 0.3 -0.4
v -0.3 0.3 -0.5
v -0.3 0.4 0
v -0.3 0.4 -0.1
v -0.3 0.4 -0.2
v -0.3 0.4 -0.3
v -0.3 0.4 -0.4
v -0.3 0.4 -0.5
v -0.3 0.4 -0.6
v -0.3 0.5 -0.1
v -0.3 0.5 -0.2
v -0.3 0.6 0.1
v -0.3 0.6 0
v -0.3 0.7 0.3
v -0.3 0.7 0.1
v -0.3 0.8 0.4
v -0.3 0.8 0.3
v -0.3 0.9 0.5
v -0.3 0.9 0.3
v -0.3 0.9 -0.4
v -0.3 0.9 -0.5
v -0.3 0.9 -0.6
v -0.3 1 0.5
v -0.3 1 0.3
v -0.3 1 -0.4
v -0.3 1 -0.5
v -0.3 1.1 0.3
v -0.3 1.1 -0.4
v -0.2 0.0999999 0.4
v -0.2 0.0999999 -0.2
v -0.2 0.2 0.4
v -0.2 0.2 0
v -0.2 0.2 -0.2
v -0.2 0.2 -0.3
v -0.2 0.3 0
v -0.2 0.3 -0.1
v -0.2 0.3 -0.2
v -0.2 0.3 -0.3
v -0.2 0.4 -0.1
v -0.2 0.4 -0.2
v -0.1 -1.41561e-007 0.1
v -0.1 -1.41561e-007 -0.1
v -0.1 0.0999999 0.1
v -0.1 0.0999999 -0.1
v -0.1 0.4 0.5
v -0.1 0.4 0.4
v -0.1 0.5 0.5
v -0.1 0.5 0.4
v -0.1 1.1 -0.1
v -0.1 1.1 -0.3
v -0.1 1.3 -0.3
v -0.1 1.3 -0.4
v -0.1 1.4 -0.1
v -0.1 1.4 -0.4
v 0.1 0.9 0.5
v 0.1 0.9 0.4
v 0.1 1 0.5
v 0.1 1 0.4
v 0.3 0.8 0.5
v 0.3 0.8 0.4
v 0.3 0.9 0.5
v 0.3 0.9 0.4
v -0.3 0.8 0.5
v -0.3 0.8 0.4
v -0.3 0.9 0.5
v -0.3 0.9 0.4
v -0.1 0.9 0.5
v -0.1 0.9 0.4
v -0.1 1 0.5
v -0.1 1 0.4
v 0.1 -1.41561e-007 0.1
v 0.1 -1.41561e-007 -0.1
v 0.1 0.0999999 0.1
v 0.1 0.0999999 -0.1
v 0.1 0.4 0.5
v 0.1 0.4 0.4
v 0.1 0.5 0.5
v 0.1 0.5 0.4
v 0.1 1.1 -0.1
v 0.1 1.1 -0.3
v 0.1 1.3 -0.3
v 0.1 1.3 -0.4
v 0.1 1.4 -0.1
v 0.1 1.4 -0.4
v 0.2 0.0999999 0.4
v 0.2 0.0999999 -0.2
v 0.2 0.2 0.4
v 0.2 0.2 0
v 0.2 0.2 -0.2
v 0.2 0.2 -0.3
v 0.2 0.3 0
v 0.2 0.3 -0.3
v 0.3 0.2 0.4
v 0.3 0.2 0
v 0.3 0.2 -0.3
v 0.3 0.2 -0.4
v 0.3 0.3 0
v 0.3 0.3 -0.3
v 0.3 0.3 -0.4
v 0.3 0.3 -0.5
v 0.3 0.4 0
v 0.3 0.4 -0.1
v 0.3 0.4 -0.2
v 0.3 0.4 -0.3
v 0.3 0.4 -0.4
v 0.3 0.4 -0.5
v 0.3 0.4 -0.6
v 0.3 0.5 -0.1
v 0.3 0.5 -0.2
v 0.3 0.6 0.1
v 0.3 0.6 0
v 0.3 0.7 0.3
v 0.3 0.7 0.1
v 0.3 0.8 0.4
v 0.3 0.8 0.3
v 0.3 0.9 0.5
v 0.3 0.9 0.3
v 0.3 0.9 -0.4
v 0.3 0.9 -0.5
v 0.3 0.9 -0.6
v 0.3 1 0.5
v 0.3 1 0.3
v 0.3 1 -0.4
v 0.3 1 -0.5
v 0.3 1.1 0.3
v 0.3 1.1 -0.4
v 0.4 0.3 -0.3
v 0.4 0.3 -0.4
v 0.4 0.4 0
v 0.4 0.4 -0.1
v 0.4 0.4 -0.2
v 0.4 0.4 -0.3
v 0.4 0.4 -0.4
v 0.4 0.4 -0.5
v 0.4 0.5 0
v 0.4 0.5 -0.1
v 0.4 0.5 -0.2
v 0.4 0.6 0.1
v 0.4 0.6 0
v 0.4 0.7 0.3
v 0.4 0.7 0.1
v 0.4 0.8 0.5
v 0.4 0.8 0.3
v 0.4 0.8 0
v 0.4 0.8 -0.1
v 0.4 0.9 0.5
v 0.4 0.9 0.3
v 0.4 0.9 -0.4
v 0.4 0.9 -0.5
v 0.4 1 0.3
v 0.4 1 -0.4
v 0.5 0.5 0
v 0.5 0.5 -0.1
v 0.5 0.8 0
v 0.5 0.8 -0.1
v -0.4 0.8 0.5
v -0.4 0.9 0.5
v -0.3 0.8 0.5
v -0.3 0.9 0.5
v -0.3 1 0.5
v -0.1 0.4 0.5
v -0.1 0.5 0.5
v -0.1 0.9 0.5
v -0.1 1 0.5
v 0.1 0.4 0.5
v 0.1 0.5 0.5
v 0.1 0.9 0.5
v 0.1 1 0.5
v 0.3 0.8 0.5
v 0.3 0.9 0.5
v 0.3 1 0.5
v 0.4 0.8 0.5
v 0.4 0.9 0.5
v -0.3 0.2 0.4
v -0.3 0.8 0.4
v -0.3 0.9 0.4
v -0.2 0.0999999 0.4
v -0.2 0.2 0.4
v -0.2 0.5 0.4
v -0.2 0.6 0.4
v -0.2 0.7 0.4
v -0.1 0.2 0.4
v -0.1 0.3 0.4
v -0.1 0.4 0.4
v -0.1 0.5 0.4
v -0.1 0.6 0.4
v -0.1 0.7 0.4
v -0.1 0.9 0.4
v -0.1 1 0.4
v 0.1 0.2 0.4
v 0.1 0.3 0.4
v 0.1 0.4 0.4
v 0.1 0.5 0.4
v 0.1 0.6 0.4
v 0.1 0.7 0.4
v 0.1 0.9 0.4
v 0.1 1 0.4
v 0.2 0.0999999 0.4
v 0.2 0.2 0.4
v 0.2 0.5 0.4
v 0.2 0.6 0.4
v 0.2 0.7 0.4
v 0.3 0.2 0.4
v 0.3 0.8 0.4
v 0.3 0.9 0.4
v -0.4 0.7 0.3
v -0.4 0.8 0.3
v -0.4 0.9 0.3
v -0.4 1 0.3
v -0.3 0.7 0.3
v -0.3 0.8 0.3
v -0.3 0.9 0.3
v -0.3 1 0.3
v -0.3 1.1 0.3
v 0.3 0.7 0.3
v 0.3 0.8 0.3
v 0.3 0.9 0.3
v 0.3 1 0.3
v 0.3 1.1 0.3
v 0.4 0.7 0.3
v 0.4 0.8 0.3
v 0.4 0.9 0.3
v 0.4 1 0.3
v -0.4 0.6 0.1
v -0.4 0.7 0.1
v -0.3 0.6 0.1
v -0.3 0.7 0.1
v -0.1 -1.41561e-007 0.1
v -0.1 0.0999999 0.1
v 0.1 -1.41561e-007 0.1
v 0.1 0.0999999 0.1
v 0.3 0.6 0.1
v 0.3 0.7 0.1
v 0.4 0.6 0.1
v 0.4 0.7 0.1
v -0.5 0.5 0
v -0.5 0.8 0
v -0.4 0.4 0
v -0.4 0.5 0
v -0.4 0.6 0
v -0.4 0.8 0
v -0.3 0.4 0
v -0.3 0.6 0
v 0.3 0.4 0
v 0.3 0.6 0
v 0.4 0.4 0
v 0.4 0.5 0
v 0.4 0.6 0
v 0.4 0.8 0
v 0.5 0.5 0
v 0.5 0.8 0
v -0.1 1.1 -0.1
v -0.1 1.4 -0.1
v 0.1 1.1 -0.1
v 0.1 1.4 -0.1
v -0.4 0.4 -0.2
v -0.4 0.5 -0.2
v -0.3 0.3 -0.2
v -0.3 0.4 -0.2
v -0.3 0.5 -0.2
v -0.2 0.3 -0.2
v -0.2 0.4 -0.2
v 0.3 0.4 -0.2
v 0.3 0.5 -0.2
v 0.4 0.4 -0.2
v 0.4 0.5 -0.2
v -0.4 0.3 -0.3
v -0.4 0.4 -0.3
v -0.3 0.2 -0.3
v -0.3 0.3 -0.3
v -0.3 0.4 -0.3
v -0.2 0.2 -0.3
v -0.2 0.3 -0.3
v 0.2 0.2 -0.3
v 0.2 0.3 -0.3
v 0.3 0.2 -0.3
v 0.3 0.3 -0.3
v 0.3 0.4 -0.3
v 0.4 0.3 -0.3
v 0.4 0.4 -0.3
v -0.3 0.2 0
v -0.3 0.3 0
v -0.2 0.2 0
v -0.2 0.3 0
v 0.2 0.2 0
v 0.2 0.3 0
v 0.3 0.2 0
v 0.3 0.3 0
v -0.5 0.5 -0.1
v -0.5 0.8 -0.1
v -0.4 0.4 -0.1
v -0.4 0.5 -0.1
v -0.4 0.8 -0.1
v -0.3 0.3 -0.1
v -0.3 0.4 -0.1
v -0.3 0.5 -0.1
v -0.2 0.3 -0.1
v -0.2 0.4 -0.1
v -0.1 -1.41561e-007 -0.1
v -0.1 0.0999999 -0.1
v 0.1 -1.41561e-007 -0.1
v 0.1 0.0999999 -0.1
v 0.3 0.4 -0.1
v 0.3 0.5 -0.1
v 0.4 0.4 -0.1
v 0.4 0.5 -0.1
v 0.4 0.8 -0.1
v 0.5 0.5 -0.1
v 0.5 0.8 -0.1
v -0.2 0.0999999 -0.2
v -0.2 0.2 -0.2
v 0.2 0.0999999 -0.2
v 0.2 0.2 -0.2
v -0.1 1.1 -0.3
v -0.1 1.3 -0.3
v 0.1 1.1 -0.3
v 0.1 1.3 -0.3
v -0.4 0.3 -0.4
v -0.4 0.4 -0.4
v -0.4 0.9 -0.4
v -0.4 1 -0.4
v -0.3 0.2 -0.4
v -0.3 0.3 -0.4
v -0.3 0.4 -0.4
v -0.3 0.9 -0.4
v -0.3 1 -0.4
v -0.3 1.1 -0.4
v -0.1 1.3 -0.4
v -0.1 1.4 -0.4
v 0.1 1.3 -0.4
v 0.1 1.4 -0.4
v 0.3 0.2 -0.4
v 0.3 0.3 -0.4
v 0.3 0.4 -0.4
v 0.3 0.9 -0.4
v 0.3 1 -0.4
v 0.3 1.1 -0.4
v 0.4 0.3 -0.4
v 0.4 0.4 -0.4
v 0.4 0.9 -0.4
v 0.4 1 -0.4
v -0.4 0.4 -0.5
v -0.4 0.9 -0.5
v -0.3 0.3 -0.5
v -0.3 0.4 -0.5
v -0.3 0.9 -0.5
v -0.3 1 -0.5
v 0.3 0.3 -0.5
v 0.3 0.4 -0.5
v 0.3 0.9 -0.5
v 0.3 1 -0.5
v 0.4 0.4 -0.5
v 0.4 0.9 -0.5
v -0.3 0.4 -0.6
v -0.3 0.9 -0.6
v 0.3 0.4 -0.6
v 0.3 0.9 -0.6
v -0.1 -1.41561e-007 0.1
v 0.1 -1.41561e-007 0.1
v -0.1 -1.41561e-007 -0.1
v 0.1 -1.41561e-007 -0.1
v -0.2 0.0999999 0.4
v 0.2 0.0999999 0.4
v -0.1 0.0999999 0.1
v 0.1 0.0999999 0.1
v -0.1 0.0999999 -0.1
v 0.1 0.0999999 -0.1
v -0.2 0.0999999 -0.2
v 0.2 0.0999999 -0.2
v -0.3 0.2 0.4
v -0.2 0.2 0.4
v 0.2 0.2 0.4
v 0.3 0.2 0.4
v -0.3 0.2 0
v -0.2 0.2 0
v 0.2 0.2 0
v 0.3 0.2 0
v -0.2 0.2 -0.2
v 0.2 0.2 -0.2
v -0.3 0.2 -0.3
v -0.2 0.2 -0.3
v 0.2 0.2 -0.3
v 0.3 0.2 -0.3
v -0.3 0.2 -0.4
v 0.3 0.2 -0.4
v -0.3 0.3 0
v -0.2 0.3 0
v 0.2 0.3 0
v 0.3 0.3 0
v -0.3 0.3 -0.1
v -0.2 0.3 -0.1
v -0.3 0.3 -0.2
v -0.2 0.3 -0.2
v -0.4 0.3 -0.3
v -0.3 0.3 -0.3
v -0.2 0.3 -0.3
v 0.2 0.3 -0.3
v 0.3 0.3 -0.3
v 0.4 0.3 -0.3
v -0.4 0.3 -0.4
v -0.3 0.3 -0.4
v 0.3 0.3 -0.4
v 0.4 0.3 -0.4
v -0.3 0.3 -0.5
v 0.3 0.3 -0.5
v -0.1 0.4 0.5
v 0.1 0.4 0.5
v -0.1 0.4 0.4
v 0.1 0.4 0.4
v -0.4 0.4 0
v -0.3 0.4 0
v 0.3 0.4 0
v 0.4 0.4 0
v -0.4 0.4 -0.1
v -0.3 0.4 -0.1
v -0.2 0.4 -0.1
v 0.3 0.4 -0.1
v 0.4 0.4 -0.1
v -0.4 0.4 -0.2
v -0.3 0.4 -0.2
v -0.2 0.4 -0.2
v 0.3 0.4 -0.2
v 0.4 0.4 -0.2
v -0.4 0.4 -0.3
v -0.3 0.4 -0.3
v 0.3 0.4 -0.3
v 0.4 0.4 -0.3
v -0.4 0.4 -0.4
v -0.3 0.4 -0.4
v 0.3 0.4 -0.4
v 0.4 0.4 -0.4
v -0.4 0.4 -0.5
v -0.3 0.4 -0.5
v 0.3 0.4 -0.5
v 0.4 0.4 -0.5
v -0.3 0.4 -0.6
v 0.3 0.4 -0.6
v -0.5 0.5 0
v -0.4 0.5 0
v 0.4 0.5 0
v 0.5 0.5 0
v -0.5 0.5 -0.1
v -0.4 0.5 -0.1
v -0.3 0.5 -0.1
v 0.3 0.5 -0.1
v 0.4 0.5 -0.1
v 0.5 0.5 -0.1
v -0.4 0.5 -0.2
v -0.3 0.5 -0.2
v 0.3 0.5 -0.2
v 0.4 0.5 -0.2
v -0.4 0.6 0.1
v -0.3 0.6 0.1
v 0.3 0.6 0.1
v 0.4 0.6 0.1
v -0.4 0.6 0
v -0.3 0.6 0
v 0.3 0.6 0
v 0.4 0.6 0
v -0.4 0.7 0.3
v -0.3 0.7 0.3
v 0.3 0.7 0.3
v 0.4 0.7 0.3
v -0.4 0.7 0.1
v -0.3 0.7 0.1
v 0.3 0.7 0.1
v 0.4 0.7 0.1
v -0.4 0.8 0.5
v -0.3 0.8 0.5
v 0.3 0.8 0.5
v 0.4 0.8 0.5
v -0.3 0.8 0.4
v 0.3 0.8 0.4
v -0.4 0.8 0.3
v -0.3 0.8 0.3
v 0.3 0.8 0.3
v 0.4 0.8 0.3
v -0.3 0.9 0.5
v -0.1 0.9 0.5
v 0.1 0.9 0.5
v 0.3 0.9 0.5
v -0.3 0.9 0.4
v -0.1 0.9 0.4
v 0.1 0.9 0.4
v 0.3 0.9 0.4
v -0.1 1.3 -0.3
v 0.1 1.3 -0.3
v -0.1 1.3 -0.4
v 0.1 1.3 -0.4
v -0.1 0.5 0.5
v 0.1 0.5 0.5
v -0.1 0.5 0.4
v 0.1 0.5 0.4
v -0.5 0.8 0
v -0.4 0.8 0
v 0.4 0.8 0
v 0.5 0.8 0
v -0.5 0.8 -0.1
v -0.4 0.8 -0.1
v 0.4 0.8 -0.1
v 0.5 0.8 -0.1
v -0.4 0.9 0.5
v -0.3 0.9 0.5
v 0.3 0.9 0.5
v 0.4 0.9 0.5
v -0.4 0.9 0.3
v -0.3 0.9 0.3
v 0.3 0.9 0.3
v 0.4 0.9 0.3
v -0.4 0.9 -0.4
v -0.3 0.9 -0.4
v 0.3 0.9 -0.4
v 0.4 0.9 -0.4
v -0.4 0.9 -0.5
v -0.3 0.9 -0.5
v 0.3 0.9 -0.5
v 0.4 0.9 -0.5
v -0.3 0.9 -0.6
v 0.3 0.9 -0.6
v -0.3 1 0.5
v -0.1 1 0.5
v 0.1 1 0.5
v 0.3 1 0.5
v -0.1 1 0.4
v 0.1 1 0.4
v -0.4 1 0.3
v -0.3 1 0.3
v 0.3 1 0.3
v 0.4 1 0.3
v -0.4 1 -0.4
v -0.3 1 -0.4
v 0.3 1 -0.4
v 0.4 1 -0.4
v -0.3 1 -0.5
v 0.3 1 -0.5
v -0.3 1.1 0.3
v 0.3 1.1 0.3
v -0.1 1.1 -0.1
v 0.1 1.1 -0.1
v -0.1 1.1 -0.3
v 0.1 1.1 -0.3
v -0.3 1.1 -0.4
v 0.3 1.1 -0.4
v -0.1 1.4 -0.1
v 0.1 1.4 -0.1
v -0.1 1.4 -0.4
v 0.1 1.4 -0.4

# faces
f 3/1/1 2/1/1 1/1/1
f 4/1/1 2/1/1 3/1/1
f 10/4/1 6/4/1 5/4/1
f 11/4/1 6/4/1 10/4/1
f 13/1/1 8/1/1 7/1/1
f 14/1/1 8/1/1 13/1/1
f 15/4/1 12/4/1 11/4/1
f 15/4/1 10/4/1 9/4/1
f 15/4/1 11/4/1 10/4/1
f 19/4/1 17/4/1 16/4/1
f 21/4/1 19/4/1 18/4/1
f 22/4/1 17/4/1 19/4/1
f 22/4/1 19/4/1 21/4/1
f 23/4/1 15/4/1 14/4/1
f 24/4/1 22/4/1 21/4/1
f 24/4/1 23/4/1 22/4/1
f 24/4/1 21/4/1 20/4/1
f 25/4/1 23/4/1 24/4/1
f 26/4/1 15/4/1 23/4/1
f 26/4/1 23/4/1 25/4/1
f 26/4/1 12/4/1 15/4/1
f 27/4/1 12/4/1 26/4/1
f 28/4/1 26/4/1 25/4/1
f 29/4/1 26/4/1 28/4/1
f 34/1/1 31/1/1 30/1/1
f 37/4/1 33/4/1 32/4/1
f 38/4/1 33/4/1 37/4/1
f 40/1/1 35/1/1 34/1/1
f 40/1/1 34/1/1 30/1/1
f 41/1/1 35/1/1 40/1/1
f 42/1/1 37/1/1 36/1/1
f 43/1/1 37/1/1 42/1/1
f 44/4/1 39/4/1 38/4/1
f 45/4/1 39/4/1 44/4/1
f 47/1/1 42/1/1 41/1/1
f 48/1/1 42/1/1 47/1/1
f 49/1/1 40/1/1 30/1/1
f 50/1/1 40/1/1 49/1/1
f 51/1/1 49/1/1 30/1/1
f 52/1/1 49/1/1 51/1/1
f 53/1/1 51/1/1 30/1/1
f 54/1/1 51/1/1 53/1/1
f 58/4/1 46/4/1 45/4/1
f 59/4/1 46/4/1 58/4/1
f 60/4/1 56/4/1 55/4/1
f 61/4/1 56/4/1 60/4/1
f 62/4/1 58/4/1 57/4/1
f 63/4/1 58/4/1 62/4/1
f 64/4/1 62/4/1 61/4/1
f 65/4/1 62/4/1 64/4/1
f 68/1/1 67/1/1 66/1/1
f 69/1/1 67/1/1 68/1/1
f 70/1/1 67/1/1 69/1/1
f 72/1/1 71/1/1 70/1/1
f 72/1/1 70/1/1 69/1/1
f 73/1/1 71/1/1 72/1/1
f 74/1/1 71/1/1 73/1/1
f 75/1/1 71/1/1 74/1/1
f 76/1/1 74/1/1 73/1/1
f 77/1/1 74/1/1 76/1/1
f 80/1/1 79/1/1 78/1/1
f 81/1/1 79/1/1 80/1/1
f 84/1/1 83/1/1 82/1/1
f 85/1/1 83/1/1 84/1/1
f 88/4/1 87/4/1 86/4/1
f 90/4/1 88/4/1 86/4/1
f 90/4/1 89/4/1 88/4/1
f 91/4/1 89/4/1 90/4/1
f 94/4/1 93/4/1 92/4/1
f 95/4/1 93/4/1 94/4/1
f 98/4/1 97/4/1 96/4/1
f 99/4/1 97/4/1 98/4/1
f 100/4/2 101/4/2 102/4/2
f 102/4/2 101/4/2 103/4/2
f 104/4/2 105/4/2 106/4/2
f 106/4/2 105/4/2 107/4/2
f 108/1/2 109/1/2 110/1/2
f 110/1/2 109/1/2 111/1/2
f 112/1/2 113/1/2 114/1/2
f 114/1/2 113/1/2 115/1/2
f 116/4/2 117/4/2 118/4/2
f 116/4/2 118/4/2 120/4/2
f 118/4/2 119/4/2 120/4/2
f 120/4/2 119/4/2 121/4/2
f 122/1/2 123/1/2 124/1/2
f 124/1/2 123/1/2 125/1/2
f 125/1/2 123/1/2 126/1/2
f 126/1/2 127/1/2 128/1/2
f 125/1/2 126/1/2 128/1/2
f 128/1/2 127/1/2 129/1/2
f 130/1/2 131/1/2 134/1/2
f 132/4/2 133/4/2 135/4/2
f 135/4/2 133/4/2 136/4/2
f 130/1/2 134/1/2 138/1/2
f 134/1/2 135/1/2 138/1/2
f 138/1/2 135/1/2 139/1/2
f 139/1/2 135/1/2 140/1/2
f 140/1/2 135/1/2 141/1/2
f 136/4/2 137/4/2 142/4/2
f 142/4/2 137/4/2 143/4/2
f 139/1/2 140/1/2 145/1/2
f 145/1/2 140/1/2 146/1/2
f 130/1/2 138/1/2 147/1/2
f 147/1/2 138/1/2 148/1/2
f 130/1/2 147/1/2 149/1/2
f 149/1/2 147/1/2 150/1/2
f 130/1/2 149/1/2 151/1/2
f 151/1/2 149/1/2 152/1/2
f 143/4/2 144/4/2 156/4/2
f 156/4/2 144/4/2 157/4/2
f 153/4/2 154/4/2 158/4/2
f 158/4/2 154/4/2 159/4/2
f 155/4/2 156/4/2 160/4/2
f 160/4/2 156/4/2 161/4/2
f 159/4/2 160/4/2 162/4/2
f 162/4/2 160/4/2 163/4/2
f 164/4/2 165/4/2 169/4/2
f 169/4/2 165/4/2 170/4/2
f 166/1/2 167/1/2 172/1/2
f 172/1/2 167/1/2 173/1/2
f 170/4/2 171/4/2 174/4/2
f 168/4/2 169/4/2 174/4/2
f 169/4/2 170/4/2 174/4/2
f 175/4/2 176/4/2 178/4/2
f 177/4/2 178/4/2 180/4/2
f 178/4/2 176/4/2 181/4/2
f 180/4/2 178/4/2 181/4/2
f 173/4/2 174/4/2 182/4/2
f 180/4/2 181/4/2 183/4/2
f 181/4/2 182/4/2 183/4/2
f 179/4/2 180/4/2 183/4/2
f 183/4/2 182/4/2 184/4/2
f 182/4/2 174/4/2 185/4/2
f 184/4/2 182/4/2 185/4/2
f 174/4/2 171/4/2 185/4/2
f 185/4/2 171/4/2 186/4/2
f 184/4/2 185/4/2 187/4/2
f 187/4/2 185/4/2 188/4/2
f 189/1/2 190/1/2 191/1/2
f 191/1/2 190/1/2 192/1/2
f 195/4/3 194/4/3 193/4/3
f 196/4/3 194/4/3 195/4/3
f 200/4/3 197/4/3 196/4/3
f 201/4/3 197/4/3 200/4/3
f 202/1/3 199/1/3 198/1/3
f 203/1/3 199/1/3 202/1/3
f 207/4/3 205/4/3 204/4/3
f 208/4/3 205/4/3 207/4/3
f 209/4/3 207/4/3 206/4/3
f 210/4/3 207/4/3 209/4/3
f 215/1/3 212/1/3 211/1/3
f 215/1/3 213/1/3 212/1/3
f 216/1/3 213/1/3 215/1/3
f 217/1/3 213/1/3 216/1/3
f 218/1/3 213/1/3 217/1/3
f 219/1/3 215/1/3 214/1/3
f 219/1/3 216/1/3 215/1/3
f 220/1/3 216/1/3 219/1/3
f 221/1/3 216/1/3 220/1/3
f 222/4/3 217/4/3 216/4/3
f 222/1/3 216/1/3 221/1/3
f 223/3/3 218/3/3 217/3/3
f 223/4/3 217/4/3 222/4/3
f 224/1/3 213/1/3 218/1/3
f 224/3/3 218/3/3 223/3/3
f 225/1/3 213/1/3 224/1/3
f 227/1/3 219/1/3 214/1/3
f 227/2/3 220/2/3 219/2/3
f 228/1/3 221/1/3 220/1/3
f 228/2/3 220/2/3 227/2/3
f 229/1/3 221/1/3 228/1/3
f 230/1/3 223/1/3 222/1/3
f 230/1/3 225/1/3 224/1/3
f 230/1/3 224/1/3 223/1/3
f 231/1/3 225/1/3 230/1/3
f 232/1/3 225/1/3 231/1/3
f 233/4/3 226/4/3 225/4/3
f 233/1/3 225/1/3 232/1/3
f 234/4/3 226/4/3 233/4/3
f 235/1/3 229/1/3 228/1/3
f 235/1/3 227/1/3 214/1/3
f 235/1/3 228/1/3 227/1/3
f 235/1/3 230/1/3 229/1/3
f 236/1/3 230/1/3 235/1/3
f 237/4/3 231/4/3 230/4/3
f 237/1/3 230/1/3 236/1/3
f 238/3/3 232/3/3 231/3/3
f 238/4/3 231/4/3 237/4/3
f 239/1/3 233/1/3 232/1/3
f 239/3/3 232/3/3 238/3/3
f 240/1/3 237/1/3 236/1/3
f 240/1/3 238/1/3 237/1/3
f 240/1/3 239/1/3 238/1/3
f 241/1/3 233/1/3 239/1/3
f 241/1/3 239/1/3 240/1/3
f 242/1/3 233/1/3 241/1/3
f 247/4/3 244/4/3 243/4/3
f 248/4/3 244/4/3 247/4/3
f 249/4/3 246/4/3 245/4/3
f 250/4/3 246/4/3 249/4/3
f 255/4/3 251/4/3 250/4/3
f 256/4/3 251/4/3 255/4/3
f 257/4/3 253/4/3 252/4/3
f 258/4/3 253/4/3 257/4/3
f 259/4/3 255/4/3 254/4/3
f 260/4/3 255/4/3 259/4/3
f 263/4/3 262/4/3 261/4/3
f 264/4/3 262/4/3 263/4/3
f 267/1/3 266/1/3 265/1/3
f 268/1/3 266/1/3 267/1/3
f 271/4/3 270/4/3 269/4/3
f 272/4/3 270/4/3 271/4/3
f 276/1/3 274/1/3 273/1/3
f 277/1/3 274/1/3 276/1/3
f 278/1/3 274/1/3 277/1/3
f 279/1/3 276/1/3 275/1/3
f 279/1/3 277/1/3 276/1/3
f 280/1/3 277/1/3 279/1/3
f 283/1/3 282/1/3 281/1/3
f 284/1/3 282/1/3 283/1/3
f 285/1/3 282/1/3 284/1/3
f 287/1/3 285/1/3 284/1/3
f 287/1/3 286/1/3 285/1/3
f 288/1/3 286/1/3 287/1/3
f 291/4/3 290/4/3 289/4/3
f 292/4/3 290/4/3 291/4/3
f 296/4/3 294/4/3 293/4/3
f 297/4/3 294/4/3 296/4/3
f 298/1/3 296/1/3 295/1/3
f 299/1/3 296/1/3 298/1/3
f 302/4/3 301/4/3 300/4/3
f 303/4/3 301/4/3 302/4/3
f 307/4/3 305/4/3 304/4/3
f 308/4/3 305/4/3 307/4/3
f 309/4/3 307/4/3 306/4/3
f 310/4/3 307/4/3 309/4/3
f 313/4/3 312/4/3 311/4/3
f 314/4/3 312/4/3 313/4/3
f 316/4/3 315/4/3 314/4/3
f 317/4/3 315/4/3 316/4/3
f 318/1/4 319/1/4 320/1/4
f 320/1/4 319/1/4 321/1/4
f 322/1/4 323/1/4 324/1/4
f 324/1/4 323/1/4 325/1/4
f 326/1/4 327/1/4 329/1/4
f 329/1/4 327/1/4 330/1/4
f 328/1/4 329/1/4 332/1/4
f 332/1/4 329/1/4 333/1/4
f 331/1/4 332/1/4 334/1/4
f 334/1/4 332/1/4 335/1/4
f 336/1/4 337/1/4 338/1/4
f 338/1/4 337/1/4 339/1/4
f 340/1/4 341/1/4 342/1/4
f 342/1/4 341/1/4 343/1/4
f 343/1/4 344/1/4 345/1/4
f 345/1/4 344/1/4 346/1/4
f 347/1/4 348/1/4 349/1/4
f 349/1/4 348/1/4 350/1/4
f 351/4/4 352/4/4 353/4/4
f 353/4/4 352/4/4 354/4/4
f 355/4/4 356/4/4 360/4/4
f 360/4/4 356/4/4 361/4/4
f 357/4/4 358/4/4 362/4/4
f 362/4/4 358/4/4 363/4/4
f 365/4/4 366/4/4 367/4/4
f 367/4/4 366/4/4 368/4/4
f 359/4/4 360/4/4 369/4/4
f 369/4/4 360/4/4 370/4/4
f 363/4/4 364/4/4 373/4/4
f 373/4/4 364/4/4 374/4/4
f 370/4/4 371/4/4 375/4/4
f 375/4/4 371/4/4 376/4/4
f 372/4/4 373/4/4 377/4/4
f 377/4/4 373/4/4 378/4/4
f 379/4/4 380/4/4 382/4/4
f 382/4/4 380/4/4 383/4/4
f 381/4/4 382/4/4 385/4/4
f 385/4/4 382/4/4 386/4/4
f 383/4/4 384/4/4 387/4/4
f 387/4/4 384/4/4 388/4/4
f 386/4/4 387/4/4 389/4/4
f 389/4/4 387/4/4 390/4/4
f 391/4/4 392/4/4 393/4/4
f 393/4/4 392/4/4 394/4/4
f 397/1/5 396/1/5 395/1/5
f 398/1/5 396/1/5 397/1/5
f 401/1/5 400/1/5 399/1/5
f 402/1/5 400/1/5 401/1/5
f 403/1/5 401/1/5 399/1/5
f 404/1/5 400/1/5 402/1/5
f 405/1/5 403/1/5 399/1/5
f 405/1/5 404/1/5 403/1/5
f 406/1/5 400/1/5 404/1/5
f 406/1/5 404/1/5 405/1/5
f 411/1/5 408/1/5 407/1/5
f 412/1/5 408/1/5 411/1/5
f 413/1/5 410/1/5 409/1/5
f 414/1/5 410/1/5 413/1/5
f 418/1/5 416/1/5 415/1/5
f 419/1/5 416/1/5 418/1/5
f 421/4/5 418/4/5 417/4/5
f 421/4/5 420/4/5 419/4/5
f 421/4/5 419/4/5 418/4/5
f 422/4/5 420/4/5 421/4/5
f 427/1/5 424/1/5 423/1/5
f 428/1/5 424/1/5 427/1/5
f 432/1/5 430/1/5 429/1/5
f 433/1/5 430/1/5 432/1/5
f 434/1/5 426/1/5 425/1/5
f 435/1/5 426/1/5 434/1/5
f 437/4/5 432/4/5 431/4/5
f 438/4/5 432/4/5 437/4/5
f 439/4/5 436/4/5 435/4/5
f 440/4/5 436/4/5 439/4/5
f 441/4/5 439/4/5 438/4/5
f 442/4/5 439/4/5 441/4/5
f 445/1/5 444/1/5 443/1/5
f 446/1/5 444/1/5 445/1/5
f 451/1/5 448/1/5 447/1/5
f 452/1/5 448/1/5 451/1/5
f 454/1/5 450/1/5 449/1/5
f 455/1/5 450/1/5 454/1/5
f 457/1/5 453/1/5 452/1/5
f 458/1/5 453/1/5 457/1/5
f 461/4/5 457/4/5 456/4/5
f 462/4/5 457/4/5 461/4/5
f 463/4/5 460/4/5 459/4/5
f 464/4/5 460/4/5 463/4/5
f 469/4/5 466/4/5 465/4/5
f 470/4/5 466/4/5 469/4/5
f 471/4/5 468/4/5 467/4/5
f 472/4/5 468/4/5 471/4/5
f 473/4/5 471/4/5 470/4/5
f 474/4/5 471/4/5 473/4/5
f 479/1/5 476/1/5 475/1/5
f 480/1/5 476/1/5 479/1/5
f 483/1/5 478/1/5 477/1/5
f 484/1/5 478/1/5 483/1/5
f 485/4/5 481/4/5 480/4/5
f 486/4/5 481/4/5 485/4/5
f 487/4/5 483/4/5 482/4/5
f 488/4/5 483/4/5 487/4/5
f 493/4/5 490/4/5 489/4/5
f 494/4/5 490/4/5 493/4/5
f 495/4/5 492/4/5 491/4/5
f 496/4/5 492/4/5 495/4/5
f 501/4/5 498/4/5 497/4/5
f 502/4/5 498/4/5 501/4/5
f 503/4/5 500/4/5 499/4/5
f 504/4/5 500/4/5 503/4/5
f 509/4/5 506/4/5 505/4/5
f 510/4/5 508/4/5 507/4/5
f 511/4/5 509/4/5 505/4/5
f 512/4/5 509/4/5 511/4/5
f 513/4/5 508/4/5 510/4/5
f 514/4/5 508/4/5 513/4/5
f 519/4/5 516/4/5 515/4/5
f 520/4/5 516/4/5 519/4/5
f 521/4/5 518/4/5 517/4/5
f 522/4/5 518/4/5 521/4/5
f 525/4/5 524/4/5 523/4/5
f 526/4/5 524/4/5 525/4/5
f 527/1/6 528/1/6 529/1/6
f 529/1/6 528/1/6 530/1/6
f 531/1/6 532/1/6 535/1/6
f 535/1/6 532/1/6 536/1/6
f 533/1/6 534/1/6 537/1/6
f 537/1/6 534/1/6 538/1/6
f 539/4/6 540/4/6 543/4/6
f 543/4/6 540/4/6 544/4/6
f 541/4/6 542/4/6 545/4/6
f 545/4/6 542/4/6 546/4/6
f 547/4/6 548/4/6 551/4/6
f 551/4/6 548/4/6 552/4/6
f 549/4/6 550/4/6 553/4/6
f 553/4/6 550/4/6 554/4/6
f 552/4/6 553/4/6 555/4/6
f 555/4/6 553/4/6 556/4/6
f 557/4/6 558/4/6 561/4/6
f 559/4/6 560/4/6 562/4/6
f 557/4/6 561/4/6 564/4/6
f 561/4/6 562/4/6 564/4/6
f 562/4/6 560/4/6 565/4/6
f 564/4/6 562/4/6 565/4/6
f 563/4/6 564/4/6 567/4/6
f 567/4/6 564/4/6 568/4/6
f 565/4/6 566/4/6 569/4/6
f 569/4/6 566/4/6 570/4/6
f 568/4/6 569/4/6 571/4/6
f 571/4/6 569/4/6 572/4/6
f 573/4/6 574/4/6 575/4/6
f 575/4/6 574/4/6 576/4/6
f 573/4/6 575/4/6 577/4/6
f 576/4/6 574/4/6 578/4/6
f 573/4/6 577/4/6 579/4/6
f 577/4/6 578/4/6 579/4/6
f 578/4/6 574/4/6 580/4/6
f 579/4/6 578/4/6 580/4/6
f 581/4/6 582/4/6 583/4/6
f 583/4/6 582/4/6 584/4/6
