# MagicaVoxel @ Ephtracy

# group
o 

# material
mtllib walkflag.mtl
usemtl palette

# normals
vn -1 0 0
vn 1 0 0
vn 0 0 1
vn 0 0 -1
vn 0 -1 0
vn 0 1 0

# texcoords
vt 0.0175781 0.5
vt 0.537109 0.5
vt 0.880859 0.5
vt 0.931641 0.5

# verts
v -1.1 4.3 0.0999999
v -1.1 4.3 -7.45058e-008
v -1.1 4.4 0.0999999
v -1.1 4.4 -7.45058e-008
v -1 4.2 0.0999999
v -1 4.2 -7.45058e-008
v -1 4.3 0.0999999
v -1 4.3 -7.45058e-008
v -1 4.4 0.0999999
v -1 4.4 -7.45058e-008
v -1 4.5 0.0999999
v -1 4.5 -7.45058e-008
v -0.9 4.5 0.0999999
v -0.9 4.5 -7.45058e-008
v -0.9 4.6 0.0999999
v -0.9 4.6 -7.45058e-008
v -0.8 4.2 0.0999999
v -0.8 4.2 -7.45058e-008
v -0.8 4.3 0.0999999
v -0.8 4.3 -7.45058e-008
v -0.7 4.6 0.0999999
v -0.7 4.6 -7.45058e-008
v -0.7 4.7 0.0999999
v -0.7 4.7 -7.45058e-008
v -0.6 4.2 0.0999999
v -0.6 4.2 -7.45058e-008
v -0.6 4.3 0.0999999
v -0.6 4.3 -7.45058e-008
v -0.6 4.7 0.0999999
v -0.6 4.7 -7.45058e-008
v -0.6 4.8 0.0999999
v -0.6 4.8 -7.45058e-008
v -0.4 4.2 0.0999999
v -0.4 4.2 -7.45058e-008
v -0.4 4.3 0.0999999
v -0.4 4.3 -7.45058e-008
v -0.4 4.8 0.0999999
v -0.4 4.8 -7.45058e-008
v -0.4 4.9 0.0999999
v -0.4 4.9 -7.45058e-008
v -0.3 4.9 0.0999999
v -0.3 4.9 -7.45058e-008
v -0.3 5 0.0999999
v -0.3 5 -7.45058e-008
v -0.2 4.2 0.0999999
v -0.2 4.2 -7.45058e-008
v -0.2 4.3 0.0999999
v -0.2 4.3 -7.45058e-008
v -0.1 4 0.0999999
v -0.1 4 -7.45058e-008
v -0.1 4.2 0.0999999
v -0.1 4.2 -7.45058e-008
v -0.9 4.2 0.0999999
v -0.9 4.2 -7.45058e-008
v -0.9 4.3 0.0999999
v -0.9 4.3 -7.45058e-008
v -0.7 4.2 0.0999999
v -0.7 4.2 -7.45058e-008
v -0.7 4.3 0.0999999
v -0.7 4.3 -7.45058e-008
v -0.5 4.2 0.0999999
v -0.5 4.2 -7.45058e-008
v -0.5 4.3 0.0999999
v -0.5 4.3 -7.45058e-008
v -0.3 4.2 0.0999999
v -0.3 4.2 -7.45058e-008
v -0.3 4.3 0.0999999
v -0.3 4.3 -7.45058e-008
v 0 4 0.0999999
v 0 4 -7.45058e-008
v 0 5 0.0999999
v 0 5 -7.45058e-008
v -1.1 4.3 0.0999999
v -1.1 4.4 0.0999999
v -1 4.2 0.0999999
v -1 4.3 0.0999999
v -1 4.4 0.0999999
v -1 4.5 0.0999999
v -0.9 4.2 0.0999999
v -0.9 4.3 0.0999999
v -0.9 4.4 0.0999999
v -0.9 4.5 0.0999999
v -0.9 4.6 0.0999999
v -0.8 4.2 0.0999999
v -0.8 4.3 0.0999999
v -0.7 4.2 0.0999999
v -0.7 4.3 0.0999999
v -0.7 4.4 0.0999999
v -0.7 4.5 0.0999999
v -0.7 4.6 0.0999999
v -0.7 4.7 0.0999999
v -0.6 4.2 0.0999999
v -0.6 4.3 0.0999999
v -0.6 4.4 0.0999999
v -0.6 4.5 0.0999999
v -0.6 4.6 0.0999999
v -0.6 4.7 0.0999999
v -0.6 4.8 0.0999999
v -0.5 4.2 0.0999999
v -0.5 4.3 0.0999999
v -0.5 4.4 0.0999999
v -0.5 4.5 0.0999999
v -0.5 4.6 0.0999999
v -0.4 4.2 0.0999999
v -0.4 4.3 0.0999999
v -0.4 4.6 0.0999999
v -0.4 4.7 0.0999999
v -0.4 4.8 0.0999999
v -0.4 4.9 0.0999999
v -0.3 4.2 0.0999999
v -0.3 4.3 0.0999999
v -0.3 4.4 0.0999999
v -0.3 4.5 0.0999999
v -0.3 4.6 0.0999999
v -0.3 4.7 0.0999999
v -0.3 4.8 0.0999999
v -0.3 4.9 0.0999999
v -0.3 5 0.0999999
v -0.2 4.2 0.0999999
v -0.2 4.3 0.0999999
v -0.2 4.5 0.0999999
v -0.2 4.6 0.0999999
v -0.2 4.7 0.0999999
v -0.2 4.8 0.0999999
v -0.1 4 0.0999999
v -0.1 4.2 0.0999999
v -0.1 4.3 0.0999999
v -0.1 4.9 0.0999999
v -0.1 5 0.0999999
v 0 4 0.0999999
v 0 5 0.0999999
v -1.1 4.3 -7.45058e-008
v -1.1 4.4 -7.45058e-008
v -1 4.2 -7.45058e-008
v -1 4.3 -7.45058e-008
v -1 4.4 -7.45058e-008
v -1 4.5 -7.45058e-008
v -0.9 4.2 -7.45058e-008
v -0.9 4.3 -7.45058e-008
v -0.9 4.4 -7.45058e-008
v -0.9 4.5 -7.45058e-008
v -0.9 4.6 -7.45058e-008
v -0.8 4.2 -7.45058e-008
v -0.8 4.3 -7.45058e-008
v -0.7 4.2 -7.45058e-008
v -0.7 4.3 -7.45058e-008
v -0.7 4.4 -7.45058e-008
v -0.7 4.5 -7.45058e-008
v -0.7 4.6 -7.45058e-008
v -0.7 4.7 -7.45058e-008
v -0.6 4.2 -7.45058e-008
v -0.6 4.3 -7.45058e-008
v -0.6 4.4 -7.45058e-008
v -0.6 4.5 -7.45058e-008
v -0.6 4.6 -7.45058e-008
v -0.6 4.7 -7.45058e-008
v -0.6 4.8 -7.45058e-008
v -0.5 4.2 -7.45058e-008
v -0.5 4.3 -7.45058e-008
v -0.5 4.4 -7.45058e-008
v -0.5 4.5 -7.45058e-008
v -0.5 4.6 -7.45058e-008
v -0.4 4.2 -7.45058e-008
v -0.4 4.3 -7.45058e-008
v -0.4 4.6 -7.45058e-008
v -0.4 4.7 -7.45058e-008
v -0.4 4.8 -7.45058e-008
v -0.4 4.9 -7.45058e-008
v -0.3 4.2 -7.45058e-008
v -0.3 4.3 -7.45058e-008
v -0.3 4.4 -7.45058e-008
v -0.3 4.5 -7.45058e-008
v -0.3 4.6 -7.45058e-008
v -0.3 4.7 -7.45058e-008
v -0.3 4.8 -7.45058e-008
v -0.3 4.9 -7.45058e-008
v -0.3 5 -7.45058e-008
v -0.2 4.2 -7.45058e-008
v -0.2 4.3 -7.45058e-008
v -0.2 4.5 -7.45058e-008
v -0.2 4.6 -7.45058e-008
v -0.2 4.7 -7.45058e-008
v -0.2 4.8 -7.45058e-008
v -0.1 4 -7.45058e-008
v -0.1 4.2 -7.45058e-008
v -0.1 4.3 -7.45058e-008
v -0.1 4.9 -7.45058e-008
v -0.1 5 -7.45058e-008
v 0 4 -7.45058e-008
v 0 5 -7.45058e-008
v -0.1 4 0.0999999
v 0 4 0.0999999
v -0.1 4 -7.45058e-008
v 0 4 -7.45058e-008
v -1 4.2 0.0999999
v -0.9 4.2 0.0999999
v -0.8 4.2 0.0999999
v -0.7 4.2 0.0999999
v -0.6 4.2 0.0999999
v -0.5 4.2 0.0999999
v -0.4 4.2 0.0999999
v -0.3 4.2 0.0999999
v -0.2 4.2 0.0999999
v -0.1 4.2 0.0999999
v -1 4.2 -7.45058e-008
v -0.9 4.2 -7.45058e-008
v -0.8 4.2 -7.45058e-008
v -0.7 4.2 -7.45058e-008
v -0.6 4.2 -7.45058e-008
v -0.5 4.2 -7.45058e-008
v -0.4 4.2 -7.45058e-008
v -0.3 4.2 -7.45058e-008
v -0.2 4.2 -7.45058e-008
v -0.1 4.2 -7.45058e-008
v -1.1 4.3 0.0999999
v -1 4.3 0.0999999
v -0.9 4.3 0.0999999
v -0.8 4.3 0.0999999
v -0.7 4.3 0.0999999
v -0.6 4.3 0.0999999
v -0.5 4.3 0.0999999
v -0.4 4.3 0.0999999
v -0.3 4.3 0.0999999
v -0.2 4.3 0.0999999
v -1.1 4.3 -7.45058e-008
v -1 4.3 -7.45058e-008
v -0.9 4.3 -7.45058e-008
v -0.8 4.3 -7.45058e-008
v -0.7 4.3 -7.45058e-008
v -0.6 4.3 -7.45058e-008
v -0.5 4.3 -7.45058e-008
v -0.4 4.3 -7.45058e-008
v -0.3 4.3 -7.45058e-008
v -0.2 4.3 -7.45058e-008
v -1.1 4.4 0.0999999
v -1 4.4 0.0999999
v -1.1 4.4 -7.45058e-008
v -1 4.4 -7.45058e-008
v -1 4.5 0.0999999
v -0.9 4.5 0.0999999
v -1 4.5 -7.45058e-008
v -0.9 4.5 -7.45058e-008
v -0.9 4.6 0.0999999
v -0.7 4.6 0.0999999
v -0.9 4.6 -7.45058e-008
v -0.7 4.6 -7.45058e-008
v -0.7 4.7 0.0999999
v -0.6 4.7 0.0999999
v -0.7 4.7 -7.45058e-008
v -0.6 4.7 -7.45058e-008
v -0.6 4.8 0.0999999
v -0.4 4.8 0.0999999
v -0.6 4.8 -7.45058e-008
v -0.4 4.8 -7.45058e-008
v -0.4 4.9 0.0999999
v -0.3 4.9 0.0999999
v -0.4 4.9 -7.45058e-008
v -0.3 4.9 -7.45058e-008
v -0.3 5 0.0999999
v -0.1 5 0.0999999
v 0 5 0.0999999
v -0.3 5 -7.45058e-008
v -0.1 5 -7.45058e-008
v 0 5 -7.45058e-008

# faces
f 3/1/1 2/1/1 1/1/1
f 4/1/1 2/1/1 3/1/1
f 7/1/1 6/1/1 5/1/1
f 8/1/1 6/1/1 7/1/1
f 11/1/1 10/1/1 9/1/1
f 12/1/1 10/1/1 11/1/1
f 15/1/1 14/1/1 13/1/1
f 16/1/1 14/1/1 15/1/1
f 19/1/1 18/1/1 17/1/1
f 20/1/1 18/1/1 19/1/1
f 23/1/1 22/1/1 21/1/1
f 24/1/1 22/1/1 23/1/1
f 27/1/1 26/1/1 25/1/1
f 28/1/1 26/1/1 27/1/1
f 31/1/1 30/1/1 29/1/1
f 32/1/1 30/1/1 31/1/1
f 35/1/1 34/1/1 33/1/1
f 36/1/1 34/1/1 35/1/1
f 39/1/1 38/1/1 37/1/1
f 40/1/1 38/1/1 39/1/1
f 43/1/1 42/1/1 41/1/1
f 44/1/1 42/1/1 43/1/1
f 47/1/1 46/1/1 45/1/1
f 48/1/1 46/1/1 47/1/1
f 51/2/1 50/2/1 49/2/1
f 52/2/1 50/2/1 51/2/1
f 53/1/2 54/1/2 55/1/2
f 55/1/2 54/1/2 56/1/2
f 57/1/2 58/1/2 59/1/2
f 59/1/2 58/1/2 60/1/2
f 61/1/2 62/1/2 63/1/2
f 63/1/2 62/1/2 64/1/2
f 65/1/2 66/1/2 67/1/2
f 67/1/2 66/1/2 68/1/2
f 69/2/2 70/2/2 71/2/2
f 71/2/2 70/2/2 72/2/2
f 76/1/3 74/1/3 73/1/3
f 77/1/3 74/1/3 76/1/3
f 79/1/3 76/1/3 75/1/3
f 80/3/3 77/3/3 76/3/3
f 80/1/3 76/1/3 79/1/3
f 81/1/3 78/1/3 77/1/3
f 81/3/3 77/3/3 80/3/3
f 82/1/3 78/1/3 81/1/3
f 85/3/3 81/3/3 80/3/3
f 85/3/3 82/3/3 81/3/3
f 86/1/3 85/1/3 84/1/3
f 87/3/3 82/3/3 85/3/3
f 87/1/3 85/1/3 86/1/3
f 88/3/3 82/3/3 87/3/3
f 89/1/3 83/1/3 82/1/3
f 89/3/3 82/3/3 88/3/3
f 90/1/3 83/1/3 89/1/3
f 93/3/3 88/3/3 87/3/3
f 94/4/3 89/4/3 88/4/3
f 94/3/3 88/3/3 93/3/3
f 95/3/3 90/3/3 89/3/3
f 95/4/3 89/4/3 94/4/3
f 96/1/3 91/1/3 90/1/3
f 96/3/3 90/3/3 95/3/3
f 97/1/3 91/1/3 96/1/3
f 99/1/3 93/1/3 92/1/3
f 100/3/3 94/3/3 93/3/3
f 100/1/3 93/1/3 99/1/3
f 100/3/3 95/3/3 94/3/3
f 101/3/3 95/3/3 100/3/3
f 102/4/3 96/4/3 95/4/3
f 102/3/3 95/3/3 101/3/3
f 103/3/3 97/3/3 96/3/3
f 103/4/3 96/4/3 102/4/3
f 105/3/3 101/3/3 100/3/3
f 106/3/3 103/3/3 102/3/3
f 106/3/3 97/3/3 103/3/3
f 107/1/3 98/1/3 97/1/3
f 107/3/3 97/3/3 106/3/3
f 108/1/3 98/1/3 107/1/3
f 110/1/3 105/1/3 104/1/3
f 111/3/3 101/3/3 105/3/3
f 111/1/3 105/1/3 110/1/3
f 112/4/3 102/4/3 101/4/3
f 112/3/3 101/3/3 111/3/3
f 113/3/3 106/3/3 102/3/3
f 113/4/3 102/4/3 112/4/3
f 114/4/3 107/4/3 106/4/3
f 114/3/3 106/3/3 113/3/3
f 115/3/3 108/3/3 107/3/3
f 115/4/3 107/4/3 114/4/3
f 116/1/3 109/1/3 108/1/3
f 116/3/3 108/3/3 115/3/3
f 117/1/3 109/1/3 116/1/3
f 120/3/3 112/3/3 111/3/3
f 120/3/3 113/3/3 112/3/3
f 121/4/3 114/4/3 113/4/3
f 121/3/3 113/3/3 120/3/3
f 122/3/3 115/3/3 114/3/3
f 122/4/3 114/4/3 121/4/3
f 123/4/3 116/4/3 115/4/3
f 123/3/3 115/3/3 122/3/3
f 124/3/3 117/3/3 116/3/3
f 124/4/3 116/4/3 123/4/3
f 126/1/3 120/1/3 119/1/3
f 127/3/3 123/3/3 122/3/3
f 127/3/3 121/3/3 120/3/3
f 127/1/3 120/1/3 126/1/3
f 127/3/3 122/3/3 121/3/3
f 127/3/3 124/3/3 123/3/3
f 128/1/3 118/1/3 117/1/3
f 128/3/3 124/3/3 127/3/3
f 128/3/3 117/3/3 124/3/3
f 129/1/3 118/1/3 128/1/3
f 130/2/3 127/2/3 126/2/3
f 130/2/3 126/2/3 125/2/3
f 130/2/3 129/2/3 128/2/3
f 130/2/3 128/2/3 127/2/3
f 131/2/3 129/2/3 130/2/3
f 132/1/4 133/1/4 135/1/4
f 135/1/4 133/1/4 136/1/4
f 134/1/4 135/1/4 138/1/4
f 135/3/4 136/3/4 139/3/4
f 138/1/4 135/1/4 139/1/4
f 136/1/4 137/1/4 140/1/4
f 139/3/4 136/3/4 140/3/4
f 140/1/4 137/1/4 141/1/4
f 139/3/4 140/3/4 144/3/4
f 140/3/4 141/3/4 144/3/4
f 143/1/4 144/1/4 145/1/4
f 144/3/4 141/3/4 146/3/4
f 145/1/4 144/1/4 146/1/4
f 146/3/4 141/3/4 147/3/4
f 141/1/4 142/1/4 148/1/4
f 147/3/4 141/3/4 148/3/4
f 148/1/4 142/1/4 149/1/4
f 146/3/4 147/3/4 152/3/4
f 147/4/4 148/4/4 153/4/4
f 152/3/4 147/3/4 153/3/4
f 148/3/4 149/3/4 154/3/4
f 153/4/4 148/4/4 154/4/4
f 149/1/4 150/1/4 155/1/4
f 154/3/4 149/3/4 155/3/4
f 155/1/4 150/1/4 156/1/4
f 151/1/4 152/1/4 158/1/4
f 152/3/4 153/3/4 159/3/4
f 158/1/4 152/1/4 159/1/4
f 153/3/4 154/3/4 159/3/4
f 159/3/4 154/3/4 160/3/4
f 154/4/4 155/4/4 161/4/4
f 160/3/4 154/3/4 161/3/4
f 155/3/4 156/3/4 162/3/4
f 161/4/4 155/4/4 162/4/4
f 159/3/4 160/3/4 164/3/4
f 161/3/4 162/3/4 165/3/4
f 162/3/4 156/3/4 165/3/4
f 156/1/4 157/1/4 166/1/4
f 165/3/4 156/3/4 166/3/4
f 166/1/4 157/1/4 167/1/4
f 163/1/4 164/1/4 169/1/4
f 164/3/4 160/3/4 170/3/4
f 169/1/4 164/1/4 170/1/4
f 160/4/4 161/4/4 171/4/4
f 170/3/4 160/3/4 171/3/4
f 161/3/4 165/3/4 172/3/4
f 171/4/4 161/4/4 172/4/4
f 165/4/4 166/4/4 173/4/4
f 172/3/4 165/3/4 173/3/4
f 166/3/4 167/3/4 174/3/4
f 173/4/4 166/4/4 174/4/4
f 167/1/4 168/1/4 175/1/4
f 174/3/4 167/3/4 175/3/4
f 175/1/4 168/1/4 176/1/4
f 170/3/4 171/3/4 179/3/4
f 171/3/4 172/3/4 179/3/4
f 172/4/4 173/4/4 180/4/4
f 179/3/4 172/3/4 180/3/4
f 173/3/4 174/3/4 181/3/4
f 180/4/4 173/4/4 181/4/4
f 174/4/4 175/4/4 182/4/4
f 181/3/4 174/3/4 182/3/4
f 175/3/4 176/3/4 183/3/4
f 182/4/4 175/4/4 183/4/4
f 178/1/4 179/1/4 185/1/4
f 181/3/4 182/3/4 186/3/4
f 179/3/4 180/3/4 186/3/4
f 185/1/4 179/1/4 186/1/4
f 180/3/4 181/3/4 186/3/4
f 182/3/4 183/3/4 186/3/4
f 176/1/4 177/1/4 187/1/4
f 186/3/4 183/3/4 187/3/4
f 183/3/4 176/3/4 187/3/4
f 187/1/4 177/1/4 188/1/4
f 185/2/4 186/2/4 189/2/4
f 184/2/4 185/2/4 189/2/4
f 187/2/4 188/2/4 189/2/4
f 186/2/4 187/2/4 189/2/4
f 189/2/4 188/2/4 190/2/4
f 193/2/5 192/2/5 191/2/5
f 194/2/5 192/2/5 193/2/5
f 205/1/5 196/1/5 195/1/5
f 206/1/5 196/1/5 205/1/5
f 207/1/5 198/1/5 197/1/5
f 208/1/5 198/1/5 207/1/5
f 209/1/5 200/1/5 199/1/5
f 210/1/5 200/1/5 209/1/5
f 211/1/5 202/1/5 201/1/5
f 212/1/5 202/1/5 211/1/5
f 213/1/5 204/1/5 203/1/5
f 214/1/5 204/1/5 213/1/5
f 225/1/5 216/1/5 215/1/5
f 226/1/5 216/1/5 225/1/5
f 227/3/5 218/3/5 217/3/5
f 228/3/5 218/3/5 227/3/5
f 229/3/5 220/3/5 219/3/5
f 230/3/5 220/3/5 229/3/5
f 231/3/5 222/3/5 221/3/5
f 232/3/5 222/3/5 231/3/5
f 233/3/5 224/3/5 223/3/5
f 234/3/5 224/3/5 233/3/5
f 235/1/6 236/1/6 237/1/6
f 237/1/6 236/1/6 238/1/6
f 239/1/6 240/1/6 241/1/6
f 241/1/6 240/1/6 242/1/6
f 243/1/6 244/1/6 245/1/6
f 245/1/6 244/1/6 246/1/6
f 247/1/6 248/1/6 249/1/6
f 249/1/6 248/1/6 250/1/6
f 251/1/6 252/1/6 253/1/6
f 253/1/6 252/1/6 254/1/6
f 255/1/6 256/1/6 257/1/6
f 257/1/6 256/1/6 258/1/6
f 259/1/6 260/1/6 262/1/6
f 260/2/6 261/2/6 263/2/6
f 262/1/6 260/1/6 263/1/6
f 263/2/6 261/2/6 264/2/6
