# MagicaVoxel @ Ephtracy

# group
o 

# material
mtllib arrow.mtl
usemtl palette

# normals
vn -1 0 0
vn 1 0 0
vn 0 0 1
vn 0 0 -1
vn 0 -1 0
vn 0 1 0

# texcoords
vt 0.396484 0.5
vt 0.958984 0.5
vt 0.978516 0.5

# verts
v -0.4 -0.0999999 0.8
v -0.4 -0.0999999 0.6
v -0.4 -0.0999999 -0.6
v -0.4 -0.0999999 -0.9
v -0.4 5.96046e-008 0.8
v -0.4 5.96046e-008 0.6
v -0.4 5.96046e-008 -0.6
v -0.4 5.96046e-008 -0.9
v -0.3 -0.2 0.8
v -0.3 -0.2 0.6
v -0.3 -0.2 -0.6
v -0.3 -0.2 -0.9
v -0.3 -0.0999999 1
v -0.3 -0.0999999 0.8
v -0.3 -0.0999999 0.6
v -0.3 -0.0999999 -0.6
v -0.3 -0.0999999 -0.9
v -0.3 -0.0999999 -1
v -0.3 5.96046e-008 1
v -0.3 5.96046e-008 0.8
v -0.3 5.96046e-008 0.6
v -0.3 5.96046e-008 -0.6
v -0.3 5.96046e-008 -0.9
v -0.3 5.96046e-008 -1
v -0.3 0.1 0.8
v -0.3 0.1 0.6
v -0.3 0.1 -0.6
v -0.3 0.1 -0.9
v -0.2 -0.2 0.8
v -0.2 -0.2 0.6
v -0.2 -0.2 -0.6
v -0.2 -0.2 -0.9
v -0.2 -0.0999999 1
v -0.2 -0.0999999 0.8
v -0.2 -0.0999999 0.6
v -0.2 -0.0999999 -0.6
v -0.2 -0.0999999 -0.9
v -0.2 -0.0999999 -1
v -0.2 5.96046e-008 1
v -0.2 5.96046e-008 0.8
v -0.2 5.96046e-008 0.6
v -0.2 5.96046e-008 -0.6
v -0.2 5.96046e-008 -0.9
v -0.2 5.96046e-008 -1
v -0.2 0.1 0.8
v -0.2 0.1 0.6
v -0.2 0.1 -0.6
v -0.2 0.1 -0.9
v -0.1 -0.0999999 0.8
v -0.1 -0.0999999 0.6
v -0.1 -0.0999999 -0.6
v -0.1 -0.0999999 -0.9
v -0.1 5.96046e-008 0.8
v -0.1 5.96046e-008 0.6
v -0.1 5.96046e-008 -0.6
v -0.1 5.96046e-008 -0.9
v -0.3 -0.0999999 1
v -0.3 5.96046e-008 1
v -0.2 -0.0999999 1
v -0.2 5.96046e-008 1
v -0.4 -0.0999999 0.8
v -0.4 5.96046e-008 0.8
v -0.3 -0.2 0.8
v -0.3 -0.0999999 0.8
v -0.3 5.96046e-008 0.8
v -0.3 0.1 0.8
v -0.2 -0.2 0.8
v -0.2 -0.0999999 0.8
v -0.2 5.96046e-008 0.8
v -0.2 0.1 0.8
v -0.1 -0.0999999 0.8
v -0.1 5.96046e-008 0.8
v -0.4 -0.0999999 -0.6
v -0.4 5.96046e-008 -0.6
v -0.3 -0.2 -0.6
v -0.3 -0.0999999 -0.6
v -0.3 5.96046e-008 -0.6
v -0.3 0.1 -0.6
v -0.2 -0.2 -0.6
v -0.2 -0.0999999 -0.6
v -0.2 5.96046e-008 -0.6
v -0.2 0.1 -0.6
v -0.1 -0.0999999 -0.6
v -0.1 5.96046e-008 -0.6
v -0.4 -0.0999999 0.6
v -0.4 5.96046e-008 0.6
v -0.3 -0.2 0.6
v -0.3 -0.0999999 0.6
v -0.3 5.96046e-008 0.6
v -0.3 0.1 0.6
v -0.2 -0.2 0.6
v -0.2 -0.0999999 0.6
v -0.2 5.96046e-008 0.6
v -0.2 0.1 0.6
v -0.1 -0.0999999 0.6
v -0.1 5.96046e-008 0.6
v -0.4 -0.0999999 -0.9
v -0.4 5.96046e-008 -0.9
v -0.3 -0.2 -0.9
v -0.3 -0.0999999 -0.9
v -0.3 5.96046e-008 -0.9
v -0.3 0.1 -0.9
v -0.2 -0.2 -0.9
v -0.2 -0.0999999 -0.9
v -0.2 5.96046e-008 -0.9
v -0.2 0.1 -0.9
v -0.1 -0.0999999 -0.9
v -0.1 5.96046e-008 -0.9
v -0.3 -0.0999999 -1
v -0.3 5.96046e-008 -1
v -0.2 -0.0999999 -1
v -0.2 5.96046e-008 -1
v -0.3 -0.2 0.8
v -0.2 -0.2 0.8
v -0.3 -0.2 0.6
v -0.2 -0.2 0.6
v -0.3 -0.2 -0.6
v -0.2 -0.2 -0.6
v -0.3 -0.2 -0.9
v -0.2 -0.2 -0.9
v -0.3 -0.0999999 1
v -0.2 -0.0999999 1
v -0.4 -0.0999999 0.8
v -0.3 -0.0999999 0.8
v -0.2 -0.0999999 0.8
v -0.1 -0.0999999 0.8
v -0.4 -0.0999999 0.6
v -0.3 -0.0999999 0.6
v -0.2 -0.0999999 0.6
v -0.1 -0.0999999 0.6
v -0.4 -0.0999999 -0.6
v -0.3 -0.0999999 -0.6
v -0.2 -0.0999999 -0.6
v -0.1 -0.0999999 -0.6
v -0.4 -0.0999999 -0.9
v -0.3 -0.0999999 -0.9
v -0.2 -0.0999999 -0.9
v -0.1 -0.0999999 -0.9
v -0.3 -0.0999999 -1
v -0.2 -0.0999999 -1
v -0.3 5.96046e-008 1
v -0.2 5.96046e-008 1
v -0.4 5.96046e-008 0.8
v -0.3 5.96046e-008 0.8
v -0.2 5.96046e-008 0.8
v -0.1 5.96046e-008 0.8
v -0.4 5.96046e-008 0.6
v -0.3 5.96046e-008 0.6
v -0.2 5.96046e-008 0.6
v -0.1 5.96046e-008 0.6
v -0.4 5.96046e-008 -0.6
v -0.3 5.96046e-008 -0.6
v -0.2 5.96046e-008 -0.6
v -0.1 5.96046e-008 -0.6
v -0.4 5.96046e-008 -0.9
v -0.3 5.96046e-008 -0.9
v -0.2 5.96046e-008 -0.9
v -0.1 5.96046e-008 -0.9
v -0.3 5.96046e-008 -1
v -0.2 5.96046e-008 -1
v -0.3 0.1 0.8
v -0.2 0.1 0.8
v -0.3 0.1 0.6
v -0.2 0.1 0.6
v -0.3 0.1 -0.6
v -0.2 0.1 -0.6
v -0.3 0.1 -0.9
v -0.2 0.1 -0.9

# faces
f 5/3/1 2/3/1 1/3/1
f 6/3/1 2/3/1 5/3/1
f 7/2/1 4/2/1 3/2/1
f 8/2/1 4/2/1 7/2/1
f 14/3/1 10/3/1 9/3/1
f 15/3/1 10/3/1 14/3/1
f 16/2/1 12/2/1 11/2/1
f 17/2/1 12/2/1 16/2/1
f 19/3/1 14/3/1 13/3/1
f 20/3/1 14/3/1 19/3/1
f 21/1/1 16/1/1 15/1/1
f 22/1/1 16/1/1 21/1/1
f 23/1/1 18/1/1 17/1/1
f 24/1/1 18/1/1 23/1/1
f 25/3/1 21/3/1 20/3/1
f 26/3/1 21/3/1 25/3/1
f 27/2/1 23/2/1 22/2/1
f 28/2/1 23/2/1 27/2/1
f 29/3/2 30/3/2 34/3/2
f 34/3/2 30/3/2 35/3/2
f 31/2/2 32/2/2 36/2/2
f 36/2/2 32/2/2 37/2/2
f 33/3/2 34/3/2 39/3/2
f 39/3/2 34/3/2 40/3/2
f 35/1/2 36/1/2 41/1/2
f 41/1/2 36/1/2 42/1/2
f 37/1/2 38/1/2 43/1/2
f 43/1/2 38/1/2 44/1/2
f 40/3/2 41/3/2 45/3/2
f 45/3/2 41/3/2 46/3/2
f 42/2/2 43/2/2 47/2/2
f 47/2/2 43/2/2 48/2/2
f 49/3/2 50/3/2 53/3/2
f 53/3/2 50/3/2 54/3/2
f 51/2/2 52/2/2 55/2/2
f 55/2/2 52/2/2 56/2/2
f 59/3/3 58/3/3 57/3/3
f 60/3/3 58/3/3 59/3/3
f 64/3/3 62/3/3 61/3/3
f 65/3/3 62/3/3 64/3/3
f 67/3/3 64/3/3 63/3/3
f 68/3/3 64/3/3 67/3/3
f 69/3/3 66/3/3 65/3/3
f 70/3/3 66/3/3 69/3/3
f 71/3/3 69/3/3 68/3/3
f 72/3/3 69/3/3 71/3/3
f 76/2/3 74/2/3 73/2/3
f 77/2/3 74/2/3 76/2/3
f 79/2/3 76/2/3 75/2/3
f 80/2/3 76/2/3 79/2/3
f 81/2/3 78/2/3 77/2/3
f 82/2/3 78/2/3 81/2/3
f 83/2/3 81/2/3 80/2/3
f 84/2/3 81/2/3 83/2/3
f 85/3/4 86/3/4 88/3/4
f 88/3/4 86/3/4 89/3/4
f 87/3/4 88/3/4 91/3/4
f 91/3/4 88/3/4 92/3/4
f 89/3/4 90/3/4 93/3/4
f 93/3/4 90/3/4 94/3/4
f 92/3/4 93/3/4 95/3/4
f 95/3/4 93/3/4 96/3/4
f 97/2/4 98/2/4 100/2/4
f 100/2/4 98/2/4 101/2/4
f 99/2/4 100/2/4 103/2/4
f 103/2/4 100/2/4 104/2/4
f 101/2/4 102/2/4 105/2/4
f 105/2/4 102/2/4 106/2/4
f 104/2/4 105/2/4 107/2/4
f 107/2/4 105/2/4 108/2/4
f 109/1/4 110/1/4 111/1/4
f 111/1/4 110/1/4 112/1/4
f 115/3/5 114/3/5 113/3/5
f 116/3/5 114/3/5 115/3/5
f 119/2/5 118/2/5 117/2/5
f 120/2/5 118/2/5 119/2/5
f 124/3/5 122/3/5 121/3/5
f 125/3/5 122/3/5 124/3/5
f 127/3/5 124/3/5 123/3/5
f 128/3/5 124/3/5 127/3/5
f 129/3/5 126/3/5 125/3/5
f 130/3/5 126/3/5 129/3/5
f 132/1/5 129/1/5 128/1/5
f 133/1/5 129/1/5 132/1/5
f 135/2/5 132/2/5 131/2/5
f 136/2/5 132/2/5 135/2/5
f 137/2/5 134/2/5 133/2/5
f 138/2/5 134/2/5 137/2/5
f 139/1/5 137/1/5 136/1/5
f 140/1/5 137/1/5 139/1/5
f 141/3/6 142/3/6 144/3/6
f 144/3/6 142/3/6 145/3/6
f 143/3/6 144/3/6 147/3/6
f 147/3/6 144/3/6 148/3/6
f 145/3/6 146/3/6 149/3/6
f 149/3/6 146/3/6 150/3/6
f 148/1/6 149/1/6 152/1/6
f 152/1/6 149/1/6 153/1/6
f 151/2/6 152/2/6 155/2/6
f 155/2/6 152/2/6 156/2/6
f 153/2/6 154/2/6 157/2/6
f 157/2/6 154/2/6 158/2/6
f 156/1/6 157/1/6 159/1/6
f 159/1/6 157/1/6 160/1/6
f 161/3/6 162/3/6 163/3/6
f 163/3/6 162/3/6 164/3/6
f 165/2/6 166/2/6 167/2/6
f 167/2/6 166/2/6 168/2/6
