# MagicaVoxel @ Ephtracy

# group
o 

# material
mtllib dagaxe.mtl
usemtl palette

# normals
vn -1 0 0
vn 1 0 0
vn 0 0 1
vn 0 0 -1
vn 0 -1 0
vn 0 1 0

# texcoords
vt 0.841797 0.5
vt 0.865234 0.5
vt 0.958984 0.5
vt 0.974609 0.5
vt 0.990234 0.5

# verts
v -1.5 -0.0999999 8.7
v -1.5 -0.0999999 8.6
v -1.5 7.45058e-008 8.7
v -1.5 7.45058e-008 8.6
v -1.4 -0.0999999 8.6
v -1.4 -0.0999999 8.5
v -1.4 7.45058e-008 8.6
v -1.4 7.45058e-008 8.5
v -0.7 -0.0999999 8.5
v -0.7 -0.0999999 8.4
v -0.7 7.45058e-008 8.5
v -0.7 7.45058e-008 8.4
v -0.6 -0.0999999 8.4
v -0.6 -0.0999999 8.3
v -0.6 7.45058e-008 8.4
v -0.6 7.45058e-008 8.3
v -0.5 -0.0999999 8.3
v -0.5 -0.0999999 8
v -0.5 7.45058e-008 8.3
v -0.5 7.45058e-008 8
v -0.4 -0.0999999 8
v -0.4 -0.0999999 7.9
v -0.4 7.45058e-008 8
v -0.4 7.45058e-008 7.9
v -0.3 -0.0999999 9
v -0.3 -0.0999999 8.7
v -0.3 -0.0999999 7.9
v -0.3 -0.0999999 -3
v -0.3 7.45058e-008 9
v -0.3 7.45058e-008 8.7
v -0.3 7.45058e-008 7.9
v -0.3 7.45058e-008 -3
v -0.1 -0.0999999 0.1
v -0.1 -0.0999999 -0.0999994
v -0.1 7.45058e-008 0.1
v -0.1 7.45058e-008 -0.0999994
v -0.2 -0.0999999 9
v -0.2 -0.0999999 8.7
v -0.2 -0.0999999 8.5
v -0.2 -0.0999999 8.4
v -0.2 -0.0999999 8.3
v -0.2 -0.0999999 8.1
v -0.2 -0.0999999 -3
v -0.2 7.45058e-008 9
v -0.2 7.45058e-008 8.7
v -0.2 7.45058e-008 8.5
v -0.2 7.45058e-008 8.4
v -0.2 7.45058e-008 8.3
v -0.2 7.45058e-008 8.1
v -0.2 7.45058e-008 -3
v 0 -0.0999999 0.1
v 0 -0.0999999 -0.0999994
v 0 7.45058e-008 0.1
v 0 7.45058e-008 -0.0999994
v 0.1 -0.0999999 8.7
v 0.1 -0.0999999 8.5
v 0.1 7.45058e-008 8.7
v 0.1 7.45058e-008 8.5
v -0.3 -0.0999999 9
v -0.3 7.45058e-008 9
v -0.2 -0.0999999 9
v -0.2 7.45058e-008 9
v -1.5 -0.0999999 8.7
v -1.5 7.45058e-008 8.7
v -0.3 -0.0999999 8.7
v -0.3 7.45058e-008 8.7
v -0.2 -0.0999999 8.7
v -0.2 7.45058e-008 8.7
v 0.1 -0.0999999 8.7
v 0.1 7.45058e-008 8.7
v -0.1 -0.0999999 0.1
v -0.1 7.45058e-008 0.1
v 0 -0.0999999 0.1
v 0 7.45058e-008 0.1
v -1.5 -0.0999999 8.6
v -1.5 7.45058e-008 8.6
v -1.4 -0.0999999 8.6
v -1.4 7.45058e-008 8.6
v -1.4 -0.0999999 8.5
v -1.4 7.45058e-008 8.5
v -0.7 -0.0999999 8.5
v -0.7 7.45058e-008 8.5
v -0.2 -0.0999999 8.5
v -0.2 7.45058e-008 8.5
v 0.1 -0.0999999 8.5
v 0.1 7.45058e-008 8.5
v -0.7 -0.0999999 8.4
v -0.7 7.45058e-008 8.4
v -0.6 -0.0999999 8.4
v -0.6 7.45058e-008 8.4
v -0.6 -0.0999999 8.3
v -0.6 7.45058e-008 8.3
v -0.5 -0.0999999 8.3
v -0.5 7.45058e-008 8.3
v -0.5 -0.0999999 8
v -0.5 7.45058e-008 8
v -0.4 -0.0999999 8
v -0.4 7.45058e-008 8
v -0.4 -0.0999999 7.9
v -0.4 7.45058e-008 7.9
v -0.3 -0.0999999 7.9
v -0.3 7.45058e-008 7.9
v -0.1 -0.0999999 -0.0999994
v -0.1 7.45058e-008 -0.0999994
v 0 -0.0999999 -0.0999994
v 0 7.45058e-008 -0.0999994
v -0.3 -0.0999999 -3
v -0.3 7.45058e-008 -3
v -0.2 -0.0999999 -3
v -0.2 7.45058e-008 -3
v -0.3 -0.0999999 9
v -0.2 -0.0999999 9
v -1.5 -0.0999999 8.7
v -0.3 -0.0999999 8.7
v -0.2 -0.0999999 8.7
v 0.1 -0.0999999 8.7
v -1.5 -0.0999999 8.6
v -1.4 -0.0999999 8.6
v -0.6 -0.0999999 8.6
v -0.4 -0.0999999 8.6
v -1.4 -0.0999999 8.5
v -0.7 -0.0999999 8.5
v -0.6 -0.0999999 8.5
v -0.5 -0.0999999 8.5
v -0.4 -0.0999999 8.5
v -0.3 -0.0999999 8.5
v -0.2 -0.0999999 8.5
v 0.1 -0.0999999 8.5
v -0.7 -0.0999999 8.4
v -0.6 -0.0999999 8.4
v -0.5 -0.0999999 8.4
v -0.4 -0.0999999 8.4
v -0.3 -0.0999999 8.4
v -0.2 -0.0999999 8.4
v -0.6 -0.0999999 8.3
v -0.5 -0.0999999 8.3
v -0.3 -0.0999999 8.3
v -0.2 -0.0999999 8.3
v -0.4 -0.0999999 8.2
v -0.3 -0.0999999 8.2
v -0.4 -0.0999999 8.1
v -0.3 -0.0999999 8.1
v -0.2 -0.0999999 8.1
v -0.5 -0.0999999 8
v -0.4 -0.0999999 8
v -0.4 -0.0999999 7.9
v -0.3 -0.0999999 7.9
v -0.1 -0.0999999 0.1
v 0 -0.0999999 0.1
v -0.1 -0.0999999 -0.0999994
v 0 -0.0999999 -0.0999994
v -0.3 -0.0999999 -3
v -0.2 -0.0999999 -3
v -0.3 7.45058e-008 9
v -0.2 7.45058e-008 9
v -1.5 7.45058e-008 8.7
v -0.3 7.45058e-008 8.7
v -0.2 7.45058e-008 8.7
v 0.1 7.45058e-008 8.7
v -1.5 7.45058e-008 8.6
v -1.4 7.45058e-008 8.6
v -0.6 7.45058e-008 8.6
v -0.4 7.45058e-008 8.6
v -1.4 7.45058e-008 8.5
v -0.7 7.45058e-008 8.5
v -0.6 7.45058e-008 8.5
v -0.5 7.45058e-008 8.5
v -0.4 7.45058e-008 8.5
v -0.3 7.45058e-008 8.5
v -0.2 7.45058e-008 8.5
v 0.1 7.45058e-008 8.5
v -0.7 7.45058e-008 8.4
v -0.6 7.45058e-008 8.4
v -0.5 7.45058e-008 8.4
v -0.4 7.45058e-008 8.4
v -0.3 7.45058e-008 8.4
v -0.2 7.45058e-008 8.4
v -0.6 7.45058e-008 8.3
v -0.5 7.45058e-008 8.3
v -0.3 7.45058e-008 8.3
v -0.2 7.45058e-008 8.3
v -0.4 7.45058e-008 8.2
v -0.3 7.45058e-008 8.2
v -0.4 7.45058e-008 8.1
v -0.3 7.45058e-008 8.1
v -0.2 7.45058e-008 8.1
v -0.5 7.45058e-008 8
v -0.4 7.45058e-008 8
v -0.4 7.45058e-008 7.9
v -0.3 7.45058e-008 7.9
v -0.1 7.45058e-008 0.1
v 0 7.45058e-008 0.1
v -0.1 7.45058e-008 -0.0999994
v 0 7.45058e-008 -0.0999994
v -0.3 7.45058e-008 -3
v -0.2 7.45058e-008 -3

# faces
f 3/3/1 2/3/1 1/3/1
f 4/3/1 2/3/1 3/3/1
f 7/3/1 6/3/1 5/3/1
f 8/3/1 6/3/1 7/3/1
f 11/3/1 10/3/1 9/3/1
f 12/3/1 10/3/1 11/3/1
f 15/3/1 14/3/1 13/3/1
f 16/3/1 14/3/1 15/3/1
f 19/3/1 18/3/1 17/3/1
f 20/3/1 18/3/1 19/3/1
f 23/3/1 22/3/1 21/3/1
f 24/3/1 22/3/1 23/3/1
f 29/5/1 26/5/1 25/5/1
f 30/5/1 26/5/1 29/5/1
f 31/5/1 28/5/1 27/5/1
f 32/5/1 28/5/1 31/5/1
f 35/1/1 34/1/1 33/1/1
f 36/1/1 34/1/1 35/1/1
f 37/5/2 38/5/2 44/5/2
f 44/5/2 38/5/2 45/5/2
f 39/2/2 40/2/2 46/2/2
f 40/5/2 41/5/2 47/5/2
f 46/2/2 40/2/2 47/2/2
f 41/2/2 42/2/2 48/2/2
f 47/5/2 41/5/2 48/5/2
f 42/5/2 43/5/2 49/5/2
f 48/2/2 42/2/2 49/2/2
f 49/5/2 43/5/2 50/5/2
f 51/1/2 52/1/2 53/1/2
f 53/1/2 52/1/2 54/1/2
f 55/3/2 56/3/2 57/3/2
f 57/3/2 56/3/2 58/3/2
f 61/5/3 60/5/3 59/5/3
f 62/5/3 60/5/3 61/5/3
f 65/3/3 64/3/3 63/3/3
f 66/3/3 64/3/3 65/3/3
f 69/3/3 68/3/3 67/3/3
f 70/3/3 68/3/3 69/3/3
f 73/1/3 72/1/3 71/1/3
f 74/1/3 72/1/3 73/1/3
f 75/3/4 76/3/4 77/3/4
f 77/3/4 76/3/4 78/3/4
f 79/3/4 80/3/4 81/3/4
f 81/3/4 80/3/4 82/3/4
f 83/3/4 84/3/4 85/3/4
f 85/3/4 84/3/4 86/3/4
f 87/3/4 88/3/4 89/3/4
f 89/3/4 88/3/4 90/3/4
f 91/3/4 92/3/4 93/3/4
f 93/3/4 92/3/4 94/3/4
f 95/3/4 96/3/4 97/3/4
f 97/3/4 96/3/4 98/3/4
f 99/3/4 100/3/4 101/3/4
f 101/3/4 100/3/4 102/3/4
f 103/1/4 104/1/4 105/1/4
f 105/1/4 104/1/4 106/1/4
f 107/5/4 108/5/4 109/5/4
f 109/5/4 108/5/4 110/5/4
f 114/5/5 112/5/5 111/5/5
f 115/5/5 112/5/5 114/5/5
f 117/3/5 114/3/5 113/3/5
f 118/3/5 114/3/5 117/3/5
f 119/3/5 114/3/5 118/3/5
f 120/3/5 114/3/5 119/3/5
f 121/3/5 119/3/5 118/3/5
f 122/3/5 119/3/5 121/3/5
f 123/4/5 120/4/5 119/4/5
f 123/3/5 119/3/5 122/3/5
f 124/4/5 120/4/5 123/4/5
f 125/3/5 114/3/5 120/3/5
f 125/4/5 120/4/5 124/4/5
f 126/5/5 115/5/5 114/5/5
f 126/3/5 114/3/5 125/3/5
f 127/3/5 116/3/5 115/3/5
f 127/5/5 115/5/5 126/5/5
f 128/3/5 116/3/5 127/3/5
f 129/3/5 124/3/5 123/3/5
f 129/3/5 123/3/5 122/3/5
f 130/3/5 124/3/5 129/3/5
f 131/4/5 125/4/5 124/4/5
f 131/3/5 124/3/5 130/3/5
f 132/2/5 126/2/5 125/2/5
f 132/4/5 125/4/5 131/4/5
f 132/2/5 127/2/5 126/2/5
f 133/2/5 127/2/5 132/2/5
f 134/2/5 127/2/5 133/2/5
f 135/3/5 131/3/5 130/3/5
f 135/3/5 132/3/5 131/3/5
f 135/3/5 133/3/5 132/3/5
f 136/3/5 133/3/5 135/3/5
f 137/5/5 134/5/5 133/5/5
f 137/3/5 133/3/5 136/3/5
f 138/5/5 134/5/5 137/5/5
f 139/3/5 137/3/5 136/3/5
f 140/2/5 138/2/5 137/2/5
f 140/3/5 137/3/5 139/3/5
f 141/3/5 139/3/5 136/3/5
f 141/2/5 140/2/5 139/2/5
f 142/2/5 138/2/5 140/2/5
f 142/2/5 140/2/5 141/2/5
f 143/2/5 138/2/5 142/2/5
f 144/3/5 141/3/5 136/3/5
f 144/3/5 142/3/5 141/3/5
f 145/3/5 142/3/5 144/3/5
f 146/3/5 142/3/5 145/3/5
f 147/5/5 143/5/5 142/5/5
f 147/3/5 142/3/5 146/3/5
f 150/1/5 149/1/5 148/1/5
f 151/1/5 149/1/5 150/1/5
f 152/5/5 143/5/5 147/5/5
f 153/5/5 143/5/5 152/5/5
f 154/5/6 155/5/6 157/5/6
f 157/5/6 155/5/6 158/5/6
f 156/3/6 157/3/6 160/3/6
f 160/3/6 157/3/6 161/3/6
f 161/3/6 157/3/6 162/3/6
f 162/3/6 157/3/6 163/3/6
f 161/3/6 162/3/6 164/3/6
f 164/3/6 162/3/6 165/3/6
f 162/4/6 163/4/6 166/4/6
f 165/3/6 162/3/6 166/3/6
f 166/4/6 163/4/6 167/4/6
f 163/3/6 157/3/6 168/3/6
f 167/4/6 163/4/6 168/4/6
f 157/5/6 158/5/6 169/5/6
f 168/3/6 157/3/6 169/3/6
f 158/3/6 159/3/6 170/3/6
f 169/5/6 158/5/6 170/5/6
f 170/3/6 159/3/6 171/3/6
f 166/3/6 167/3/6 172/3/6
f 165/3/6 166/3/6 172/3/6
f 172/3/6 167/3/6 173/3/6
f 167/4/6 168/4/6 174/4/6
f 173/3/6 167/3/6 174/3/6
f 168/2/6 169/2/6 175/2/6
f 174/4/6 168/4/6 175/4/6
f 169/2/6 170/2/6 175/2/6
f 175/2/6 170/2/6 176/2/6
f 176/2/6 170/2/6 177/2/6
f 173/3/6 174/3/6 178/3/6
f 174/3/6 175/3/6 178/3/6
f 175/3/6 176/3/6 178/3/6
f 178/3/6 176/3/6 179/3/6
f 176/5/6 177/5/6 180/5/6
f 179/3/6 176/3/6 180/3/6
f 180/5/6 177/5/6 181/5/6
f 179/3/6 180/3/6 182/3/6
f 180/2/6 181/2/6 183/2/6
f 182/3/6 180/3/6 183/3/6
f 179/3/6 182/3/6 184/3/6
f 182/2/6 183/2/6 184/2/6
f 183/2/6 181/2/6 185/2/6
f 184/2/6 183/2/6 185/2/6
f 185/2/6 181/2/6 186/2/6
f 179/3/6 184/3/6 187/3/6
f 184/3/6 185/3/6 187/3/6
f 187/3/6 185/3/6 188/3/6
f 188/3/6 185/3/6 189/3/6
f 185/5/6 186/5/6 190/5/6
f 189/3/6 185/3/6 190/3/6
f 191/1/6 192/1/6 193/1/6
f 193/1/6 192/1/6 194/1/6
f 190/5/6 186/5/6 195/5/6
f 195/5/6 186/5/6 196/5/6
