# MagicaVoxel @ Ephtracy

# group
o 

# material
mtllib sward-right.mtl
usemtl palette

# normals
vn -1 0 0
vn 1 0 0
vn 0 0 1
vn 0 0 -1
vn 0 -1 0
vn 0 1 0

# texcoords
vt 0.841797 0.5
vt 0.958984 0.5
vt 0.970703 0.5
vt 0.986328 0.5

# verts
v -0.5 -0.0999998 0.5
v -0.5 -0.0999998 0.3
v -0.5 1.93715e-007 0.5
v -0.5 1.93715e-007 0.3
v -0.4 -0.0999998 2
v -0.4 -0.0999998 0.5
v -0.4 -0.0999998 0.3
v -0.4 -0.0999998 0.2
v -0.4 -0.0999998 -0.3
v -0.4 -0.0999998 -0.4
v -0.4 1.93715e-007 2
v -0.4 1.93715e-007 0.5
v -0.4 1.93715e-007 0.3
v -0.4 1.93715e-007 0.2
v -0.4 1.93715e-007 -0.3
v -0.4 1.93715e-007 -0.4
v -0.3 -0.0999998 2.1
v -0.3 -0.0999998 2
v -0.3 -0.0999998 0.2
v -0.3 -0.0999998 -0.2
v -0.3 -0.0999998 -0.3
v -0.3 -0.0999998 -0.4
v -0.3 -0.0999998 -0.5
v -0.3 1.93715e-007 2.1
v -0.3 1.93715e-007 2
v -0.3 1.93715e-007 0.2
v -0.3 1.93715e-007 -0.2
v -0.3 1.93715e-007 -0.3
v -0.3 1.93715e-007 -0.4
v -0.3 1.93715e-007 -0.5
v -0.1 -0.0999998 0.0999999
v -0.1 -0.0999998 -0.0999999
v -0.1 1.93715e-007 0.0999999
v -0.1 1.93715e-007 -0.0999999
v -0.2 -0.0999998 2.1
v -0.2 -0.0999998 2
v -0.2 -0.0999998 0.2
v -0.2 -0.0999998 -0.2
v -0.2 -0.0999998 -0.3
v -0.2 -0.0999998 -0.4
v -0.2 -0.0999998 -0.5
v -0.2 1.93715e-007 2.1
v -0.2 1.93715e-007 2
v -0.2 1.93715e-007 0.2
v -0.2 1.93715e-007 -0.2
v -0.2 1.93715e-007 -0.3
v -0.2 1.93715e-007 -0.4
v -0.2 1.93715e-007 -0.5
v -0.1 -0.0999998 2
v -0.1 -0.0999998 0.5
v -0.1 -0.0999998 0.3
v -0.1 -0.0999998 0.2
v -0.1 -0.0999998 -0.3
v -0.1 -0.0999998 -0.4
v -0.1 1.93715e-007 2
v -0.1 1.93715e-007 0.5
v -0.1 1.93715e-007 0.3
v -0.1 1.93715e-007 0.2
v -0.1 1.93715e-007 -0.3
v -0.1 1.93715e-007 -0.4
v 5.96046e-008 -0.0999998 0.5
v 5.96046e-008 -0.0999998 0.3
v 5.96046e-008 -0.0999998 0.0999999
v 5.96046e-008 -0.0999998 -0.0999999
v 5.96046e-008 1.93715e-007 0.5
v 5.96046e-008 1.93715e-007 0.3
v 5.96046e-008 1.93715e-007 0.0999999
v 5.96046e-008 1.93715e-007 -0.0999999
v -0.3 -0.0999998 2.1
v -0.3 1.93715e-007 2.1
v -0.2 -0.0999998 2.1
v -0.2 1.93715e-007 2.1
v -0.4 -0.0999998 2
v -0.4 1.93715e-007 2
v -0.3 -0.0999998 2
v -0.3 1.93715e-007 2
v -0.2 -0.0999998 2
v -0.2 1.93715e-007 2
v -0.1 -0.0999998 2
v -0.1 1.93715e-007 2
v -0.5 -0.0999998 0.5
v -0.5 1.93715e-007 0.5
v -0.4 -0.0999998 0.5
v -0.4 1.93715e-007 0.5
v -0.1 -0.0999998 0.5
v -0.1 1.93715e-007 0.5
v 5.96046e-008 -0.0999998 0.5
v 5.96046e-008 1.93715e-007 0.5
v -0.1 -0.0999998 0.0999999
v -0.1 1.93715e-007 0.0999999
v 5.96046e-008 -0.0999998 0.0999999
v 5.96046e-008 1.93715e-007 0.0999999
v -0.4 -0.0999998 -0.3
v -0.4 1.93715e-007 -0.3
v -0.3 -0.0999998 -0.3
v -0.3 1.93715e-007 -0.3
v -0.2 -0.0999998 -0.3
v -0.2 1.93715e-007 -0.3
v -0.1 -0.0999998 -0.3
v -0.1 1.93715e-007 -0.3
v -0.5 -0.0999998 0.3
v -0.5 1.93715e-007 0.3
v -0.4 -0.0999998 0.3
v -0.4 1.93715e-007 0.3
v -0.1 -0.0999998 0.3
v -0.1 1.93715e-007 0.3
v 5.96046e-008 -0.0999998 0.3
v 5.96046e-008 1.93715e-007 0.3
v -0.4 -0.0999998 0.2
v -0.4 1.93715e-007 0.2
v -0.3 -0.0999998 0.2
v -0.3 1.93715e-007 0.2
v -0.2 -0.0999998 0.2
v -0.2 1.93715e-007 0.2
v -0.1 -0.0999998 0.2
v -0.1 1.93715e-007 0.2
v -0.1 -0.0999998 -0.0999999
v -0.1 1.93715e-007 -0.0999999
v 5.96046e-008 -0.0999998 -0.0999999
v 5.96046e-008 1.93715e-007 -0.0999999
v -0.4 -0.0999998 -0.4
v -0.4 1.93715e-007 -0.4
v -0.3 -0.0999998 -0.4
v -0.3 1.93715e-007 -0.4
v -0.2 -0.0999998 -0.4
v -0.2 1.93715e-007 -0.4
v -0.1 -0.0999998 -0.4
v -0.1 1.93715e-007 -0.4
v -0.3 -0.0999998 -0.5
v -0.3 1.93715e-007 -0.5
v -0.2 -0.0999998 -0.5
v -0.2 1.93715e-007 -0.5
v -0.3 -0.0999998 2.1
v -0.2 -0.0999998 2.1
v -0.4 -0.0999998 2
v -0.3 -0.0999998 2
v -0.2 -0.0999998 2
v -0.1 -0.0999998 2
v -0.5 -0.0999998 0.5
v -0.4 -0.0999998 0.5
v -0.1 -0.0999998 0.5
v 5.96046e-008 -0.0999998 0.5
v -0.4 -0.0999998 0.4
v -0.1 -0.0999998 0.4
v -0.5 -0.0999998 0.3
v -0.4 -0.0999998 0.3
v -0.3 -0.0999998 0.3
v -0.2 -0.0999998 0.3
v -0.1 -0.0999998 0.3
v 5.96046e-008 -0.0999998 0.3
v -0.4 -0.0999998 0.2
v -0.3 -0.0999998 0.2
v -0.2 -0.0999998 0.2
v -0.1 -0.0999998 0.2
v -0.1 -0.0999998 0.0999999
v 5.96046e-008 -0.0999998 0.0999999
v -0.1 -0.0999998 -0.0999999
v 5.96046e-008 -0.0999998 -0.0999999
v -0.3 -0.0999998 -0.2
v -0.2 -0.0999998 -0.2
v -0.4 -0.0999998 -0.3
v -0.3 -0.0999998 -0.3
v -0.2 -0.0999998 -0.3
v -0.1 -0.0999998 -0.3
v -0.4 -0.0999998 -0.4
v -0.3 -0.0999998 -0.4
v -0.2 -0.0999998 -0.4
v -0.1 -0.0999998 -0.4
v -0.3 -0.0999998 -0.5
v -0.2 -0.0999998 -0.5
v -0.3 1.93715e-007 2.1
v -0.2 1.93715e-007 2.1
v -0.4 1.93715e-007 2
v -0.3 1.93715e-007 2
v -0.2 1.93715e-007 2
v -0.1 1.93715e-007 2
v -0.5 1.93715e-007 0.5
v -0.4 1.93715e-007 0.5
v -0.1 1.93715e-007 0.5
v 5.96046e-008 1.93715e-007 0.5
v -0.4 1.93715e-007 0.4
v -0.1 1.93715e-007 0.4
v -0.5 1.93715e-007 0.3
v -0.4 1.93715e-007 0.3
v -0.3 1.93715e-007 0.3
v -0.2 1.93715e-007 0.3
v -0.1 1.93715e-007 0.3
v 5.96046e-008 1.93715e-007 0.3
v -0.4 1.93715e-007 0.2
v -0.3 1.93715e-007 0.2
v -0.2 1.93715e-007 0.2
v -0.1 1.93715e-007 0.2
v -0.1 1.93715e-007 0.0999999
v 5.96046e-008 1.93715e-007 0.0999999
v -0.1 1.93715e-007 -0.0999999
v 5.96046e-008 1.93715e-007 -0.0999999
v -0.3 1.93715e-007 -0.2
v -0.2 1.93715e-007 -0.2
v -0.4 1.93715e-007 -0.3
v -0.3 1.93715e-007 -0.3
v -0.2 1.93715e-007 -0.3
v -0.1 1.93715e-007 -0.3
v -0.4 1.93715e-007 -0.4
v -0.3 1.93715e-007 -0.4
v -0.2 1.93715e-007 -0.4
v -0.1 1.93715e-007 -0.4
v -0.3 1.93715e-007 -0.5
v -0.2 1.93715e-007 -0.5

# faces
f 3/3/1 2/3/1 1/3/1
f 4/3/1 2/3/1 3/3/1
f 11/2/1 6/2/1 5/2/1
f 12/2/1 6/2/1 11/2/1
f 13/3/1 8/3/1 7/3/1
f 14/3/1 8/3/1 13/3/1
f 15/3/1 10/3/1 9/3/1
f 16/3/1 10/3/1 15/3/1
f 24/2/1 18/2/1 17/2/1
f 25/2/1 18/2/1 24/2/1
f 26/4/1 20/4/1 19/4/1
f 27/3/1 21/3/1 20/3/1
f 27/4/1 20/4/1 26/4/1
f 28/3/1 21/3/1 27/3/1
f 29/3/1 23/3/1 22/3/1
f 30/3/1 23/3/1 29/3/1
f 33/1/1 32/1/1 31/1/1
f 34/1/1 32/1/1 33/1/1
f 35/2/2 36/2/2 42/2/2
f 42/2/2 36/2/2 43/2/2
f 37/4/2 38/4/2 44/4/2
f 38/3/2 39/3/2 45/3/2
f 44/4/2 38/4/2 45/4/2
f 45/3/2 39/3/2 46/3/2
f 40/3/2 41/3/2 47/3/2
f 47/3/2 41/3/2 48/3/2
f 49/2/2 50/2/2 55/2/2
f 55/2/2 50/2/2 56/2/2
f 51/3/2 52/3/2 57/3/2
f 57/3/2 52/3/2 58/3/2
f 53/3/2 54/3/2 59/3/2
f 59/3/2 54/3/2 60/3/2
f 61/3/2 62/3/2 65/3/2
f 65/3/2 62/3/2 66/3/2
f 63/1/2 64/1/2 67/1/2
f 67/1/2 64/1/2 68/1/2
f 71/2/3 70/2/3 69/2/3
f 72/2/3 70/2/3 71/2/3
f 75/2/3 74/2/3 73/2/3
f 76/2/3 74/2/3 75/2/3
f 79/2/3 78/2/3 77/2/3
f 80/2/3 78/2/3 79/2/3
f 83/3/3 82/3/3 81/3/3
f 84/3/3 82/3/3 83/3/3
f 87/3/3 86/3/3 85/3/3
f 88/3/3 86/3/3 87/3/3
f 91/1/3 90/1/3 89/1/3
f 92/1/3 90/1/3 91/1/3
f 95/3/3 94/3/3 93/3/3
f 96/3/3 94/3/3 95/3/3
f 99/3/3 98/3/3 97/3/3
f 100/3/3 98/3/3 99/3/3
f 101/3/4 102/3/4 103/3/4
f 103/3/4 102/3/4 104/3/4
f 105/3/4 106/3/4 107/3/4
f 107/3/4 106/3/4 108/3/4
f 109/3/4 110/3/4 111/3/4
f 111/3/4 110/3/4 112/3/4
f 113/3/4 114/3/4 115/3/4
f 115/3/4 114/3/4 116/3/4
f 117/1/4 118/1/4 119/1/4
f 119/1/4 118/1/4 120/1/4
f 121/3/4 122/3/4 123/3/4
f 123/3/4 122/3/4 124/3/4
f 125/3/4 126/3/4 127/3/4
f 127/3/4 126/3/4 128/3/4
f 129/3/4 130/3/4 131/3/4
f 131/3/4 130/3/4 132/3/4
f 136/2/5 134/2/5 133/2/5
f 137/2/5 134/2/5 136/2/5
f 140/2/5 136/2/5 135/2/5
f 140/2/5 138/2/5 137/2/5
f 140/2/5 137/2/5 136/2/5
f 141/2/5 138/2/5 140/2/5
f 143/3/5 140/3/5 139/3/5
f 143/2/5 141/2/5 140/2/5
f 144/3/5 142/3/5 141/3/5
f 144/2/5 141/2/5 143/2/5
f 145/3/5 143/3/5 139/3/5
f 145/3/5 144/3/5 143/3/5
f 146/3/5 144/3/5 145/3/5
f 147/3/5 144/3/5 146/3/5
f 148/3/5 144/3/5 147/3/5
f 149/3/5 142/3/5 144/3/5
f 149/3/5 144/3/5 148/3/5
f 150/3/5 142/3/5 149/3/5
f 151/3/5 147/3/5 146/3/5
f 152/4/5 148/4/5 147/4/5
f 152/3/5 147/3/5 151/3/5
f 153/3/5 149/3/5 148/3/5
f 153/4/5 148/4/5 152/4/5
f 154/3/5 149/3/5 153/3/5
f 157/1/5 156/1/5 155/1/5
f 158/1/5 156/1/5 157/1/5
f 159/4/5 153/4/5 152/4/5
f 160/4/5 153/4/5 159/4/5
f 162/3/5 160/3/5 159/3/5
f 163/3/5 160/3/5 162/3/5
f 165/3/5 163/3/5 162/3/5
f 165/3/5 164/3/5 163/3/5
f 165/3/5 162/3/5 161/3/5
f 166/3/5 164/3/5 165/3/5
f 167/3/5 164/3/5 166/3/5
f 168/3/5 164/3/5 167/3/5
f 169/3/5 167/3/5 166/3/5
f 170/3/5 167/3/5 169/3/5
f 171/2/6 172/2/6 174/2/6
f 174/2/6 172/2/6 175/2/6
f 173/2/6 174/2/6 178/2/6
f 175/2/6 176/2/6 178/2/6
f 174/2/6 175/2/6 178/2/6
f 178/2/6 176/2/6 179/2/6
f 177/3/6 178/3/6 181/3/6
f 178/2/6 179/2/6 181/2/6
f 179/3/6 180/3/6 182/3/6
f 181/2/6 179/2/6 182/2/6
f 177/3/6 181/3/6 183/3/6
f 181/3/6 182/3/6 183/3/6
f 183/3/6 182/3/6 184/3/6
f 184/3/6 182/3/6 185/3/6
f 185/3/6 182/3/6 186/3/6
f 182/3/6 180/3/6 187/3/6
f 186/3/6 182/3/6 187/3/6
f 187/3/6 180/3/6 188/3/6
f 184/3/6 185/3/6 189/3/6
f 185/4/6 186/4/6 190/4/6
f 189/3/6 185/3/6 190/3/6
f 186/3/6 187/3/6 191/3/6
f 190/4/6 186/4/6 191/4/6
f 191/3/6 187/3/6 192/3/6
f 193/1/6 194/1/6 195/1/6
f 195/1/6 194/1/6 196/1/6
f 190/4/6 191/4/6 197/4/6
f 197/4/6 191/4/6 198/4/6
f 197/3/6 198/3/6 200/3/6
f 200/3/6 198/3/6 201/3/6
f 200/3/6 201/3/6 203/3/6
f 201/3/6 202/3/6 203/3/6
f 199/3/6 200/3/6 203/3/6
f 203/3/6 202/3/6 204/3/6
f 204/3/6 202/3/6 205/3/6
f 205/3/6 202/3/6 206/3/6
f 204/3/6 205/3/6 207/3/6
f 207/3/6 205/3/6 208/3/6
