# MagicaVoxel @ Ephtracy

# group
o 

# material
mtllib sward-left.mtl
usemtl palette

# normals
vn -1 0 0
vn 1 0 0
vn 0 0 1
vn 0 0 -1
vn 0 -1 0
vn 0 1 0

# texcoords
vt 0.841797 0.5
vt 0.958984 0.5
vt 0.970703 0.5
vt 0.986328 0.5

# verts
v -1.9 -0.0999998 0.1
v -1.9 -0.0999998 -2.98023e-008
v -1.9 1.93715e-007 0.1
v -1.9 1.93715e-007 -2.98023e-008
v -1.8 -0.0999998 0.2
v -1.8 -0.0999998 0.1
v -1.8 -0.0999998 -2.98023e-008
v -1.8 -0.0999998 -0.1
v -1.8 1.93715e-007 0.2
v -1.8 1.93715e-007 0.1
v -1.8 1.93715e-007 -2.98023e-008
v -1.8 1.93715e-007 -0.1
v -0.3 -0.0999998 0.3
v -0.3 -0.0999998 0.2
v -0.3 -0.0999998 -0.1
v -0.3 -0.0999998 -0.2
v -0.3 1.93715e-007 0.3
v -0.3 1.93715e-007 0.2
v -0.3 1.93715e-007 -0.1
v -0.3 1.93715e-007 -0.2
v 0.5 -0.0999998 0.2
v 0.5 -0.0999998 0.1
v 0.5 -0.0999998 -2.98023e-008
v 0.5 -0.0999998 -0.1
v 0.5 1.93715e-007 0.2
v 0.5 1.93715e-007 0.1
v 0.5 1.93715e-007 -2.98023e-008
v 0.5 1.93715e-007 -0.1
v -0.1 -0.0999998 0.3
v -0.1 -0.0999998 0.2
v -0.1 -0.0999998 -0.1
v -0.1 -0.0999998 -0.2
v -0.1 1.93715e-007 0.3
v -0.1 1.93715e-007 0.2
v -0.1 1.93715e-007 -0.1
v -0.1 1.93715e-007 -0.2
v 0 -0.0999998 0.2
v 0 -0.0999998 0.1
v 0 -0.0999998 -2.98023e-008
v 0 -0.0999998 -0.1
v 0 1.93715e-007 0.2
v 0 1.93715e-007 0.1
v 0 1.93715e-007 -2.98023e-008
v 0 1.93715e-007 -0.1
v 0.6 -0.0999998 0.2
v 0.6 -0.0999998 0.1
v 0.6 -0.0999998 -2.98023e-008
v 0.6 -0.0999998 -0.1
v 0.6 1.93715e-007 0.2
v 0.6 1.93715e-007 0.1
v 0.6 1.93715e-007 -2.98023e-008
v 0.6 1.93715e-007 -0.1
v 0.7 -0.0999998 0.1
v 0.7 -0.0999998 -2.98023e-008
v 0.7 1.93715e-007 0.1
v 0.7 1.93715e-007 -2.98023e-008
v -0.3 -0.0999998 0.3
v -0.3 1.93715e-007 0.3
v -0.1 -0.0999998 0.3
v -0.1 1.93715e-007 0.3
v -1.8 -0.0999998 0.2
v -1.8 1.93715e-007 0.2
v -0.3 -0.0999998 0.2
v -0.3 1.93715e-007 0.2
v -0.1 -0.0999998 0.2
v -0.1 1.93715e-007 0.2
v 0 -0.0999998 0.2
v 0 1.93715e-007 0.2
v 0.5 -0.0999998 0.2
v 0.5 1.93715e-007 0.2
v 0.6 -0.0999998 0.2
v 0.6 1.93715e-007 0.2
v -1.9 -0.0999998 0.1
v -1.9 1.93715e-007 0.1
v -1.8 -0.0999998 0.1
v -1.8 1.93715e-007 0.1
v 0 -0.0999998 0.1
v 0 1.93715e-007 0.1
v 0.4 -0.0999998 0.1
v 0.4 1.93715e-007 0.1
v 0.5 -0.0999998 0.1
v 0.5 1.93715e-007 0.1
v 0.6 -0.0999998 0.1
v 0.6 1.93715e-007 0.1
v 0.7 -0.0999998 0.1
v 0.7 1.93715e-007 0.1
v -1.9 -0.0999998 -2.98023e-008
v -1.9 1.93715e-007 -2.98023e-008
v -1.8 -0.0999998 -2.98023e-008
v -1.8 1.93715e-007 -2.98023e-008
v 0 -0.0999998 -2.98023e-008
v 0 1.93715e-007 -2.98023e-008
v 0.4 -0.0999998 -2.98023e-008
v 0.4 1.93715e-007 -2.98023e-008
v 0.5 -0.0999998 -2.98023e-008
v 0.5 1.93715e-007 -2.98023e-008
v 0.6 -0.0999998 -2.98023e-008
v 0.6 1.93715e-007 -2.98023e-008
v 0.7 -0.0999998 -2.98023e-008
v 0.7 1.93715e-007 -2.98023e-008
v -1.8 -0.0999998 -0.1
v -1.8 1.93715e-007 -0.1
v -0.3 -0.0999998 -0.1
v -0.3 1.93715e-007 -0.1
v -0.1 -0.0999998 -0.1
v -0.1 1.93715e-007 -0.1
v 0 -0.0999998 -0.1
v 0 1.93715e-007 -0.1
v 0.5 -0.0999998 -0.1
v 0.5 1.93715e-007 -0.1
v 0.6 -0.0999998 -0.1
v 0.6 1.93715e-007 -0.1
v -0.3 -0.0999998 -0.2
v -0.3 1.93715e-007 -0.2
v -0.1 -0.0999998 -0.2
v -0.1 1.93715e-007 -0.2
v -0.3 -0.0999998 0.3
v -0.1 -0.0999998 0.3
v -1.8 -0.0999998 0.2
v -0.3 -0.0999998 0.2
v -0.2 -0.0999998 0.2
v -0.1 -0.0999998 0.2
v 0 -0.0999998 0.2
v 0.5 -0.0999998 0.2
v 0.6 -0.0999998 0.2
v -1.9 -0.0999998 0.1
v -1.8 -0.0999998 0.1
v -0.1 -0.0999998 0.1
v 0 -0.0999998 0.1
v 0.4 -0.0999998 0.1
v 0.5 -0.0999998 0.1
v 0.6 -0.0999998 0.1
v 0.7 -0.0999998 0.1
v -1.9 -0.0999998 -2.98023e-008
v -1.8 -0.0999998 -2.98023e-008
v -0.1 -0.0999998 -2.98023e-008
v 0 -0.0999998 -2.98023e-008
v 0.4 -0.0999998 -2.98023e-008
v 0.5 -0.0999998 -2.98023e-008
v 0.6 -0.0999998 -2.98023e-008
v 0.7 -0.0999998 -2.98023e-008
v -1.8 -0.0999998 -0.1
v -0.3 -0.0999998 -0.1
v -0.2 -0.0999998 -0.1
v -0.1 -0.0999998 -0.1
v 0 -0.0999998 -0.1
v 0.5 -0.0999998 -0.1
v 0.6 -0.0999998 -0.1
v -0.3 -0.0999998 -0.2
v -0.1 -0.0999998 -0.2
v -0.3 1.93715e-007 0.3
v -0.1 1.93715e-007 0.3
v -1.8 1.93715e-007 0.2
v -0.3 1.93715e-007 0.2
v -0.2 1.93715e-007 0.2
v -0.1 1.93715e-007 0.2
v 0 1.93715e-007 0.2
v 0.5 1.93715e-007 0.2
v 0.6 1.93715e-007 0.2
v -1.9 1.93715e-007 0.1
v -1.8 1.93715e-007 0.1
v -0.1 1.93715e-007 0.1
v 0 1.93715e-007 0.1
v 0.4 1.93715e-007 0.1
v 0.5 1.93715e-007 0.1
v 0.6 1.93715e-007 0.1
v 0.7 1.93715e-007 0.1
v -1.9 1.93715e-007 -2.98023e-008
v -1.8 1.93715e-007 -2.98023e-008
v -0.1 1.93715e-007 -2.98023e-008
v 0 1.93715e-007 -2.98023e-008
v 0.4 1.93715e-007 -2.98023e-008
v 0.5 1.93715e-007 -2.98023e-008
v 0.6 1.93715e-007 -2.98023e-008
v 0.7 1.93715e-007 -2.98023e-008
v -1.8 1.93715e-007 -0.1
v -0.3 1.93715e-007 -0.1
v -0.2 1.93715e-007 -0.1
v -0.1 1.93715e-007 -0.1
v 0 1.93715e-007 -0.1
v 0.5 1.93715e-007 -0.1
v 0.6 1.93715e-007 -0.1
v -0.3 1.93715e-007 -0.2
v -0.1 1.93715e-007 -0.2

# faces
f 3/2/1 2/2/1 1/2/1
f 4/2/1 2/2/1 3/2/1
f 9/2/1 6/2/1 5/2/1
f 10/2/1 6/2/1 9/2/1
f 11/2/1 8/2/1 7/2/1
f 12/2/1 8/2/1 11/2/1
f 17/3/1 14/3/1 13/3/1
f 18/3/1 14/3/1 17/3/1
f 19/3/1 16/3/1 15/3/1
f 20/3/1 16/3/1 19/3/1
f 25/3/1 22/3/1 21/3/1
f 26/3/1 22/3/1 25/3/1
f 27/3/1 24/3/1 23/3/1
f 28/3/1 24/3/1 27/3/1
f 29/3/2 30/3/2 33/3/2
f 33/3/2 30/3/2 34/3/2
f 31/3/2 32/3/2 35/3/2
f 35/3/2 32/3/2 36/3/2
f 37/3/2 38/3/2 41/3/2
f 41/3/2 38/3/2 42/3/2
f 39/3/2 40/3/2 43/3/2
f 43/3/2 40/3/2 44/3/2
f 45/3/2 46/3/2 49/3/2
f 49/3/2 46/3/2 50/3/2
f 47/3/2 48/3/2 51/3/2
f 51/3/2 48/3/2 52/3/2
f 53/3/2 54/3/2 55/3/2
f 55/3/2 54/3/2 56/3/2
f 59/3/3 58/3/3 57/3/3
f 60/3/3 58/3/3 59/3/3
f 63/2/3 62/2/3 61/2/3
f 64/2/3 62/2/3 63/2/3
f 67/3/3 66/3/3 65/3/3
f 68/3/3 66/3/3 67/3/3
f 71/3/3 70/3/3 69/3/3
f 72/3/3 70/3/3 71/3/3
f 75/2/3 74/2/3 73/2/3
f 76/2/3 74/2/3 75/2/3
f 79/4/3 78/4/3 77/4/3
f 80/4/3 78/4/3 79/4/3
f 81/3/3 80/3/3 79/3/3
f 82/3/3 80/3/3 81/3/3
f 85/3/3 84/3/3 83/3/3
f 86/3/3 84/3/3 85/3/3
f 87/2/4 88/2/4 89/2/4
f 89/2/4 88/2/4 90/2/4
f 91/4/4 92/4/4 93/4/4
f 93/4/4 92/4/4 94/4/4
f 93/3/4 94/3/4 95/3/4
f 95/3/4 94/3/4 96/3/4
f 97/3/4 98/3/4 99/3/4
f 99/3/4 98/3/4 100/3/4
f 101/2/4 102/2/4 103/2/4
f 103/2/4 102/2/4 104/2/4
f 105/3/4 106/3/4 107/3/4
f 107/3/4 106/3/4 108/3/4
f 109/3/4 110/3/4 111/3/4
f 111/3/4 110/3/4 112/3/4
f 113/3/4 114/3/4 115/3/4
f 115/3/4 114/3/4 116/3/4
f 120/3/5 118/3/5 117/3/5
f 121/3/5 118/3/5 120/3/5
f 122/3/5 118/3/5 121/3/5
f 127/2/5 120/2/5 119/2/5
f 127/2/5 121/2/5 120/2/5
f 128/3/5 123/3/5 122/3/5
f 128/3/5 122/3/5 121/3/5
f 129/3/5 123/3/5 128/3/5
f 131/3/5 125/3/5 124/3/5
f 132/3/5 125/3/5 131/3/5
f 134/2/5 127/2/5 126/2/5
f 135/2/5 121/2/5 127/2/5
f 135/2/5 127/2/5 134/2/5
f 136/3/5 128/3/5 121/3/5
f 136/1/5 129/1/5 128/1/5
f 137/4/5 130/4/5 129/4/5
f 137/1/5 129/1/5 136/1/5
f 138/3/5 133/3/5 132/3/5
f 138/4/5 130/4/5 137/4/5
f 138/3/5 131/3/5 130/3/5
f 138/3/5 132/3/5 131/3/5
f 139/3/5 133/3/5 138/3/5
f 140/3/5 133/3/5 139/3/5
f 141/3/5 133/3/5 140/3/5
f 142/2/5 121/2/5 135/2/5
f 143/2/5 121/2/5 142/2/5
f 144/3/5 136/3/5 121/3/5
f 144/2/5 121/2/5 143/2/5
f 144/3/5 137/3/5 136/3/5
f 145/3/5 137/3/5 144/3/5
f 146/3/5 137/3/5 145/3/5
f 147/3/5 140/3/5 139/3/5
f 148/3/5 140/3/5 147/3/5
f 149/3/5 144/3/5 143/3/5
f 149/3/5 145/3/5 144/3/5
f 150/3/5 145/3/5 149/3/5
f 151/3/6 152/3/6 154/3/6
f 154/3/6 152/3/6 155/3/6
f 155/3/6 152/3/6 156/3/6
f 153/2/6 154/2/6 161/2/6
f 154/2/6 155/2/6 161/2/6
f 156/3/6 157/3/6 162/3/6
f 155/3/6 156/3/6 162/3/6
f 162/3/6 157/3/6 163/3/6
f 158/3/6 159/3/6 165/3/6
f 165/3/6 159/3/6 166/3/6
f 160/2/6 161/2/6 168/2/6
f 161/2/6 155/2/6 169/2/6
f 168/2/6 161/2/6 169/2/6
f 155/3/6 162/3/6 170/3/6
f 162/1/6 163/1/6 170/1/6
f 163/4/6 164/4/6 171/4/6
f 170/1/6 163/1/6 171/1/6
f 166/3/6 167/3/6 172/3/6
f 171/4/6 164/4/6 172/4/6
f 164/3/6 165/3/6 172/3/6
f 165/3/6 166/3/6 172/3/6
f 172/3/6 167/3/6 173/3/6
f 173/3/6 167/3/6 174/3/6
f 174/3/6 167/3/6 175/3/6
f 169/2/6 155/2/6 176/2/6
f 176/2/6 155/2/6 177/2/6
f 155/3/6 170/3/6 178/3/6
f 177/2/6 155/2/6 178/2/6
f 170/3/6 171/3/6 178/3/6
f 178/3/6 171/3/6 179/3/6
f 179/3/6 171/3/6 180/3/6
f 173/3/6 174/3/6 181/3/6
f 181/3/6 174/3/6 182/3/6
f 177/3/6 178/3/6 183/3/6
f 178/3/6 179/3/6 183/3/6
f 183/3/6 179/3/6 184/3/6
