# MagicaVoxel @ Ephtracy

# group
o 

# material
mtllib gress.mtl
usemtl palette

# normals
vn -1 0 0
vn 1 0 0
vn 0 0 1
vn 0 0 -1
vn 0 -1 0
vn 0 1 0

# texcoords
vt 0.888672 0.5
vt 0.896484 0.5
vt 0.904297 0.5

# verts
v -2 0 2
v -2 0 -2
v -2 0.1 2
v -2 0.1 -2
v 2 0 2
v 2 0 -2
v 2 0.1 2
v 2 0.1 -2
v -2 0 2
v -2 0.1 2
v 2 0 2
v 2 0.1 2
v -2 0 -2
v -2 0.1 -2
v 2 0 -2
v 2 0.1 -2
v -2 0 2
v 2 0 2
v -1.9 0 1.9
v 1.9 0 1.9
v -1.7 0 1.7
v 1.7 0 1.7
v -1.7 0 -1.7
v 1.7 0 -1.7
v -1.9 0 -1.9
v 1.9 0 -1.9
v -2 0 -2
v 2 0 -2
v -2 0.1 2
v 2 0.1 2
v -1.9 0.1 1.9
v 1.9 0.1 1.9
v -1.7 0.1 1.7
v 1.7 0.1 1.7
v -1.7 0.1 -1.7
v 1.7 0.1 -1.7
v -1.9 0.1 -1.9
v 1.9 0.1 -1.9
v -2 0.1 -2
v 2 0.1 -2

# faces
f 3/3/1 2/3/1 1/3/1
f 4/3/1 2/3/1 3/3/1
f 5/3/2 6/3/2 7/3/2
f 7/3/2 6/3/2 8/3/2
f 11/3/3 10/3/3 9/3/3
f 12/3/3 10/3/3 11/3/3
f 13/3/4 14/3/4 15/3/4
f 15/3/4 14/3/4 16/3/4
f 19/3/5 18/3/5 17/3/5
f 20/3/5 18/3/5 19/3/5
f 21/2/5 20/2/5 19/2/5
f 22/2/5 20/2/5 21/2/5
f 23/2/5 21/2/5 19/2/5
f 23/1/5 22/1/5 21/1/5
f 24/2/5 20/2/5 22/2/5
f 24/1/5 22/1/5 23/1/5
f 25/3/5 19/3/5 17/3/5
f 25/2/5 23/2/5 19/2/5
f 25/2/5 24/2/5 23/2/5
f 26/2/5 20/2/5 24/2/5
f 26/2/5 24/2/5 25/2/5
f 26/3/5 18/3/5 20/3/5
f 27/3/5 25/3/5 17/3/5
f 27/3/5 26/3/5 25/3/5
f 28/3/5 18/3/5 26/3/5
f 28/3/5 26/3/5 27/3/5
f 29/3/6 30/3/6 31/3/6
f 31/3/6 30/3/6 32/3/6
f 31/2/6 32/2/6 33/2/6
f 33/2/6 32/2/6 34/2/6
f 31/2/6 33/2/6 35/2/6
f 33/1/6 34/1/6 35/1/6
f 34/2/6 32/2/6 36/2/6
f 35/1/6 34/1/6 36/1/6
f 29/3/6 31/3/6 37/3/6
f 31/2/6 35/2/6 37/2/6
f 35/2/6 36/2/6 37/2/6
f 36/2/6 32/2/6 38/2/6
f 37/2/6 36/2/6 38/2/6
f 32/3/6 30/3/6 38/3/6
f 29/3/6 37/3/6 39/3/6
f 37/3/6 38/3/6 39/3/6
f 38/3/6 30/3/6 40/3/6
f 39/3/6 38/3/6 40/3/6
