# MagicaVoxel @ Ephtracy

# group
o 

# material
mtllib soil.mtl
usemtl palette

# normals
vn -1 0 0
vn 1 0 0
vn 0 0 1
vn 0 0 -1
vn 0 -1 0
vn 0 1 0

# texcoords
vt 0.205078 0.5
vt 0.373047 0.5

# verts
v -2 -2.1 2
v -2 -2.1 1.8
v -2 -2.1 -1.8
v -2 -2.1 -2
v -2 -0.2 1.8
v -2 -0.2 -1.8
v -2 0 2
v -2 0 -2
v 2 -2.1 2
v 2 -2.1 1.8
v 2 -2.1 -1.8
v 2 -2.1 -2
v 2 -0.2 1.8
v 2 -0.2 -1.8
v 2 0 2
v 2 0 -2
v -2 -2.1 2
v -2 0 2
v -1.8 -2.1 2
v -1.8 -0.2 2
v 1.8 -2.1 2
v 1.8 -0.2 2
v 2 -2.1 2
v 2 0 2
v -2 -2.1 -2
v -2 0 -2
v -1.8 -2.1 -2
v -1.8 -0.2 -2
v 1.8 -2.1 -2
v 1.8 -0.2 -2
v 2 -2.1 -2
v 2 0 -2
v -2 -2.1 2
v -1.8 -2.1 2
v 1.8 -2.1 2
v 2 -2.1 2
v -1.9 -2.1 1.9
v -1.8 -2.1 1.9
v 1.8 -2.1 1.9
v 1.9 -2.1 1.9
v -2 -2.1 1.8
v -1.9 -2.1 1.8
v 1.9 -2.1 1.8
v 2 -2.1 1.8
v -2 -2.1 -1.8
v -1.9 -2.1 -1.8
v 1.9 -2.1 -1.8
v 2 -2.1 -1.8
v -1.9 -2.1 -1.9
v -1.8 -2.1 -1.9
v 1.8 -2.1 -1.9
v 1.9 -2.1 -1.9
v -2 -2.1 -2
v -1.8 -2.1 -2
v 1.8 -2.1 -2
v 2 -2.1 -2
v -2 0 2
v 2 0 2
v -1.8 0 1.8
v 1.8 0 1.8
v -1.8 0 -1.8
v 1.8 0 -1.8
v -2 0 -2
v 2 0 -2

# faces
f 5/2/1 2/2/1 1/2/1
f 5/1/1 3/1/1 2/1/1
f 6/2/1 4/2/1 3/2/1
f 6/1/1 3/1/1 5/1/1
f 7/2/1 5/2/1 1/2/1
f 7/2/1 6/2/1 5/2/1
f 8/2/1 4/2/1 6/2/1
f 8/2/1 6/2/1 7/2/1
f 9/2/2 10/2/2 13/2/2
f 10/1/2 11/1/2 13/1/2
f 11/2/2 12/2/2 14/2/2
f 13/1/2 11/1/2 14/1/2
f 9/2/2 13/2/2 15/2/2
f 13/2/2 14/2/2 15/2/2
f 14/2/2 12/2/2 16/2/2
f 15/2/2 14/2/2 16/2/2
f 19/2/3 18/2/3 17/2/3
f 20/2/3 18/2/3 19/2/3
f 21/1/3 20/1/3 19/1/3
f 22/2/3 18/2/3 20/2/3
f 22/1/3 20/1/3 21/1/3
f 23/2/3 22/2/3 21/2/3
f 24/2/3 18/2/3 22/2/3
f 24/2/3 22/2/3 23/2/3
f 25/2/4 26/2/4 27/2/4
f 27/2/4 26/2/4 28/2/4
f 27/1/4 28/1/4 29/1/4
f 28/2/4 26/2/4 30/2/4
f 29/1/4 28/1/4 30/1/4
f 29/2/4 30/2/4 31/2/4
f 30/2/4 26/2/4 32/2/4
f 31/2/4 30/2/4 32/2/4
f 37/2/5 34/2/5 33/2/5
f 38/1/5 35/1/5 34/1/5
f 38/2/5 34/2/5 37/2/5
f 39/2/5 36/2/5 35/2/5
f 39/1/5 35/1/5 38/1/5
f 40/2/5 36/2/5 39/2/5
f 41/2/5 37/2/5 33/2/5
f 42/1/5 38/1/5 37/1/5
f 42/2/5 37/2/5 41/2/5
f 42/1/5 39/1/5 38/1/5
f 42/1/5 40/1/5 39/1/5
f 43/2/5 36/2/5 40/2/5
f 43/1/5 40/1/5 42/1/5
f 44/2/5 36/2/5 43/2/5
f 45/1/5 42/1/5 41/1/5
f 45/1/5 43/1/5 42/1/5
f 45/1/5 44/1/5 43/1/5
f 46/1/5 44/1/5 45/1/5
f 47/1/5 44/1/5 46/1/5
f 48/1/5 44/1/5 47/1/5
f 49/2/5 46/2/5 45/2/5
f 49/1/5 47/1/5 46/1/5
f 50/1/5 47/1/5 49/1/5
f 51/1/5 47/1/5 50/1/5
f 52/2/5 48/2/5 47/2/5
f 52/1/5 47/1/5 51/1/5
f 53/2/5 49/2/5 45/2/5
f 53/2/5 50/2/5 49/2/5
f 54/1/5 51/1/5 50/1/5
f 54/2/5 50/2/5 53/2/5
f 55/2/5 52/2/5 51/2/5
f 55/1/5 51/1/5 54/1/5
f 56/2/5 48/2/5 52/2/5
f 56/2/5 52/2/5 55/2/5
f 57/2/6 58/2/6 59/2/6
f 59/2/6 58/2/6 60/2/6
f 57/2/6 59/2/6 61/2/6
f 59/1/6 60/1/6 61/1/6
f 60/2/6 58/2/6 62/2/6
f 61/1/6 60/1/6 62/1/6
f 57/2/6 61/2/6 63/2/6
f 61/2/6 62/2/6 63/2/6
f 62/2/6 58/2/6 64/2/6
f 63/2/6 62/2/6 64/2/6
